<svg version="1.1" id="bars-percentage-music-seasons" xmlns="http://www.w3.org/2000/svg" xmlns:xlink="http://www.w3.org/1999/xlink" x="0px" y="0px" width="100%" viewBox="0 0 361.6 211" enable-background="new 0 0 361.6 211" xml:space="preserve">
    <g>
        <defs>
            <polygon id="SVGID_1_" points="0,212.5 361.6,212.5 361.6,0 0,0 0,212.5 		" />
        </defs>
        <clipPath id="SVGID_2_">
            <use xlink:href="#SVGID_1_" overflow="visible" />
        </clipPath>

        <path clip-path="url(#SVGID_2_)" fill="none" stroke="#D9D9D9" stroke-width="0.72" stroke-linejoin="round" stroke-miterlimit="10" d="
		M37.6,152h313.1 M37.6,136.4h313.1 M37.6,120.7h313.1 M37.6,105.1h313.1 M37.6,89.4h313.1 M37.6,73.8h313.1 M37.6,58.1h313.1
		 M37.6,42.5h313.1 M37.6,26.8h313.1 M37.6,11.2h313.1" />
    </g>
    <g>
        <defs>
            <polygon id="SVGID_3_" points="37.6,168.5 351.2,168.5 351.2,11 37.6,11 37.6,168.5 		" />
        </defs>
        <clipPath id="SVGID_4_">
            <use xlink:href="#SVGID_3_" overflow="visible" />
        </clipPath>
        <path clip-path="url(#SVGID_4_)" fill="#007C3E" d="M56.4,148.4h25v19.3h-25V148.4L56.4,148.4z M118.9,158.2H144v9.6h-25.1V158.2
		L118.9,158.2z M181.6,152.5h25.1v15.2h-25.1V152.5L181.6,152.5z M244.2,148.8h25v19h-25V148.8L244.2,148.8z M306.7,148.6h25.1v19.2
		h-25.1V148.6L306.7,148.6z" />
    </g>
    <g>
        <defs>
            <polygon id="SVGID_5_" points="37.6,168.5 351.2,168.5 351.2,11 37.6,11 37.6,168.5 		" />
        </defs>
        <clipPath id="SVGID_6_">
            <use xlink:href="#SVGID_5_" overflow="visible" />
        </clipPath>
        <path clip-path="url(#SVGID_6_)" fill="#E4171C" d="M56.4,140h25v8.4h-25V140L56.4,140z M118.9,152.8H144v5.4h-25.1V152.8
		L118.9,152.8z M181.6,147.1h25.1v5.4h-25.1V147.1L181.6,147.1z M244.2,144.4h25v4.4h-25V144.4L244.2,144.4z M306.7,143.5h25.1v5
		h-25.1V143.5L306.7,143.5z" />
    </g>
    <g>
        <defs>
            <polygon id="SVGID_7_" points="37.6,168.5 351.2,168.5 351.2,11 37.6,11 37.6,168.5 		" />
        </defs>
        <clipPath id="SVGID_8_">
            <use xlink:href="#SVGID_7_" overflow="visible" />
        </clipPath>
        <path clip-path="url(#SVGID_8_)" fill="#B7B7B7" d="M56.4,11.2h25V140h-25V11.2L56.4,11.2z M118.9,11.2H144v141.6h-25.1V11.2
		L118.9,11.2z M181.6,11.2h25.1v136h-25.1V11.2L181.6,11.2z M244.2,11.2h25v133.2h-25V11.2L244.2,11.2z M306.7,11.2h25.1v132.4
		h-25.1V11.2L306.7,11.2z" />
    </g>
    <g>
        <defs>
            <polygon id="SVGID_9_" points="0,212.5 361.6,212.5 361.6,0 0,0 0,212.5 		" />
        </defs>
        <clipPath id="SVGID_10_">
            <use xlink:href="#SVGID_9_" overflow="visible" />
        </clipPath>

        <line clip-path="url(#SVGID_10_)" fill="none" stroke="#D9D9D9" stroke-width="0.72" stroke-linejoin="round" stroke-miterlimit="10" x1="37.6" y1="167.8" x2="350.6" y2="167.8" />
    </g>
    <g>
        <defs>
            <polygon id="SVGID_11_" points="0,212.5 361.6,212.5 361.6,0 0,0 0,212.5 		" />
        </defs>
        <clipPath id="SVGID_12_">
            <use xlink:href="#SVGID_11_" overflow="visible" />
        </clipPath>

        <path clip-path="url(#SVGID_12_)" fill="none" stroke="#D9D9D9" stroke-width="0.72" stroke-linejoin="round" stroke-miterlimit="10" d="
		M37.6,167.8v2.8 M100.2,167.8v2.8 M162.8,167.8v2.8 M225.4,167.8v2.8 M288,167.8v2.8 M350.6,167.8v2.8" />
    </g>
    <g>
        <defs>
            <rect id="SVGID_13_" width="361.6" height="212.5" />
        </defs>
        <clipPath id="SVGID_14_">
            <use xlink:href="#SVGID_13_" overflow="visible" />
        </clipPath>
        <g clip-path="url(#SVGID_14_)">
            <text transform="matrix(1 0 0 1 16.5771 170.605)">
                <tspan x="0" y="0" fill="#5A5A5A" font-family="'HelveticaLTStd-Roman'" font-size="9">0</tspan>
                <tspan x="4.7" y="0" fill="#5A5A5A" font-family="'HelveticaLTStd-Roman'" font-size="9">%</tspan>
            </text>
        </g>
    </g>
    <g>
        <defs>
            <rect id="SVGID_15_" width="361.6" height="212.5" />
        </defs>
        <clipPath id="SVGID_16_">
            <use xlink:href="#SVGID_15_" overflow="visible" />
        </clipPath>
        <g clip-path="url(#SVGID_16_)">
            <text transform="matrix(1 0 0 1 11.5693 154.9409)">
                <tspan x="0" y="0" fill="#5A5A5A" font-family="'HelveticaLTStd-Roman'" font-size="9">1</tspan>
                <tspan x="4.7" y="0" fill="#5A5A5A" font-family="'HelveticaLTStd-Roman'" font-size="9">0</tspan>
                <tspan x="9.2" y="0" fill="#5A5A5A" font-family="'HelveticaLTStd-Roman'" font-size="9">%</tspan>
            </text>
        </g>
    </g>
    <g>
        <defs>
            <rect id="SVGID_17_" width="361.6" height="212.5" />
        </defs>
        <clipPath id="SVGID_18_">
            <use xlink:href="#SVGID_17_" overflow="visible" />
        </clipPath>
        <g clip-path="url(#SVGID_18_)">
            <text transform="matrix(1 0 0 1 11.5693 139.2769)">
                <tspan x="0" y="0" fill="#5A5A5A" font-family="'HelveticaLTStd-Roman'" font-size="9">2</tspan>
                <tspan x="4.7" y="0" fill="#5A5A5A" font-family="'HelveticaLTStd-Roman'" font-size="9">0</tspan>
                <tspan x="9.2" y="0" fill="#5A5A5A" font-family="'HelveticaLTStd-Roman'" font-size="9">%</tspan>
            </text>
        </g>
    </g>
    <g>
        <defs>
            <rect id="SVGID_19_" width="361.6" height="212.5" />
        </defs>
        <clipPath id="SVGID_20_">
            <use xlink:href="#SVGID_19_" overflow="visible" />
        </clipPath>
        <g clip-path="url(#SVGID_20_)">
            <text transform="matrix(1 0 0 1 11.5693 123.605)">
                <tspan x="0" y="0" fill="#5A5A5A" font-family="'HelveticaLTStd-Roman'" font-size="9">3</tspan>
                <tspan x="4.7" y="0" fill="#5A5A5A" font-family="'HelveticaLTStd-Roman'" font-size="9">0</tspan>
                <tspan x="9.2" y="0" fill="#5A5A5A" font-family="'HelveticaLTStd-Roman'" font-size="9">%</tspan>
            </text>
        </g>
    </g>
    <g>
        <defs>
            <rect id="SVGID_21_" width="361.6" height="212.5" />
        </defs>
        <clipPath id="SVGID_22_">
            <use xlink:href="#SVGID_21_" overflow="visible" />
        </clipPath>
        <g clip-path="url(#SVGID_22_)">
            <text transform="matrix(1 0 0 1 11.5693 107.9487)">
                <tspan x="0" y="0" fill="#5A5A5A" font-family="'HelveticaLTStd-Roman'" font-size="9">4</tspan>
                <tspan x="4.7" y="0" fill="#5A5A5A" font-family="'HelveticaLTStd-Roman'" font-size="9">0</tspan>
                <tspan x="9.2" y="0" fill="#5A5A5A" font-family="'HelveticaLTStd-Roman'" font-size="9">%</tspan>
            </text>
        </g>
    </g>
    <g>
        <defs>
            <rect id="SVGID_23_" width="361.6" height="212.5" />
        </defs>
        <clipPath id="SVGID_24_">
            <use xlink:href="#SVGID_23_" overflow="visible" />
        </clipPath>
        <g clip-path="url(#SVGID_24_)">
            <text transform="matrix(1 0 0 1 11.5693 92.2769)">
                <tspan x="0" y="0" fill="#5A5A5A" font-family="'HelveticaLTStd-Roman'" font-size="9">5</tspan>
                <tspan x="4.7" y="0" fill="#5A5A5A" font-family="'HelveticaLTStd-Roman'" font-size="9">0</tspan>
                <tspan x="9.2" y="0" fill="#5A5A5A" font-family="'HelveticaLTStd-Roman'" font-size="9">%</tspan>
            </text>
        </g>
    </g>
    <g>
        <defs>
            <rect id="SVGID_25_" width="361.6" height="212.5" />
        </defs>
        <clipPath id="SVGID_26_">
            <use xlink:href="#SVGID_25_" overflow="visible" />
        </clipPath>
        <g clip-path="url(#SVGID_26_)">
            <text transform="matrix(1 0 0 1 11.5693 76.6128)">
                <tspan x="0" y="0" fill="#5A5A5A" font-family="'HelveticaLTStd-Roman'" font-size="9">6</tspan>
                <tspan x="4.7" y="0" fill="#5A5A5A" font-family="'HelveticaLTStd-Roman'" font-size="9">0</tspan>
                <tspan x="9.2" y="0" fill="#5A5A5A" font-family="'HelveticaLTStd-Roman'" font-size="9">%</tspan>
            </text>
        </g>
    </g>
    <g>
        <defs>
            <rect id="SVGID_27_" width="361.6" height="212.5" />
        </defs>
        <clipPath id="SVGID_28_">
            <use xlink:href="#SVGID_27_" overflow="visible" />
        </clipPath>
        <g clip-path="url(#SVGID_28_)">
            <text transform="matrix(1 0 0 1 11.5693 60.9487)">
                <tspan x="0" y="0" fill="#5A5A5A" font-family="'HelveticaLTStd-Roman'" font-size="9">7</tspan>
                <tspan x="4.7" y="0" fill="#5A5A5A" font-family="'HelveticaLTStd-Roman'" font-size="9">0</tspan>
                <tspan x="9.2" y="0" fill="#5A5A5A" font-family="'HelveticaLTStd-Roman'" font-size="9">%</tspan>
            </text>
        </g>
    </g>
    <g>
        <defs>
            <rect id="SVGID_29_" width="361.6" height="212.5" />
        </defs>
        <clipPath id="SVGID_30_">
            <use xlink:href="#SVGID_29_" overflow="visible" />
        </clipPath>
        <g clip-path="url(#SVGID_30_)">
            <text transform="matrix(1 0 0 1 11.5693 45.2847)">
                <tspan x="0" y="0" fill="#5A5A5A" font-family="'HelveticaLTStd-Roman'" font-size="9">8</tspan>
                <tspan x="4.7" y="0" fill="#5A5A5A" font-family="'HelveticaLTStd-Roman'" font-size="9">0</tspan>
                <tspan x="9.2" y="0" fill="#5A5A5A" font-family="'HelveticaLTStd-Roman'" font-size="9">%</tspan>
            </text>
        </g>
    </g>
    <g>
        <defs>
            <rect id="SVGID_31_" width="361.6" height="212.5" />
        </defs>
        <clipPath id="SVGID_32_">
            <use xlink:href="#SVGID_31_" overflow="visible" />
        </clipPath>
        <g clip-path="url(#SVGID_32_)">
            <text transform="matrix(1 0 0 1 11.5693 29.6206)">
                <tspan x="0" y="0" fill="#5A5A5A" font-family="'HelveticaLTStd-Roman'" font-size="9">9</tspan>
                <tspan x="4.7" y="0" fill="#5A5A5A" font-family="'HelveticaLTStd-Roman'" font-size="9">0</tspan>
                <tspan x="9.2" y="0" fill="#5A5A5A" font-family="'HelveticaLTStd-Roman'" font-size="9">%</tspan>
            </text>
        </g>
    </g>
    <g>
        <defs>
            <rect id="SVGID_33_" width="361.6" height="212.5" />
        </defs>
        <clipPath id="SVGID_34_">
            <use xlink:href="#SVGID_33_" overflow="visible" />
        </clipPath>
        <g clip-path="url(#SVGID_34_)">
            <text transform="matrix(1 0 0 1 6.5693 13.9565)">
                <tspan x="0" y="0" fill="#5A5A5A" font-family="'HelveticaLTStd-Roman'" font-size="9">1</tspan>
                <tspan x="4.7" y="0" fill="#5A5A5A" font-family="'HelveticaLTStd-Roman'" font-size="9">0</tspan>
                <tspan x="9.2" y="0" fill="#5A5A5A" font-family="'HelveticaLTStd-Roman'" font-size="9">0</tspan>
                <tspan x="13.8" y="0" fill="#5A5A5A" font-family="'HelveticaLTStd-Roman'" font-size="9">%</tspan>
            </text>
        </g>
    </g>
    <g>
        <defs>
            <rect id="SVGID_35_" width="361.6" height="212.5" />
        </defs>
        <clipPath id="SVGID_36_">
            <use xlink:href="#SVGID_35_" overflow="visible" />
        </clipPath>
        <g clip-path="url(#SVGID_36_)">
            <text transform="matrix(1 0 0 1 66.374 181.7378)" fill="#5A5A5A" font-family="'HelveticaLTStd-Roman'" font-size="9">1</text>
        </g>
    </g>
    <g>
        <defs>
            <rect id="SVGID_37_" width="361.6" height="212.5" />
        </defs>
        <clipPath id="SVGID_38_">
            <use xlink:href="#SVGID_37_" overflow="visible" />
        </clipPath>
        <g clip-path="url(#SVGID_38_)">
            <text transform="matrix(1 0 0 1 128.9834 181.7378)" fill="#5A5A5A" font-family="'HelveticaLTStd-Roman'" font-size="9">2</text>
        </g>
    </g>
    <g>
        <defs>
            <rect id="SVGID_39_" width="361.6" height="212.5" />
        </defs>
        <clipPath id="SVGID_40_">
            <use xlink:href="#SVGID_39_" overflow="visible" />
        </clipPath>
        <g clip-path="url(#SVGID_40_)">
            <text transform="matrix(1 0 0 1 191.585 181.7378)" fill="#5A5A5A" font-family="'HelveticaLTStd-Roman'" font-size="9">3</text>
        </g>
    </g>
    <g>
        <defs>
            <rect id="SVGID_41_" width="361.6" height="212.5" />
        </defs>
        <clipPath id="SVGID_42_">
            <use xlink:href="#SVGID_41_" overflow="visible" />
        </clipPath>
        <g clip-path="url(#SVGID_42_)">
            <text transform="matrix(1 0 0 1 254.1865 181.7378)" fill="#5A5A5A" font-family="'HelveticaLTStd-Roman'" font-size="9">4</text>
        </g>
    </g>
    <g>
        <defs>
            <rect id="SVGID_43_" width="361.6" height="212.5" />
        </defs>
        <clipPath id="SVGID_44_">
            <use xlink:href="#SVGID_43_" overflow="visible" />
        </clipPath>
        <g clip-path="url(#SVGID_44_)">
            <text transform="matrix(1 0 0 1 316.7959 181.7378)" fill="#5A5A5A" font-family="'HelveticaLTStd-Roman'" font-size="9">5</text>
        </g>
    </g>
    <g>
        <defs>
            <polygon id="SVGID_45_" points="0,212.5 361.6,212.5 361.6,0 0,0 0,212.5 		" />
        </defs>
        <clipPath id="SVGID_46_">
            <use xlink:href="#SVGID_45_" overflow="visible" />
        </clipPath>
        <polygon clip-path="url(#SVGID_46_)" fill-rule="evenodd" clip-rule="evenodd" fill="#007C3E" points="95,196.1 99.7,196.1
		99.7,200.8 95,200.8 95,196.1 	" />
    </g>
    <g>
        <defs>
            <rect id="SVGID_47_" width="361.6" height="212.5" />
        </defs>
        <clipPath id="SVGID_48_">
            <use xlink:href="#SVGID_47_" overflow="visible" />
        </clipPath>
        <g clip-path="url(#SVGID_48_)">
            <text transform="matrix(1 0 0 1 101.6631 201.2456)">
                <tspan x="0" y="0" fill="#5A5A5A" font-family="'HelveticaLTStd-Roman'" font-size="9">K</tspan>
                <tspan x="4.9" y="0" fill="#5A5A5A" font-family="'HelveticaLTStd-Roman'" font-size="9">o</tspan>
                <tspan x="9.9" y="0" fill="#5A5A5A" font-family="'HelveticaLTStd-Roman'" font-size="9">m</tspan>
                <tspan x="17.3" y="0" fill="#5A5A5A" font-family="'HelveticaLTStd-Roman'" font-size="9">po</tspan>
                <tspan x="27.4" y="0" fill="#5A5A5A" font-family="'HelveticaLTStd-Roman'" font-size="9">n</tspan>
                <tspan x="32.4" y="0" fill="#5A5A5A" font-family="'HelveticaLTStd-Roman'" font-size="9">ie</tspan>
                <tspan x="39" y="0" fill="#5A5A5A" font-family="'HelveticaLTStd-Roman'" font-size="9">rt</tspan>
            </text>
        </g>
    </g>
    <g>
        <defs>
            <polygon id="SVGID_49_" points="0,212.5 361.6,212.5 361.6,0 0,0 0,212.5 		" />
        </defs>
        <clipPath id="SVGID_50_">
            <use xlink:href="#SVGID_49_" overflow="visible" />
        </clipPath>
        <polygon clip-path="url(#SVGID_50_)" fill-rule="evenodd" clip-rule="evenodd" fill="#E4171C" points="158.5,196.1 163.2,196.1
		163.2,200.8 158.5,200.8 158.5,196.1 	" />
    </g>
    <g>
        <defs>
            <rect id="SVGID_51_" width="361.6" height="212.5" />
        </defs>
        <clipPath id="SVGID_52_">
            <use xlink:href="#SVGID_51_" overflow="visible" />
        </clipPath>
        <g clip-path="url(#SVGID_52_)">
            <text transform="matrix(1 0 0 1 165.1318 201.2456)">
                <tspan x="0" y="0" fill="#5A5A5A" font-family="'HelveticaLTStd-Roman'" font-size="9">L</tspan>
                <tspan x="4.3" y="0" fill="#5A5A5A" font-family="'HelveticaLTStd-Roman'" font-size="9">i</tspan>
                <tspan x="6.3" y="0" fill="#5A5A5A" font-family="'HelveticaLTStd-Roman'" font-size="9">z</tspan>
                <tspan x="10.2" y="0" fill="#5A5A5A" font-family="'HelveticaLTStd-Roman'" font-size="9">e</tspan>
                <tspan x="14.8" y="0" fill="#5A5A5A" font-family="'HelveticaLTStd-Roman'" font-size="9">n</tspan>
                <tspan x="19.7" y="0" fill="#5A5A5A" font-family="'HelveticaLTStd-Roman'" font-size="9">z</tspan>
                <tspan x="23.6" y="0" fill="#5A5A5A" font-family="'HelveticaLTStd-Roman'" font-size="9">i</tspan>
                <tspan x="25.6" y="0" fill="#5A5A5A" font-family="'HelveticaLTStd-Roman'" font-size="9">e</tspan>
                <tspan x="30.2" y="0" fill="#5A5A5A" font-family="'HelveticaLTStd-Roman'" font-size="9">rt</tspan>
            </text>
        </g>
    </g>
    <g>
        <defs>
            <polygon id="SVGID_53_" points="0,212.5 361.6,212.5 361.6,0 0,0 0,212.5 		" />
        </defs>
        <clipPath id="SVGID_54_">
            <use xlink:href="#SVGID_53_" overflow="visible" />
        </clipPath>
        <polygon clip-path="url(#SVGID_54_)" fill-rule="evenodd" clip-rule="evenodd" fill="#B7B7B7" points="214.4,196.1 219.1,196.1
		219.1,200.8 214.4,200.8 214.4,196.1 	" />
    </g>
    <g>
        <defs>
            <rect id="SVGID_55_" width="361.6" height="212.5" />
        </defs>
        <clipPath id="SVGID_56_">
            <use xlink:href="#SVGID_55_" overflow="visible" />
        </clipPath>
        <g clip-path="url(#SVGID_56_)">
            <text transform="matrix(1 0 0 1 221.0928 201.2456)">
                <tspan x="0" y="0" fill="#5A5A5A" font-family="'HelveticaLTStd-Roman'" font-size="9">K</tspan>
                <tspan x="4.9" y="0" fill="#5A5A5A" font-family="'HelveticaLTStd-Roman'" font-size="9">e</tspan>
                <tspan x="9.4" y="0" fill="#5A5A5A" font-family="'HelveticaLTStd-Roman'" font-size="9">i</tspan>
                <tspan x="11.5" y="0" fill="#5A5A5A" font-family="'HelveticaLTStd-Roman'" font-size="9">ne</tspan>
                <tspan x="21" y="0" fill="#5A5A5A" font-family="'HelveticaLTStd-Roman'" font-size="9"> </tspan>
                <tspan x="23" y="0" fill="#5A5A5A" font-family="'HelveticaLTStd-Roman'" font-size="9">M</tspan>
                <tspan x="30.1" y="0" fill="#5A5A5A" font-family="'HelveticaLTStd-Roman'" font-size="9">u</tspan>
                <tspan x="35.1" y="0" fill="#5A5A5A" font-family="'HelveticaLTStd-Roman'" font-size="9">s</tspan>
                <tspan x="38.6" y="0" fill="#5A5A5A" font-family="'HelveticaLTStd-Roman'" font-size="9">i</tspan>
                <tspan x="40.8" y="0" fill="#5A5A5A" font-family="'HelveticaLTStd-Roman'" font-size="9">k</tspan>
            </text>
        </g>
    </g>
</svg>
