<svg version="1.1" xmlns="http://www.w3.org/2000/svg" xmlns:xlink="http://www.w3.org/1999/xlink" x="0px" y="0px" width="100%" viewBox="0 0 336.3 190.4" enable-background="new 0 0 336.3 190.4" xml:space="preserve">
    <g id="labels">
        <polygon fill-rule="evenodd" clip-rule="evenodd" fill="#007C3E" points="136,175.4 140.5,175.4 140.5,180 136,180 136,175.4 	" />
        <text transform="matrix(1 0 0 1 142.4038 180.4385)" fill="#5A5A5A" font-family="'HelveticaLTStd-Roman'" font-size="8.5727">Komponiert</text>
        <polygon fill-rule="evenodd" clip-rule="evenodd" fill="#E4171C" points="197.7,175.4 202.2,175.4 202.2,180 197.7,180 
		197.7,175.4 	" />
        <text transform="matrix(1 0 0 1 204.1138 180.4385)" fill="#5A5A5A" font-family="'HelveticaLTStd-Roman'" font-size="8.5727">Lizenziert</text>
        <text transform="matrix(1 0 0 1 157.1704 163.3193)" fill="#5A5A5A" font-family="'HelveticaLTStd-Roman'" font-size="8.5727">Episode der Staffel</text>

        <text transform="matrix(-4.371139e-008 -1 1 -4.371139e-008 15.4321 113.9404)" fill="#5A5A5A" font-family="'HelveticaLTStd-Roman'" font-size="8.5727">Musikanteil in %</text>
    </g>
    
    <g id="Ebene_6">
        <g>
            <defs>
                <polygon id="SVGID_125_" points="17.8,191.5 333.6,191.5 333.6,2 17.8,2 17.8,191.5 			" />
            </defs>
            <clipPath id="SVGID_126_">
                <use xlink:href="#SVGID_125_" overflow="visible" />
            </clipPath>

            <path clip-path="url(#SVGID_126_)" fill="none" stroke="#F2F2F2" stroke-width="0.72" stroke-linejoin="round" stroke-miterlimit="10" d="
			M39.7,102.3H324 M39.7,69.3H324 M39.7,36.3H324" />
        </g>
        <g>
            <defs>
                <polygon id="SVGID_127_" points="39.7,135.9 324.6,135.9 324.6,36.3 39.7,36.3 39.7,135.9 			" />
            </defs>
            <clipPath id="SVGID_128_">
                <use xlink:href="#SVGID_127_" overflow="visible" />
            </clipPath>
            <path clip-path="url(#SVGID_128_)" fill="#007C3E" d="M43.1,64.6h8.6v70.6h-8.6V64.6L43.1,64.6z M65,114.2h8.5v21.1H65V114.2
			L65,114.2z M86.9,124.5h8.5v10.7h-8.5V124.5L86.9,124.5z M108.7,90.4h8.6v44.8h-8.6V90.4L108.7,90.4z M130.6,81.3h8.6v54h-8.6
			V81.3L130.6,81.3z M152.5,87h8.5v48.3h-8.5V87L152.5,87z M174.4,130.6h8.5v4.6h-8.5V130.6L174.4,130.6z M196.2,107.3h8.6v28h-8.6
			V107.3L196.2,107.3z M218.1,103.7h8.6v31.6h-8.6V103.7L218.1,103.7z M240,108h8.5v27.3H240V108L240,108z M261.9,86.4h8.5v48.8
			h-8.5V86.4L261.9,86.4z M283.7,26.4h8.6v108.8h-8.6V26.4L283.7,26.4z M305.6,115.4h8.6v19.9h-8.6V115.4L305.6,115.4z" />
        </g>
        <g>
            <defs>
                <polygon id="SVGID_129_" points="39.7,135.9 324.6,135.9 324.6,36.3 39.7,36.3 39.7,135.9 			" />
            </defs>
            <clipPath id="SVGID_130_">
                <use xlink:href="#SVGID_129_" overflow="visible" />
            </clipPath>
            <path clip-path="url(#SVGID_130_)" fill="#E4171C" d="M49.6,129h8.6v6.3h-8.6V129L49.6,129z M71.5,129.7H80v5.6h-8.5V129.7
			L71.5,129.7z M93.3,120.6h8.5v14.6h-8.5V120.6L93.3,120.6z M137,118.5h8.6v16.7H137V118.5L137,118.5z M180.8,118.5h8.5v16.7h-8.5
			V118.5L180.8,118.5z M202.6,129.4h8.6v5.9h-8.6V129.4L202.6,129.4z M290.1,122.9h8.6v12.4h-8.6V122.9L290.1,122.9z M312,92.3h8.6
			v42.9H312V92.3L312,92.3z" />
        </g>
        <g>
            <defs>
                <polygon id="SVGID_131_" points="17.8,191.5 333.6,191.5 333.6,2 17.8,2 17.8,191.5 			" />
            </defs>
            <clipPath id="SVGID_132_">
                <use xlink:href="#SVGID_131_" overflow="visible" />
            </clipPath>

            <line clip-path="url(#SVGID_132_)" fill="none" stroke="#BFBFBF" stroke-width="1.2" stroke-linejoin="round" stroke-miterlimit="10" x1="39.7" y1="135.3" x2="324" y2="135.3" />
        </g>
        <g>
            <defs>
                <polygon id="SVGID_133_" points="17.8,191.5 333.6,191.5 333.6,2 17.8,2 17.8,191.5 			" />
            </defs>
            <clipPath id="SVGID_134_">
                <use xlink:href="#SVGID_133_" overflow="visible" />
            </clipPath>

            <path clip-path="url(#SVGID_134_)" fill="none" stroke="#BFBFBF" stroke-width="1.2" stroke-linejoin="round" stroke-miterlimit="10" d="
			M39.7,135.3v2.4 M61.6,135.3v2.4 M83.5,135.3v2.4 M105.3,135.3v2.4 M127.1,135.3v2.4 M149,135.3v2.4 M170.9,135.3v2.4
			 M192.8,135.3v2.4 M214.6,135.3v2.4 M236.5,135.3v2.4 M258.4,135.3v2.4 M280.3,135.3v2.4 M302.1,135.3v2.4 M324,135.3v2.4" />
        </g>
        <g>
            <defs>
                <rect id="SVGID_135_" x="17.8" y="2" width="315.8" height="189.5" />
            </defs>
            <clipPath id="SVGID_136_">
                <use xlink:href="#SVGID_135_" overflow="visible" />
            </clipPath>
            <g clip-path="url(#SVGID_136_)">
                <text transform="matrix(1 0 0 1 28.0938 137.7642)" fill="#5A5A5A" font-family="'HelveticaLTStd-Roman'" font-size="7.8951">0</text>
            </g>
        </g>
        <g>
            <defs>
                <rect id="SVGID_137_" x="17.8" y="2" width="315.8" height="189.5" />
            </defs>
            <clipPath id="SVGID_138_">
                <use xlink:href="#SVGID_137_" overflow="visible" />
            </clipPath>
            <g clip-path="url(#SVGID_138_)">
                <text transform="matrix(1 0 0 1 23.4961 104.7925)">
                    <tspan x="0" y="0" fill="#5A5A5A" font-family="'HelveticaLTStd-Roman'" font-size="7.8951">1</tspan>
                    <tspan x="4.3" y="0" fill="#5A5A5A" font-family="'HelveticaLTStd-Roman'" font-size="7.8951">0</tspan>
                </text>
            </g>
        </g>
        <g>
            <defs>
                <rect id="SVGID_139_" x="17.8" y="2" width="315.8" height="189.5" />
            </defs>
            <clipPath id="SVGID_140_">
                <use xlink:href="#SVGID_139_" overflow="visible" />
            </clipPath>
            <g clip-path="url(#SVGID_140_)">
                <text transform="matrix(1 0 0 1 23.4961 71.8218)">
                    <tspan x="0" y="0" fill="#5A5A5A" font-family="'HelveticaLTStd-Roman'" font-size="7.8951">2</tspan>
                    <tspan x="4.3" y="0" fill="#5A5A5A" font-family="'HelveticaLTStd-Roman'" font-size="7.8951">0</tspan>
                </text>
            </g>
        </g>
        <g>
            <defs>
                <rect id="SVGID_141_" x="17.8" y="2" width="315.8" height="189.5" />
            </defs>
            <clipPath id="SVGID_142_">
                <use xlink:href="#SVGID_141_" overflow="visible" />
            </clipPath>
            <g clip-path="url(#SVGID_142_)">
                <text transform="matrix(1 0 0 1 23.4961 38.8433)">
                    <tspan x="0" y="0" fill="#5A5A5A" font-family="'HelveticaLTStd-Roman'" font-size="7.8951">3</tspan>
                    <tspan x="4.3" y="0" fill="#5A5A5A" font-family="'HelveticaLTStd-Roman'" font-size="7.8951">0</tspan>
                </text>
            </g>
        </g>
        <g>
            <defs>
                <rect id="SVGID_143_" x="17.8" y="2" width="315.8" height="189.5" />
            </defs>
            <clipPath id="SVGID_144_">
                <use xlink:href="#SVGID_143_" overflow="visible" />
            </clipPath>
            <g clip-path="url(#SVGID_144_)">
                <text transform="matrix(1 0 0 1 48.3457 147.5376)" fill="#5A5A5A" font-family="'HelveticaLTStd-Roman'" font-size="7.8951">1</text>
            </g>
        </g>
        <g>
            <defs>
                <rect id="SVGID_145_" x="17.8" y="2" width="315.8" height="189.5" />
            </defs>
            <clipPath id="SVGID_146_">
                <use xlink:href="#SVGID_145_" overflow="visible" />
            </clipPath>
            <g clip-path="url(#SVGID_146_)">
                <text transform="matrix(1 0 0 1 70.2139 147.5376)" fill="#5A5A5A" font-family="'HelveticaLTStd-Roman'" font-size="7.8951">2</text>
            </g>
        </g>
        <g>
            <defs>
                <rect id="SVGID_147_" x="17.8" y="2" width="315.8" height="189.5" />
            </defs>
            <clipPath id="SVGID_148_">
                <use xlink:href="#SVGID_147_" overflow="visible" />
            </clipPath>
            <g clip-path="url(#SVGID_148_)">
                <text transform="matrix(1 0 0 1 92.0771 147.5376)" fill="#5A5A5A" font-family="'HelveticaLTStd-Roman'" font-size="7.8951">3</text>
            </g>
        </g>
        <g>
            <defs>
                <rect id="SVGID_149_" x="17.8" y="2" width="315.8" height="189.5" />
            </defs>
            <clipPath id="SVGID_150_">
                <use xlink:href="#SVGID_149_" overflow="visible" />
            </clipPath>
            <g clip-path="url(#SVGID_150_)">
                <text transform="matrix(1 0 0 1 113.9531 147.5376)" fill="#5A5A5A" font-family="'HelveticaLTStd-Roman'" font-size="7.8951">4</text>
            </g>
        </g>
        <g>
            <defs>
                <rect id="SVGID_151_" x="17.8" y="2" width="315.8" height="189.5" />
            </defs>
            <clipPath id="SVGID_152_">
                <use xlink:href="#SVGID_151_" overflow="visible" />
            </clipPath>
            <g clip-path="url(#SVGID_152_)">
                <text transform="matrix(1 0 0 1 135.8223 147.5376)" fill="#5A5A5A" font-family="'HelveticaLTStd-Roman'" font-size="7.8951">5</text>
            </g>
        </g>
        <g>
            <defs>
                <rect id="SVGID_153_" x="17.8" y="2" width="315.8" height="189.5" />
            </defs>
            <clipPath id="SVGID_154_">
                <use xlink:href="#SVGID_153_" overflow="visible" />
            </clipPath>
            <g clip-path="url(#SVGID_154_)">
                <text transform="matrix(1 0 0 1 157.6904 147.5376)" fill="#5A5A5A" font-family="'HelveticaLTStd-Roman'" font-size="7.8951">6</text>
            </g>
        </g>
        <g>
            <defs>
                <rect id="SVGID_155_" x="17.8" y="2" width="315.8" height="189.5" />
            </defs>
            <clipPath id="SVGID_156_">
                <use xlink:href="#SVGID_155_" overflow="visible" />
            </clipPath>
            <g clip-path="url(#SVGID_156_)">
                <text transform="matrix(1 0 0 1 179.5605 147.5376)" fill="#5A5A5A" font-family="'HelveticaLTStd-Roman'" font-size="7.8951">7</text>
            </g>
        </g>
        <g>
            <defs>
                <rect id="SVGID_157_" x="17.8" y="2" width="315.8" height="189.5" />
            </defs>
            <clipPath id="SVGID_158_">
                <use xlink:href="#SVGID_157_" overflow="visible" />
            </clipPath>
            <g clip-path="url(#SVGID_158_)">
                <text transform="matrix(1 0 0 1 201.4297 147.5376)" fill="#5A5A5A" font-family="'HelveticaLTStd-Roman'" font-size="7.8951">8</text>
            </g>
        </g>
        <g>
            <defs>
                <rect id="SVGID_159_" x="17.8" y="2" width="315.8" height="189.5" />
            </defs>
            <clipPath id="SVGID_160_">
                <use xlink:href="#SVGID_159_" overflow="visible" />
            </clipPath>
            <g clip-path="url(#SVGID_160_)">
                <text transform="matrix(1 0 0 1 223.2979 147.5376)" fill="#5A5A5A" font-family="'HelveticaLTStd-Roman'" font-size="7.8951">9</text>
            </g>
        </g>
        <g>
            <defs>
                <rect id="SVGID_161_" x="17.8" y="2" width="315.8" height="189.5" />
            </defs>
            <clipPath id="SVGID_162_">
                <use xlink:href="#SVGID_161_" overflow="visible" />
            </clipPath>
            <g clip-path="url(#SVGID_162_)">
                <text transform="matrix(1 0 0 1 242.8516 147.5376)">
                    <tspan x="0" y="0" fill="#5A5A5A" font-family="'HelveticaLTStd-Roman'" font-size="7.8951">1</tspan>
                    <tspan x="4.3" y="0" fill="#5A5A5A" font-family="'HelveticaLTStd-Roman'" font-size="7.8951">0</tspan>
                </text>
            </g>
        </g>
        <g>
            <defs>
                <rect id="SVGID_163_" x="17.8" y="2" width="315.8" height="189.5" />
            </defs>
            <clipPath id="SVGID_164_">
                <use xlink:href="#SVGID_163_" overflow="visible" />
            </clipPath>
            <g clip-path="url(#SVGID_164_)">
                <text transform="matrix(1 0 0 1 264.7207 147.5376)">
                    <tspan x="0" y="0" fill="#5A5A5A" font-family="'HelveticaLTStd-Roman'" font-size="7.8951">1</tspan>
                    <tspan x="4.3" y="0" fill="#5A5A5A" font-family="'HelveticaLTStd-Roman'" font-size="7.8951">1</tspan>
                </text>
            </g>
        </g>
        <g>
            <defs>
                <rect id="SVGID_165_" x="17.8" y="2" width="315.8" height="189.5" />
            </defs>
            <clipPath id="SVGID_166_">
                <use xlink:href="#SVGID_165_" overflow="visible" />
            </clipPath>
            <g clip-path="url(#SVGID_166_)">
                <text transform="matrix(1 0 0 1 286.5889 147.5376)">
                    <tspan x="0" y="0" fill="#5A5A5A" font-family="'HelveticaLTStd-Roman'" font-size="7.8951">1</tspan>
                    <tspan x="4.3" y="0" fill="#5A5A5A" font-family="'HelveticaLTStd-Roman'" font-size="7.8951">2</tspan>
                </text>
            </g>
        </g>
        <g>
            <defs>
                <rect id="SVGID_167_" x="17.8" y="2" width="315.8" height="189.5" />
            </defs>
            <clipPath id="SVGID_168_">
                <use xlink:href="#SVGID_167_" overflow="visible" />
            </clipPath>
            <g clip-path="url(#SVGID_168_)">
                <text transform="matrix(1 0 0 1 308.459 147.5376)">
                    <tspan x="0" y="0" fill="#5A5A5A" font-family="'HelveticaLTStd-Roman'" font-size="7.8951">1</tspan>
                    <tspan x="4.3" y="0" fill="#5A5A5A" font-family="'HelveticaLTStd-Roman'" font-size="7.8951">3</tspan>
                </text>
            </g>
        </g>
        <g>
            <defs>
                <rect id="SVGID_169_" x="17.8" y="2" width="315.8" height="189.5" />
            </defs>
            <clipPath id="SVGID_170_">
                <use xlink:href="#SVGID_169_" overflow="visible" />
            </clipPath>
            <g clip-path="url(#SVGID_170_)">
                <text transform="matrix(1 0 0 1 146.918 22.1548)" fill="#5A5A5A" font-family="'HelveticaLTStd-Bold'" font-size="14.0006" class="bold title">Staffel 4</text>
            </g>
        </g>
    </g>
</svg>
