<svg version="1.1" xmlns="http://www.w3.org/2000/svg" xmlns:xlink="http://www.w3.org/1999/xlink" x="0px" y="0px" width="100%" viewBox="0 0 336.3 190.4" enable-background="new 0 0 336.3 190.4" xml:space="preserve">
    <g id="labels">
        <polygon fill-rule="evenodd" clip-rule="evenodd" fill="#007C3E" points="136,175.4 140.5,175.4 140.5,180 136,180 136,175.4 	" />
        <text transform="matrix(1 0 0 1 142.4038 180.4385)" fill="#5A5A5A" font-family="'HelveticaLTStd-Roman'" font-size="8.5727">Komponiert</text>
        <polygon fill-rule="evenodd" clip-rule="evenodd" fill="#E4171C" points="197.7,175.4 202.2,175.4 202.2,180 197.7,180 
		197.7,175.4 	" />
        <text transform="matrix(1 0 0 1 204.1138 180.4385)" fill="#5A5A5A" font-family="'HelveticaLTStd-Roman'" font-size="8.5727">Lizenziert</text>
        <text transform="matrix(1 0 0 1 157.1704 163.3193)" fill="#5A5A5A" font-family="'HelveticaLTStd-Roman'" font-size="8.5727">Episode der Staffel</text>

        <text transform="matrix(-4.371139e-008 -1 1 -4.371139e-008 15.4321 113.9404)" fill="#5A5A5A" font-family="'HelveticaLTStd-Roman'" font-size="8.5727">Musikanteil in %</text>
    </g>
    
    <g>
        <g>
            <defs>
                <polygon id="SVGID_1_" points="19.2,190.4 334.1,190.4 334.1,1.6 19.2,1.6 19.2,190.4 			" />
            </defs>
            <clipPath id="SVGID_2_">
                <use xlink:href="#SVGID_1_" overflow="visible" />
            </clipPath>

            <path clip-path="url(#SVGID_2_)" fill="none" stroke="#F2F2F2" stroke-width="0.72" stroke-linejoin="round" stroke-miterlimit="10" d="
			M41,101.5h283.5 M41,68.7h283.5 M41,35.9h283.5" />
        </g>
        <g>
            <defs>
                <polygon id="SVGID_3_" points="41,135 325.2,135 325.2,35.9 41,35.9 41,135 			" />
            </defs>
            <clipPath id="SVGID_4_">
                <use xlink:href="#SVGID_3_" overflow="visible" />
            </clipPath>
            <path clip-path="url(#SVGID_4_)" fill="#007C3E" d="M47.4,102.1h15.9v32.2H47.4V102.1L47.4,102.1z M88,84.3h15.9v50.1H88V84.3
			L88,84.3z M128.5,56.6h15.8v77.7h-15.8V56.6L128.5,56.6z M168.9,93h16v41.4h-16V93L168.9,93z M209.4,99.6h16v34.7h-16V99.6
			L209.4,99.6z M249.9,105.7h15.9v28.7h-15.9V105.7L249.9,105.7z M290.4,116.3h15.8v18.1h-15.8V116.3L290.4,116.3z" />
        </g>
        <g>
            <defs>
                <polygon id="SVGID_5_" points="41,135 325.2,135 325.2,35.9 41,35.9 41,135 			" />
            </defs>
            <clipPath id="SVGID_6_">
                <use xlink:href="#SVGID_5_" overflow="visible" />
            </clipPath>
            <path clip-path="url(#SVGID_6_)" fill="#E4171C" d="M59.3,79.2h16v55.1h-16V79.2L59.3,79.2z M99.8,112.6h16v21.7h-16V112.6
			L99.8,112.6z M180.8,125.5h15.9v8.8h-15.9V125.5L180.8,125.5z M221.4,123.1h15.9v11.2h-15.9V123.1L221.4,123.1z M261.9,119h15.9
			v15.3h-15.9V119L261.9,119z M302.3,123.4h16v10.9h-16V123.4L302.3,123.4z" />
        </g>
        <g>
            <defs>
                <polygon id="SVGID_7_" points="19.2,190.4 334.1,190.4 334.1,1.6 19.2,1.6 19.2,190.4 			" />
            </defs>
            <clipPath id="SVGID_8_">
                <use xlink:href="#SVGID_7_" overflow="visible" />
            </clipPath>

            <line clip-path="url(#SVGID_8_)" fill="none" stroke="#BFBFBF" stroke-width="1.2" stroke-linejoin="round" stroke-miterlimit="10" x1="41" y1="134.3" x2="324.5" y2="134.3" />
        </g>
        <g>
            <defs>
                <polygon id="SVGID_9_" points="19.2,190.4 334.1,190.4 334.1,1.6 19.2,1.6 19.2,190.4 			" />
            </defs>
            <clipPath id="SVGID_10_">
                <use xlink:href="#SVGID_9_" overflow="visible" />
            </clipPath>

            <path clip-path="url(#SVGID_10_)" fill="none" stroke="#BFBFBF" stroke-width="1.2" stroke-linejoin="round" stroke-miterlimit="10" d="
			M41,134.3v2.4 M81.5,134.3v2.4 M122.1,134.3v2.4 M162.6,134.3v2.4 M203.1,134.3v2.4 M243.6,134.3v2.4 M284,134.3v2.4 M324.5,134.3
			v2.4" />
        </g>
        <g>
            <defs>
                <rect id="SVGID_11_" x="19.2" y="1.6" width="314.9" height="188.7" />
            </defs>
            <clipPath id="SVGID_12_">
                <use xlink:href="#SVGID_11_" overflow="visible" />
            </clipPath>
            <g clip-path="url(#SVGID_12_)">
                <text transform="matrix(1 0 0 1 29.5005 136.8037)" fill="#5A5A5A" font-family="'HelveticaLTStd-Roman'" font-size="7.8725">0</text>
            </g>
        </g>
        <g>
            <defs>
                <rect id="SVGID_13_" x="19.2" y="1.6" width="314.9" height="188.7" />
            </defs>
            <clipPath id="SVGID_14_">
                <use xlink:href="#SVGID_13_" overflow="visible" />
            </clipPath>
            <g clip-path="url(#SVGID_14_)">
                <text transform="matrix(1 0 0 1 24.9146 103.9932)">
                    <tspan x="0" y="0" fill="#5A5A5A" font-family="'HelveticaLTStd-Roman'" font-size="7.8725">1</tspan>
                    <tspan x="4.3" y="0" fill="#5A5A5A" font-family="'HelveticaLTStd-Roman'" font-size="7.8725">0</tspan>
                </text>
            </g>
        </g>
        <g>
            <defs>
                <rect id="SVGID_15_" x="19.2" y="1.6" width="314.9" height="188.7" />
            </defs>
            <clipPath id="SVGID_16_">
                <use xlink:href="#SVGID_15_" overflow="visible" />
            </clipPath>
            <g clip-path="url(#SVGID_16_)">
                <text transform="matrix(1 0 0 1 24.9146 71.1914)">
                    <tspan x="0" y="0" fill="#5A5A5A" font-family="'HelveticaLTStd-Roman'" font-size="7.8725">2</tspan>
                    <tspan x="4.3" y="0" fill="#5A5A5A" font-family="'HelveticaLTStd-Roman'" font-size="7.8725">0</tspan>
                </text>
            </g>
        </g>
        <g>
            <defs>
                <rect id="SVGID_17_" x="19.2" y="1.6" width="314.9" height="188.7" />
            </defs>
            <clipPath id="SVGID_18_">
                <use xlink:href="#SVGID_17_" overflow="visible" />
            </clipPath>
            <g clip-path="url(#SVGID_18_)">
                <text transform="matrix(1 0 0 1 24.9146 38.3828)">
                    <tspan x="0" y="0" fill="#5A5A5A" font-family="'HelveticaLTStd-Roman'" font-size="7.8725">3</tspan>
                    <tspan x="4.3" y="0" fill="#5A5A5A" font-family="'HelveticaLTStd-Roman'" font-size="7.8725">0</tspan>
                </text>
            </g>
        </g>
        <g>
            <defs>
                <rect id="SVGID_19_" x="19.2" y="1.6" width="314.9" height="188.7" />
            </defs>
            <clipPath id="SVGID_20_">
                <use xlink:href="#SVGID_19_" overflow="visible" />
            </clipPath>
            <g clip-path="url(#SVGID_20_)">
                <text transform="matrix(1 0 0 1 59.0288 146.5488)" fill="#5A5A5A" font-family="'HelveticaLTStd-Roman'" font-size="7.8725">1</text>
            </g>
        </g>
        <g>
            <defs>
                <rect id="SVGID_21_" x="19.2" y="1.6" width="314.9" height="188.7" />
            </defs>
            <clipPath id="SVGID_22_">
                <use xlink:href="#SVGID_21_" overflow="visible" />
            </clipPath>
            <g clip-path="url(#SVGID_22_)">
                <text transform="matrix(1 0 0 1 99.5337 146.5488)" fill="#5A5A5A" font-family="'HelveticaLTStd-Roman'" font-size="7.8725">2</text>
            </g>
        </g>
        <g>
            <defs>
                <rect id="SVGID_23_" x="19.2" y="1.6" width="314.9" height="188.7" />
            </defs>
            <clipPath id="SVGID_24_">
                <use xlink:href="#SVGID_23_" overflow="visible" />
            </clipPath>
            <g clip-path="url(#SVGID_24_)">
                <text transform="matrix(1 0 0 1 140.0298 146.5488)" fill="#5A5A5A" font-family="'HelveticaLTStd-Roman'" font-size="7.8725">3</text>
            </g>
        </g>
        <g>
            <defs>
                <rect id="SVGID_25_" x="19.2" y="1.6" width="314.9" height="188.7" />
            </defs>
            <clipPath id="SVGID_26_">
                <use xlink:href="#SVGID_25_" overflow="visible" />
            </clipPath>
            <g clip-path="url(#SVGID_26_)">
                <text transform="matrix(1 0 0 1 180.5278 146.5488)" fill="#5A5A5A" font-family="'HelveticaLTStd-Roman'" font-size="7.8725">4</text>
            </g>
        </g>
        <g>
            <defs>
                <rect id="SVGID_27_" x="19.2" y="1.6" width="314.9" height="188.7" />
            </defs>
            <clipPath id="SVGID_28_">
                <use xlink:href="#SVGID_27_" overflow="visible" />
            </clipPath>
            <g clip-path="url(#SVGID_28_)">
                <text transform="matrix(1 0 0 1 221.0249 146.5488)" fill="#5A5A5A" font-family="'HelveticaLTStd-Roman'" font-size="7.8725">5</text>
            </g>
        </g>
        <g>
            <defs>
                <rect id="SVGID_29_" x="19.2" y="1.6" width="314.9" height="188.7" />
            </defs>
            <clipPath id="SVGID_30_">
                <use xlink:href="#SVGID_29_" overflow="visible" />
            </clipPath>
            <g clip-path="url(#SVGID_30_)">
                <text transform="matrix(1 0 0 1 261.5278 146.5488)" fill="#5A5A5A" font-family="'HelveticaLTStd-Roman'" font-size="7.8725">6</text>
            </g>
        </g>
        <g>
            <defs>
                <rect id="SVGID_31_" x="19.2" y="1.6" width="314.9" height="188.7" />
            </defs>
            <clipPath id="SVGID_32_">
                <use xlink:href="#SVGID_31_" overflow="visible" />
            </clipPath>
            <g clip-path="url(#SVGID_32_)">
                <text transform="matrix(1 0 0 1 302.0264 146.5488)" fill="#5A5A5A" font-family="'HelveticaLTStd-Roman'" font-size="7.8725">7</text>
            </g>
        </g>
        <text transform="matrix(1 0 0 1 147.9839 21.7363)" fill="#5A5A5A" font-family="'HelveticaLTStd-Bold'" font-size="13.9607" class="bold title">Staffel 1</text>
    </g>
</svg>
