<svg version="1.1" xmlns="http://www.w3.org/2000/svg" xmlns:xlink="http://www.w3.org/1999/xlink" x="0px" y="0px" width="100%" viewBox="0 0 336.3 190.4" enable-background="new 0 0 336.3 190.4" xml:space="preserve">
    <g id="labels">
        <polygon fill-rule="evenodd" clip-rule="evenodd" fill="#007C3E" points="136,175.4 140.5,175.4 140.5,180 136,180 136,175.4 	" />
        <text transform="matrix(1 0 0 1 142.4038 180.4385)" fill="#5A5A5A" font-family="'HelveticaLTStd-Roman'" font-size="8.5727">Komponiert</text>
        <polygon fill-rule="evenodd" clip-rule="evenodd" fill="#E4171C" points="197.7,175.4 202.2,175.4 202.2,180 197.7,180 
		197.7,175.4 	" />
        <text transform="matrix(1 0 0 1 204.1138 180.4385)" fill="#5A5A5A" font-family="'HelveticaLTStd-Roman'" font-size="8.5727">Lizenziert</text>
        <text transform="matrix(1 0 0 1 157.1704 163.3193)" fill="#5A5A5A" font-family="'HelveticaLTStd-Roman'" font-size="8.5727">Episode der Staffel</text>

        <text transform="matrix(-4.371139e-008 -1 1 -4.371139e-008 15.4321 113.9404)" fill="#5A5A5A" font-family="'HelveticaLTStd-Roman'" font-size="8.5727">Musikanteil in %</text>
    </g>
    
    <g>
        <g>
            <defs>
                <polygon id="SVGID_171_" points="17.8,191.4 333.9,191.4 333.9,1.9 17.8,1.9 17.8,191.4 			" />
            </defs>
            <clipPath id="SVGID_172_">
                <use xlink:href="#SVGID_171_" overflow="visible" />
            </clipPath>

            <path clip-path="url(#SVGID_172_)" fill="none" stroke="#F2F2F2" stroke-width="0.72" stroke-linejoin="round" stroke-miterlimit="10" d="
			M39.7,102.1h284.6 M39.7,69.2h284.6 M39.7,36.3h284.6" />
        </g>
        <g>
            <defs>
                <polygon id="SVGID_173_" points="39.7,135.7 324.9,135.7 324.9,36.3 39.7,36.3 39.7,135.7 			" />
            </defs>
            <clipPath id="SVGID_174_">
                <use xlink:href="#SVGID_173_" overflow="visible" />
            </clipPath>
            <path clip-path="url(#SVGID_174_)" fill="#007C3E" d="M42.5,66.1h7v69h-7V66.1L42.5,66.1z M60.3,109.4h7v25.7h-7V109.4L60.3,109.4
			z M95.8,118h7.1v17.1h-7.1V118L95.8,118z M113.7,39.4h7v95.7h-7V39.4L113.7,39.4z M131.5,93.3h7v41.8h-7V93.3L131.5,93.3z
			 M149.3,102.2h7v32.9h-7V102.2L149.3,102.2z M167.1,122.1h7v13h-7V122.1L167.1,122.1z M184.8,91.8h7.1v43.3h-7.1V91.8L184.8,91.8z
			 M202.6,115.9h7v19.2h-7V115.9L202.6,115.9z M220.4,106.2h7v28.9h-7V106.2L220.4,106.2z M238.2,76.7h7v58.4h-7V76.7L238.2,76.7z
			 M256,64.4h7v70.7h-7V64.4L256,64.4z M273.7,103.4h7.1v31.7h-7.1V103.4L273.7,103.4z M291.5,65.6h7v69.6h-7V65.6L291.5,65.6z
			 M309.3,106.8h7v28.3h-7V106.8L309.3,106.8z" />
        </g>
        <g>
            <defs>
                <polygon id="SVGID_175_" points="39.7,135.7 324.9,135.7 324.9,36.3 39.7,36.3 39.7,135.7 			" />
            </defs>
            <clipPath id="SVGID_176_">
                <use xlink:href="#SVGID_175_" overflow="visible" />
            </clipPath>
            <path clip-path="url(#SVGID_176_)" fill="#E4171C" d="M65.5,125.2h7.1v9.9h-7.1V125.2L65.5,125.2z M83.3,115.9h7v19.2h-7V115.9
			L83.3,115.9z M101.1,127.4h7v7.7h-7V127.4L101.1,127.4z M154.4,111.9h7.1v23.2h-7.1V111.9L154.4,111.9z M172.3,91.4h7v43.7h-7
			V91.4L172.3,91.4z M190.1,121h7v14.1h-7V121L190.1,121z M207.9,117.9h7v17.2h-7V117.9L207.9,117.9z M225.7,134.1h7v1.1h-7V134.1
			L225.7,134.1z M243.4,121.3h7.1v13.8h-7.1V121.3L243.4,121.3z M279,120.9h7v14.2h-7V120.9L279,120.9z M314.6,127.8h7v7.3h-7V127.8
			L314.6,127.8z" />
        </g>
        <g>
            <defs>
                <polygon id="SVGID_177_" points="17.8,191.4 333.9,191.4 333.9,1.9 17.8,1.9 17.8,191.4 			" />
            </defs>
            <clipPath id="SVGID_178_">
                <use xlink:href="#SVGID_177_" overflow="visible" />
            </clipPath>

            <line clip-path="url(#SVGID_178_)" fill="none" stroke="#BFBFBF" stroke-width="1.2" stroke-linejoin="round" stroke-miterlimit="10" x1="39.7" y1="135.1" x2="324.3" y2="135.1" />
        </g>
        <g>
            <defs>
                <polygon id="SVGID_179_" points="17.8,191.4 333.9,191.4 333.9,1.9 17.8,1.9 17.8,191.4 			" />
            </defs>
            <clipPath id="SVGID_180_">
                <use xlink:href="#SVGID_179_" overflow="visible" />
            </clipPath>

            <path clip-path="url(#SVGID_180_)" fill="none" stroke="#BFBFBF" stroke-width="1.2" stroke-linejoin="round" stroke-miterlimit="10" d="
			M39.7,135.1v2.4 M57.5,135.1v2.4 M75.3,135.1v2.4 M93.1,135.1v2.4 M110.9,135.1v2.4 M128.6,135.1v2.4 M146.4,135.1v2.4
			 M164.2,135.1v2.4 M182,135.1v2.4 M199.9,135.1v2.4 M217.6,135.1v2.4 M235.4,135.1v2.4 M253.2,135.1v2.4 M271,135.1v2.4
			 M288.8,135.1v2.4 M306.5,135.1v2.4 M324.3,135.1v2.4" />
        </g>
        <g>
            <defs>
                <rect id="SVGID_181_" x="17.8" y="1.9" width="316.1" height="189.5" />
            </defs>
            <clipPath id="SVGID_182_">
                <use xlink:href="#SVGID_181_" overflow="visible" />
            </clipPath>
            <g clip-path="url(#SVGID_182_)">
                <text transform="matrix(1 0 0 1 28.1055 137.5952)" fill="#5A5A5A" font-family="'HelveticaLTStd-Roman'" font-size="7.9035">0</text>
            </g>
        </g>
        <g>
            <defs>
                <rect id="SVGID_183_" x="17.8" y="1.9" width="316.1" height="189.5" />
            </defs>
            <clipPath id="SVGID_184_">
                <use xlink:href="#SVGID_183_" overflow="visible" />
            </clipPath>
            <g clip-path="url(#SVGID_184_)">
                <text transform="matrix(1 0 0 1 23.5015 104.6582)">
                    <tspan x="0" y="0" fill="#5A5A5A" font-family="'HelveticaLTStd-Roman'" font-size="7.9035">1</tspan>
                    <tspan x="4.3" y="0" fill="#5A5A5A" font-family="'HelveticaLTStd-Roman'" font-size="7.9035">0</tspan>
                </text>
            </g>
        </g>
        <g>
            <defs>
                <rect id="SVGID_185_" x="17.8" y="1.9" width="316.1" height="189.5" />
            </defs>
            <clipPath id="SVGID_186_">
                <use xlink:href="#SVGID_185_" overflow="visible" />
            </clipPath>
            <g clip-path="url(#SVGID_186_)">
                <text transform="matrix(1 0 0 1 23.5015 71.7261)">
                    <tspan x="0" y="0" fill="#5A5A5A" font-family="'HelveticaLTStd-Roman'" font-size="7.9035">2</tspan>
                    <tspan x="4.3" y="0" fill="#5A5A5A" font-family="'HelveticaLTStd-Roman'" font-size="7.9035">0</tspan>
                </text>
            </g>
        </g>
        <g>
            <defs>
                <rect id="SVGID_187_" x="17.8" y="1.9" width="316.1" height="189.5" />
            </defs>
            <clipPath id="SVGID_188_">
                <use xlink:href="#SVGID_187_" overflow="visible" />
            </clipPath>
            <g clip-path="url(#SVGID_188_)">
                <text transform="matrix(1 0 0 1 23.5015 38.7891)">
                    <tspan x="0" y="0" fill="#5A5A5A" font-family="'HelveticaLTStd-Roman'" font-size="7.9035">3</tspan>
                    <tspan x="4.3" y="0" fill="#5A5A5A" font-family="'HelveticaLTStd-Roman'" font-size="7.9035">0</tspan>
                </text>
            </g>
        </g>
        <g>
            <defs>
                <rect id="SVGID_189_" x="17.8" y="1.9" width="316.1" height="189.5" />
            </defs>
            <clipPath id="SVGID_190_">
                <use xlink:href="#SVGID_189_" overflow="visible" />
            </clipPath>
            <g clip-path="url(#SVGID_190_)">
                <text transform="matrix(1 0 0 1 46.2646 147.3794)" fill="#5A5A5A" font-family="'HelveticaLTStd-Roman'" font-size="7.9035">1</text>
            </g>
        </g>
        <g>
            <defs>
                <rect id="SVGID_191_" x="17.8" y="1.9" width="316.1" height="189.5" />
            </defs>
            <clipPath id="SVGID_192_">
                <use xlink:href="#SVGID_191_" overflow="visible" />
            </clipPath>
            <g clip-path="url(#SVGID_192_)">
                <text transform="matrix(1 0 0 1 64.0552 147.3794)" fill="#5A5A5A" font-family="'HelveticaLTStd-Roman'" font-size="7.9035">2</text>
            </g>
        </g>
        <g>
            <defs>
                <rect id="SVGID_193_" x="17.8" y="1.9" width="316.1" height="189.5" />
            </defs>
            <clipPath id="SVGID_194_">
                <use xlink:href="#SVGID_193_" overflow="visible" />
            </clipPath>
            <g clip-path="url(#SVGID_194_)">
                <text transform="matrix(1 0 0 1 81.8457 147.3794)" fill="#5A5A5A" font-family="'HelveticaLTStd-Roman'" font-size="7.9035">3</text>
            </g>
        </g>
        <g>
            <defs>
                <rect id="SVGID_195_" x="17.8" y="1.9" width="316.1" height="189.5" />
            </defs>
            <clipPath id="SVGID_196_">
                <use xlink:href="#SVGID_195_" overflow="visible" />
            </clipPath>
            <g clip-path="url(#SVGID_196_)">
                <text transform="matrix(1 0 0 1 99.627 147.3794)" fill="#5A5A5A" font-family="'HelveticaLTStd-Roman'" font-size="7.9035">4</text>
            </g>
        </g>
        <g>
            <defs>
                <rect id="SVGID_197_" x="17.8" y="1.9" width="316.1" height="189.5" />
            </defs>
            <clipPath id="SVGID_198_">
                <use xlink:href="#SVGID_197_" overflow="visible" />
            </clipPath>
            <g clip-path="url(#SVGID_198_)">
                <text transform="matrix(1 0 0 1 117.418 147.3794)" fill="#5A5A5A" font-family="'HelveticaLTStd-Roman'" font-size="7.9035">5</text>
            </g>
        </g>
        <g>
            <defs>
                <rect id="SVGID_199_" x="17.8" y="1.9" width="316.1" height="189.5" />
            </defs>
            <clipPath id="SVGID_200_">
                <use xlink:href="#SVGID_199_" overflow="visible" />
            </clipPath>
            <g clip-path="url(#SVGID_200_)">
                <text transform="matrix(1 0 0 1 135.2061 147.3794)" fill="#5A5A5A" font-family="'HelveticaLTStd-Roman'" font-size="7.9035">6</text>
            </g>
        </g>
        <g>
            <defs>
                <rect id="SVGID_201_" x="17.8" y="1.9" width="316.1" height="189.5" />
            </defs>
            <clipPath id="SVGID_202_">
                <use xlink:href="#SVGID_201_" overflow="visible" />
            </clipPath>
            <g clip-path="url(#SVGID_202_)">
                <text transform="matrix(1 0 0 1 152.9893 147.3794)" fill="#5A5A5A" font-family="'HelveticaLTStd-Roman'" font-size="7.9035">7</text>
            </g>
        </g>
        <g>
            <defs>
                <rect id="SVGID_203_" x="17.8" y="1.9" width="316.1" height="189.5" />
            </defs>
            <clipPath id="SVGID_204_">
                <use xlink:href="#SVGID_203_" overflow="visible" />
            </clipPath>
            <g clip-path="url(#SVGID_204_)">
                <text transform="matrix(1 0 0 1 170.7793 147.3794)" fill="#5A5A5A" font-family="'HelveticaLTStd-Roman'" font-size="7.9035">8</text>
            </g>
        </g>
        <g>
            <defs>
                <rect id="SVGID_205_" x="17.8" y="1.9" width="316.1" height="189.5" />
            </defs>
            <clipPath id="SVGID_206_">
                <use xlink:href="#SVGID_205_" overflow="visible" />
            </clipPath>
            <g clip-path="url(#SVGID_206_)">
                <text transform="matrix(1 0 0 1 188.5684 147.3794)" fill="#5A5A5A" font-family="'HelveticaLTStd-Roman'" font-size="7.9035">9</text>
            </g>
        </g>
        <g>
            <defs>
                <rect id="SVGID_207_" x="17.8" y="1.9" width="316.1" height="189.5" />
            </defs>
            <clipPath id="SVGID_208_">
                <use xlink:href="#SVGID_207_" overflow="visible" />
            </clipPath>
            <g clip-path="url(#SVGID_208_)">
                <text transform="matrix(1 0 0 1 204.0391 147.3794)">
                    <tspan x="0" y="0" fill="#5A5A5A" font-family="'HelveticaLTStd-Roman'" font-size="7.9035">1</tspan>
                    <tspan x="4.3" y="0" fill="#5A5A5A" font-family="'HelveticaLTStd-Roman'" font-size="7.9035">0</tspan>
                </text>
            </g>
        </g>
        <g>
            <defs>
                <rect id="SVGID_209_" x="17.8" y="1.9" width="316.1" height="189.5" />
            </defs>
            <clipPath id="SVGID_210_">
                <use xlink:href="#SVGID_209_" overflow="visible" />
            </clipPath>
            <g clip-path="url(#SVGID_210_)">
                <text transform="matrix(1 0 0 1 221.8291 147.3794)">
                    <tspan x="0" y="0" fill="#5A5A5A" font-family="'HelveticaLTStd-Roman'" font-size="7.9035">1</tspan>
                    <tspan x="4.3" y="0" fill="#5A5A5A" font-family="'HelveticaLTStd-Roman'" font-size="7.9035">1</tspan>
                </text>
            </g>
        </g>
        <g>
            <defs>
                <rect id="SVGID_211_" x="17.8" y="1.9" width="316.1" height="189.5" />
            </defs>
            <clipPath id="SVGID_212_">
                <use xlink:href="#SVGID_211_" overflow="visible" />
            </clipPath>
            <g clip-path="url(#SVGID_212_)">
                <text transform="matrix(1 0 0 1 239.6172 147.3794)">
                    <tspan x="0" y="0" fill="#5A5A5A" font-family="'HelveticaLTStd-Roman'" font-size="7.9035">1</tspan>
                    <tspan x="4.3" y="0" fill="#5A5A5A" font-family="'HelveticaLTStd-Roman'" font-size="7.9035">2</tspan>
                </text>
            </g>
        </g>
        <g>
            <defs>
                <rect id="SVGID_213_" x="17.8" y="1.9" width="316.1" height="189.5" />
            </defs>
            <clipPath id="SVGID_214_">
                <use xlink:href="#SVGID_213_" overflow="visible" />
            </clipPath>
            <g clip-path="url(#SVGID_214_)">
                <text transform="matrix(1 0 0 1 257.4072 147.3794)">
                    <tspan x="0" y="0" fill="#5A5A5A" font-family="'HelveticaLTStd-Roman'" font-size="7.9035">1</tspan>
                    <tspan x="4.3" y="0" fill="#5A5A5A" font-family="'HelveticaLTStd-Roman'" font-size="7.9035">3</tspan>
                </text>
            </g>
        </g>
        <g>
            <defs>
                <rect id="SVGID_215_" x="17.8" y="1.9" width="316.1" height="189.5" />
            </defs>
            <clipPath id="SVGID_216_">
                <use xlink:href="#SVGID_215_" overflow="visible" />
            </clipPath>
            <g clip-path="url(#SVGID_216_)">
                <text transform="matrix(1 0 0 1 275.1904 147.3794)">
                    <tspan x="0" y="0" fill="#5A5A5A" font-family="'HelveticaLTStd-Roman'" font-size="7.9035">1</tspan>
                    <tspan x="4.3" y="0" fill="#5A5A5A" font-family="'HelveticaLTStd-Roman'" font-size="7.9035">4</tspan>
                </text>
            </g>
        </g>
        <g>
            <defs>
                <rect id="SVGID_217_" x="17.8" y="1.9" width="316.1" height="189.5" />
            </defs>
            <clipPath id="SVGID_218_">
                <use xlink:href="#SVGID_217_" overflow="visible" />
            </clipPath>
            <g clip-path="url(#SVGID_218_)">
                <text transform="matrix(1 0 0 1 292.9805 147.3794)">
                    <tspan x="0" y="0" fill="#5A5A5A" font-family="'HelveticaLTStd-Roman'" font-size="7.9035">1</tspan>
                    <tspan x="4.3" y="0" fill="#5A5A5A" font-family="'HelveticaLTStd-Roman'" font-size="7.9035">5</tspan>
                </text>
            </g>
        </g>
        <g>
            <defs>
                <rect id="SVGID_219_" x="17.8" y="1.9" width="316.1" height="189.5" />
            </defs>
            <clipPath id="SVGID_220_">
                <use xlink:href="#SVGID_219_" overflow="visible" />
            </clipPath>
            <g clip-path="url(#SVGID_220_)">
                <text transform="matrix(1 0 0 1 310.7686 147.3794)">
                    <tspan x="0" y="0" fill="#5A5A5A" font-family="'HelveticaLTStd-Roman'" font-size="7.9035">1</tspan>
                    <tspan x="4.3" y="0" fill="#5A5A5A" font-family="'HelveticaLTStd-Roman'" font-size="7.9035">6</tspan>
                </text>
            </g>
        </g>
        <g>
            <defs>
                <rect id="SVGID_221_" x="17.8" y="1.9" width="316.1" height="189.5" />
            </defs>
            <clipPath id="SVGID_222_">
                <use xlink:href="#SVGID_221_" overflow="visible" />
            </clipPath>
            <g clip-path="url(#SVGID_222_)">
                <text transform="matrix(1 0 0 1 147.0547 22.0762)" fill="#5A5A5A" font-family="'HelveticaLTStd-Bold'" font-size="14.0154" class="bold title">Staffel 5</text>
            </g>
        </g>
    </g>
</svg>
