<svg version="1.1" xmlns="http://www.w3.org/2000/svg" xmlns:xlink="http://www.w3.org/1999/xlink" x="0px" y="0px" width="100%" viewBox="0 0 336.3 190.4" enable-background="new 0 0 336.3 190.4" xml:space="preserve">
    <g id="labels">
        <polygon fill-rule="evenodd" clip-rule="evenodd" fill="#007C3E" points="136,175.4 140.5,175.4 140.5,180 136,180 136,175.4 	" />
        <text transform="matrix(1 0 0 1 142.4038 180.4385)" fill="#5A5A5A" font-family="'HelveticaLTStd-Roman'" font-size="8.5727">Komponiert</text>
        <polygon fill-rule="evenodd" clip-rule="evenodd" fill="#E4171C" points="197.7,175.4 202.2,175.4 202.2,180 197.7,180 
		197.7,175.4 	" />
        <text transform="matrix(1 0 0 1 204.1138 180.4385)" fill="#5A5A5A" font-family="'HelveticaLTStd-Roman'" font-size="8.5727">Lizenziert</text>
        <text transform="matrix(1 0 0 1 157.1704 163.3193)" fill="#5A5A5A" font-family="'HelveticaLTStd-Roman'" font-size="8.5727">Episode der Staffel</text>

        <text transform="matrix(-4.371139e-008 -1 1 -4.371139e-008 15.4321 113.9404)" fill="#5A5A5A" font-family="'HelveticaLTStd-Roman'" font-size="8.5727">Musikanteil in %</text>
    </g>
    
    <g>
        <g>
            <defs>
                <polygon id="SVGID_33_" points="19.4,190.4 333.9,190.4 333.9,1.8 19.4,1.8 19.4,190.4 			" />
            </defs>
            <clipPath id="SVGID_34_">
                <use xlink:href="#SVGID_33_" overflow="visible" />
            </clipPath>

            <path clip-path="url(#SVGID_34_)" fill="none" stroke="#F2F2F2" stroke-width="0.72" stroke-linejoin="round" stroke-miterlimit="10" d="
			M41.2,101.6h283.1 M41.2,68.7h283.1 M41.2,35.9h283.1" />
        </g>
        <g>
            <defs>
                <polygon id="SVGID_35_" points="41.2,135.1 325,135.1 325,35.9 41.2,35.9 41.2,135.1 			" />
            </defs>
            <clipPath id="SVGID_36_">
                <use xlink:href="#SVGID_35_" overflow="visible" />
            </clipPath>
            <path clip-path="url(#SVGID_36_)" fill="#007C3E" d="M44.7,101.4h8.6v33h-8.6V101.4L44.7,101.4z M66.5,97.6H75v36.9h-8.5V97.6
			L66.5,97.6z M88.3,126.9h8.5v7.5h-8.5V126.9L88.3,126.9z M110,127.7h8.6v6.7H110V127.7L110,127.7z M131.8,109.3h8.6v25.2h-8.6
			V109.3L131.8,109.3z M153.6,119.7h8.5v14.8h-8.5V119.7L153.6,119.7z M197.1,131h8.6v3.5h-8.6V131L197.1,131z M218.9,115.3h8.6
			v19.2h-8.6V115.3L218.9,115.3z M240.7,117.8h8.5v16.7h-8.5V117.8L240.7,117.8z M262.5,104.2h8.5v30.3h-8.5V104.2L262.5,104.2z
			 M284.2,98.2h8.6v36.3h-8.6V98.2L284.2,98.2z M306,102h8.6v32.5H306V102L306,102z" />
        </g>
        <g>
            <defs>
                <polygon id="SVGID_37_" points="41.2,135.1 325,135.1 325,35.9 41.2,35.9 41.2,135.1 			" />
            </defs>
            <clipPath id="SVGID_38_">
                <use xlink:href="#SVGID_37_" overflow="visible" />
            </clipPath>
            <path clip-path="url(#SVGID_38_)" fill="#E4171C" d="M51.1,128.4h8.6v6.1h-8.6V128.4L51.1,128.4z M72.9,128.6h8.5v5.9h-8.5V128.6
			L72.9,128.6z M94.7,122.4h8.5v12.1h-8.5V122.4L94.7,122.4z M116.4,133.8h8.6v0.6h-8.6V133.8L116.4,133.8z M138.2,119.2h8.6v15.2
			h-8.6V119.2L138.2,119.2z M181.8,106.4h8.5v28.1h-8.5V106.4L181.8,106.4z M203.5,104.2h8.6v30.3h-8.6V104.2L203.5,104.2z
			 M225.3,115.5h8.6v19h-8.6V115.5L225.3,115.5z M247.1,122.9h8.5v11.5h-8.5V122.9L247.1,122.9z M268.9,126h8.5v8.5h-8.5V126
			L268.9,126z M312.4,125.7h8.6v8.7h-8.6V125.7L312.4,125.7z" />
        </g>
        <g>
            <defs>
                <polygon id="SVGID_39_" points="19.4,190.4 333.9,190.4 333.9,1.8 19.4,1.8 19.4,190.4 			" />
            </defs>
            <clipPath id="SVGID_40_">
                <use xlink:href="#SVGID_39_" overflow="visible" />
            </clipPath>

            <line clip-path="url(#SVGID_40_)" fill="none" stroke="#BFBFBF" stroke-width="1.2" stroke-linejoin="round" stroke-miterlimit="10" x1="41.2" y1="134.4" x2="324.3" y2="134.4" />
        </g>
        <g>
            <defs>
                <polygon id="SVGID_41_" points="19.4,190.4 333.9,190.4 333.9,1.8 19.4,1.8 19.4,190.4 			" />
            </defs>
            <clipPath id="SVGID_42_">
                <use xlink:href="#SVGID_41_" overflow="visible" />
            </clipPath>

            <path clip-path="url(#SVGID_42_)" fill="none" stroke="#BFBFBF" stroke-width="1.2" stroke-linejoin="round" stroke-miterlimit="10" d="
			M41.2,134.4v2.4 M63,134.4v2.4 M84.8,134.4v2.4 M106.6,134.4v2.4 M128.3,134.4v2.4 M150.1,134.4v2.4 M171.9,134.4v2.4
			 M193.7,134.4v2.4 M215.4,134.4v2.4 M237.2,134.4v2.4 M259,134.4v2.4 M280.8,134.4v2.4 M302.5,134.4v2.4 M324.3,134.4v2.4" />
        </g>
        <g>
            <defs>
                <rect id="SVGID_43_" x="19.4" y="1.8" width="314.4" height="188.7" />
            </defs>
            <clipPath id="SVGID_44_">
                <use xlink:href="#SVGID_43_" overflow="visible" />
            </clipPath>
            <g clip-path="url(#SVGID_44_)">
                <text transform="matrix(1 0 0 1 29.7051 136.9214)" fill="#5A5A5A" font-family="'HelveticaLTStd-Roman'" font-size="7.861">0</text>
            </g>
        </g>
        <g>
            <defs>
                <rect id="SVGID_45_" x="19.4" y="1.8" width="314.4" height="188.7" />
            </defs>
            <clipPath id="SVGID_46_">
                <use xlink:href="#SVGID_45_" overflow="visible" />
            </clipPath>
            <g clip-path="url(#SVGID_46_)">
                <text transform="matrix(1 0 0 1 25.126 104.0933)">
                    <tspan x="0" y="0" fill="#5A5A5A" font-family="'HelveticaLTStd-Roman'" font-size="7.861">1</tspan>
                    <tspan x="4.3" y="0" fill="#5A5A5A" font-family="'HelveticaLTStd-Roman'" font-size="7.861">0</tspan>
                </text>
            </g>
        </g>
        <g>
            <defs>
                <rect id="SVGID_47_" x="19.4" y="1.8" width="314.4" height="188.7" />
            </defs>
            <clipPath id="SVGID_48_">
                <use xlink:href="#SVGID_47_" overflow="visible" />
            </clipPath>
            <g clip-path="url(#SVGID_48_)">
                <text transform="matrix(1 0 0 1 25.126 71.2642)">
                    <tspan x="0" y="0" fill="#5A5A5A" font-family="'HelveticaLTStd-Roman'" font-size="7.861">2</tspan>
                    <tspan x="4.3" y="0" fill="#5A5A5A" font-family="'HelveticaLTStd-Roman'" font-size="7.861">0</tspan>
                </text>
            </g>
        </g>
        <g>
            <defs>
                <rect id="SVGID_49_" x="19.4" y="1.8" width="314.4" height="188.7" />
            </defs>
            <clipPath id="SVGID_50_">
                <use xlink:href="#SVGID_49_" overflow="visible" />
            </clipPath>
            <g clip-path="url(#SVGID_50_)">
                <text transform="matrix(1 0 0 1 25.126 38.4277)">
                    <tspan x="0" y="0" fill="#5A5A5A" font-family="'HelveticaLTStd-Roman'" font-size="7.861">3</tspan>
                    <tspan x="4.3" y="0" fill="#5A5A5A" font-family="'HelveticaLTStd-Roman'" font-size="7.861">0</tspan>
                </text>
            </g>
        </g>
        <g>
            <defs>
                <rect id="SVGID_51_" x="19.4" y="1.8" width="314.4" height="188.7" />
            </defs>
            <clipPath id="SVGID_52_">
                <use xlink:href="#SVGID_51_" overflow="visible" />
            </clipPath>
            <g clip-path="url(#SVGID_52_)">
                <text transform="matrix(1 0 0 1 49.8691 146.6528)" fill="#5A5A5A" font-family="'HelveticaLTStd-Roman'" font-size="7.861">1</text>
            </g>
        </g>
        <g>
            <defs>
                <rect id="SVGID_53_" x="19.4" y="1.8" width="314.4" height="188.7" />
            </defs>
            <clipPath id="SVGID_54_">
                <use xlink:href="#SVGID_53_" overflow="visible" />
            </clipPath>
            <g clip-path="url(#SVGID_54_)">
                <text transform="matrix(1 0 0 1 71.6436 146.6528)" fill="#5A5A5A" font-family="'HelveticaLTStd-Roman'" font-size="7.861">2</text>
            </g>
        </g>
        <g>
            <defs>
                <rect id="SVGID_55_" x="19.4" y="1.8" width="314.4" height="188.7" />
            </defs>
            <clipPath id="SVGID_56_">
                <use xlink:href="#SVGID_55_" overflow="visible" />
            </clipPath>
            <g clip-path="url(#SVGID_56_)">
                <text transform="matrix(1 0 0 1 93.4111 146.6528)" fill="#5A5A5A" font-family="'HelveticaLTStd-Roman'" font-size="7.861">3</text>
            </g>
        </g>
        <g>
            <defs>
                <rect id="SVGID_57_" x="19.4" y="1.8" width="314.4" height="188.7" />
            </defs>
            <clipPath id="SVGID_58_">
                <use xlink:href="#SVGID_57_" overflow="visible" />
            </clipPath>
            <g clip-path="url(#SVGID_58_)">
                <text transform="matrix(1 0 0 1 115.1924 146.6528)" fill="#5A5A5A" font-family="'HelveticaLTStd-Roman'" font-size="7.861">4</text>
            </g>
        </g>
        <g>
            <defs>
                <rect id="SVGID_59_" x="19.4" y="1.8" width="314.4" height="188.7" />
            </defs>
            <clipPath id="SVGID_60_">
                <use xlink:href="#SVGID_59_" overflow="visible" />
            </clipPath>
            <g clip-path="url(#SVGID_60_)">
                <text transform="matrix(1 0 0 1 136.9678 146.6528)" fill="#5A5A5A" font-family="'HelveticaLTStd-Roman'" font-size="7.861">5</text>
            </g>
        </g>
        <g>
            <defs>
                <rect id="SVGID_61_" x="19.4" y="1.8" width="314.4" height="188.7" />
            </defs>
            <clipPath id="SVGID_62_">
                <use xlink:href="#SVGID_61_" overflow="visible" />
            </clipPath>
            <g clip-path="url(#SVGID_62_)">
                <text transform="matrix(1 0 0 1 158.7422 146.6528)" fill="#5A5A5A" font-family="'HelveticaLTStd-Roman'" font-size="7.861">6</text>
            </g>
        </g>
        <g>
            <defs>
                <rect id="SVGID_63_" x="19.4" y="1.8" width="314.4" height="188.7" />
            </defs>
            <clipPath id="SVGID_64_">
                <use xlink:href="#SVGID_63_" overflow="visible" />
            </clipPath>
            <g clip-path="url(#SVGID_64_)">
                <text transform="matrix(1 0 0 1 180.5166 146.6528)" fill="#5A5A5A" font-family="'HelveticaLTStd-Roman'" font-size="7.861">7</text>
            </g>
        </g>
        <g>
            <defs>
                <rect id="SVGID_65_" x="19.4" y="1.8" width="314.4" height="188.7" />
            </defs>
            <clipPath id="SVGID_66_">
                <use xlink:href="#SVGID_65_" overflow="visible" />
            </clipPath>
            <g clip-path="url(#SVGID_66_)">
                <text transform="matrix(1 0 0 1 202.291 146.6528)" fill="#5A5A5A" font-family="'HelveticaLTStd-Roman'" font-size="7.861">8</text>
            </g>
        </g>
        <g>
            <defs>
                <rect id="SVGID_67_" x="19.4" y="1.8" width="314.4" height="188.7" />
            </defs>
            <clipPath id="SVGID_68_">
                <use xlink:href="#SVGID_67_" overflow="visible" />
            </clipPath>
            <g clip-path="url(#SVGID_68_)">
                <text transform="matrix(1 0 0 1 224.0664 146.6528)" fill="#5A5A5A" font-family="'HelveticaLTStd-Roman'" font-size="7.861">9</text>
            </g>
        </g>
        <g>
            <defs>
                <rect id="SVGID_69_" x="19.4" y="1.8" width="314.4" height="188.7" />
            </defs>
            <clipPath id="SVGID_70_">
                <use xlink:href="#SVGID_69_" overflow="visible" />
            </clipPath>
            <g clip-path="url(#SVGID_70_)">
                <text transform="matrix(1 0 0 1 243.5342 146.6528)">
                    <tspan x="0" y="0" fill="#5A5A5A" font-family="'HelveticaLTStd-Roman'" font-size="7.861">1</tspan>
                    <tspan x="4.3" y="0" fill="#5A5A5A" font-family="'HelveticaLTStd-Roman'" font-size="7.861">0</tspan>
                </text>
            </g>
        </g>
        <g>
            <defs>
                <rect id="SVGID_71_" x="19.4" y="1.8" width="314.4" height="188.7" />
            </defs>
            <clipPath id="SVGID_72_">
                <use xlink:href="#SVGID_71_" overflow="visible" />
            </clipPath>
            <g clip-path="url(#SVGID_72_)">
                <text transform="matrix(1 0 0 1 265.3086 146.6528)">
                    <tspan x="0" y="0" fill="#5A5A5A" font-family="'HelveticaLTStd-Roman'" font-size="7.861">1</tspan>
                    <tspan x="4.3" y="0" fill="#5A5A5A" font-family="'HelveticaLTStd-Roman'" font-size="7.861">1</tspan>
                </text>
            </g>
        </g>
        <g>
            <defs>
                <rect id="SVGID_73_" x="19.4" y="1.8" width="314.4" height="188.7" />
            </defs>
            <clipPath id="SVGID_74_">
                <use xlink:href="#SVGID_73_" overflow="visible" />
            </clipPath>
            <g clip-path="url(#SVGID_74_)">
                <text transform="matrix(1 0 0 1 287.084 146.6528)">
                    <tspan x="0" y="0" fill="#5A5A5A" font-family="'HelveticaLTStd-Roman'" font-size="7.861">1</tspan>
                    <tspan x="4.3" y="0" fill="#5A5A5A" font-family="'HelveticaLTStd-Roman'" font-size="7.861">2</tspan>
                </text>
            </g>
        </g>
        <g>
            <defs>
                <rect id="SVGID_75_" x="19.4" y="1.8" width="314.4" height="188.7" />
            </defs>
            <clipPath id="SVGID_76_">
                <use xlink:href="#SVGID_75_" overflow="visible" />
            </clipPath>
            <g clip-path="url(#SVGID_76_)">
                <text transform="matrix(1 0 0 1 308.8594 146.6528)">
                    <tspan x="0" y="0" fill="#5A5A5A" font-family="'HelveticaLTStd-Roman'" font-size="7.861">1</tspan>
                    <tspan x="4.3" y="0" fill="#5A5A5A" font-family="'HelveticaLTStd-Roman'" font-size="7.861">3</tspan>
                </text>
            </g>
        </g>
        <g>
            <defs>
                <rect id="SVGID_77_" x="19.4" y="1.8" width="314.4" height="188.7" />
            </defs>
            <clipPath id="SVGID_78_">
                <use xlink:href="#SVGID_77_" overflow="visible" />
            </clipPath>
            <g clip-path="url(#SVGID_78_)">
                <text transform="matrix(1 0 0 1 148.0156 21.813)" fill="#5A5A5A" font-family="'HelveticaLTStd-Bold'" font-size="13.9401" class="bold title">Staffel 2</text>
            </g>
        </g>
    </g>
</svg>
