<svg version="1.1" xmlns="http://www.w3.org/2000/svg" xmlns:xlink="http://www.w3.org/1999/xlink" x="0px" y="0px" width="100%" viewBox="0 0 336.3 190.4" enable-background="new 0 0 336.3 190.4" xml:space="preserve">
    <g id="labels">
        <polygon fill-rule="evenodd" clip-rule="evenodd" fill="#007C3E" points="136,175.4 140.5,175.4 140.5,180 136,180 136,175.4 	" />
        <text transform="matrix(1 0 0 1 142.4038 180.4385)" fill="#5A5A5A" font-family="'HelveticaLTStd-Roman'" font-size="8.5727">Komponiert</text>
        <polygon fill-rule="evenodd" clip-rule="evenodd" fill="#E4171C" points="197.7,175.4 202.2,175.4 202.2,180 197.7,180 
		197.7,175.4 	" />
        <text transform="matrix(1 0 0 1 204.1138 180.4385)" fill="#5A5A5A" font-family="'HelveticaLTStd-Roman'" font-size="8.5727">Lizenziert</text>
        <text transform="matrix(1 0 0 1 157.1704 163.3193)" fill="#5A5A5A" font-family="'HelveticaLTStd-Roman'" font-size="8.5727">Episode der Staffel</text>

        <text transform="matrix(-4.371139e-008 -1 1 -4.371139e-008 15.4321 113.9404)" fill="#5A5A5A" font-family="'HelveticaLTStd-Roman'" font-size="8.5727">Musikanteil in %</text>
    </g>
    
    <g>
        <g>
            <defs>
                <polygon id="SVGID_79_" points="19.8,190.4 333.9,190.4 333.9,1.9 19.8,1.9 19.8,190.4 			" />
            </defs>
            <clipPath id="SVGID_80_">
                <use xlink:href="#SVGID_79_" overflow="visible" />
            </clipPath>

            <path clip-path="url(#SVGID_80_)" fill="none" stroke="#F2F2F2" stroke-width="0.72" stroke-linejoin="round" stroke-miterlimit="10" d="
			M41.5,101.7h282.8 M41.5,68.8h282.8 M41.5,36h282.8" />
        </g>
        <g>
            <defs>
                <polygon id="SVGID_81_" points="41.5,135.1 325,135.1 325,36 41.5,36 41.5,135.1 			" />
            </defs>
            <clipPath id="SVGID_82_">
                <use xlink:href="#SVGID_81_" overflow="visible" />
            </clipPath>
            <path clip-path="url(#SVGID_82_)" fill="#007C3E" d="M45,83.7h8.6v50.8H45V83.7L45,83.7z M66.8,99.8h8.5v34.7h-8.5V99.8L66.8,99.8
			z M88.6,107.2H97v27.2h-8.5V107.2L88.6,107.2z M110.2,104.6h8.6v29.8h-8.6V104.6L110.2,104.6z M132,109h8.6v25.4H132V109L132,109z
			 M153.8,90.4h8.5v44.1h-8.5V90.4L153.8,90.4z M175.6,90.9h8.5v43.6h-8.5V90.9L175.6,90.9z M197.2,91.4h8.6v43h-8.6V91.4
			L197.2,91.4z M219,118.6h8.6v15.9H219V118.6L219,118.6z M240.8,124.2h8.5v10.3h-8.5V124.2L240.8,124.2z M262.6,117h8.5v17.5h-8.5
			V117L262.6,117z M284.3,106.4h8.6v28.1h-8.6V106.4L284.3,106.4z M306,88.8h8.6v45.7H306V88.8L306,88.8z" />
        </g>
        <g>
            <defs>
                <polygon id="SVGID_83_" points="41.5,135.1 325,135.1 325,36 41.5,36 41.5,135.1 			" />
            </defs>
            <clipPath id="SVGID_84_">
                <use xlink:href="#SVGID_83_" overflow="visible" />
            </clipPath>
            <path clip-path="url(#SVGID_84_)" fill="#E4171C" d="M73.2,116.1h8.5v18.3h-8.5V116.1L73.2,116.1z M116.6,132.6h8.6v1.9h-8.6
			V132.6L116.6,132.6z M138.4,106.3h8.6v28.2h-8.6V106.3L138.4,106.3z M160.2,106.2h8.5v28.3h-8.5V106.2L160.2,106.2z M203.6,122.2
			h8.6v12.3h-8.6V122.2L203.6,122.2z M225.4,118.1h8.6v16.3h-8.6V118.1L225.4,118.1z M290.7,119.4h8.6v15.1h-8.6V119.4L290.7,119.4z
			 M312.4,107.5h8.6v27h-8.6V107.5L312.4,107.5z" />
        </g>
        <g>
            <defs>
                <polygon id="SVGID_85_" points="19.8,190.4 333.9,190.4 333.9,1.9 19.8,1.9 19.8,190.4 			" />
            </defs>
            <clipPath id="SVGID_86_">
                <use xlink:href="#SVGID_85_" overflow="visible" />
            </clipPath>

            <line clip-path="url(#SVGID_86_)" fill="none" stroke="#BFBFBF" stroke-width="1.2" stroke-linejoin="round" stroke-miterlimit="10" x1="41.5" y1="134.5" x2="324.4" y2="134.5" />
        </g>
        <g>
            <defs>
                <polygon id="SVGID_87_" points="19.8,190.4 333.9,190.4 333.9,1.9 19.8,1.9 19.8,190.4 			" />
            </defs>
            <clipPath id="SVGID_88_">
                <use xlink:href="#SVGID_87_" overflow="visible" />
            </clipPath>

            <path clip-path="url(#SVGID_88_)" fill="none" stroke="#BFBFBF" stroke-width="1.2" stroke-linejoin="round" stroke-miterlimit="10" d="
			M41.5,134.5v2.4 M63.3,134.5v2.4 M85.1,134.5v2.4 M106.9,134.5v2.4 M128.6,134.5v2.4 M150.3,134.5v2.4 M172.1,134.5v2.4
			 M193.9,134.5v2.4 M215.6,134.5v2.4 M237.4,134.5v2.4 M259.1,134.5v2.4 M280.9,134.5v2.4 M302.6,134.5v2.4 M324.4,134.5v2.4" />
        </g>
        <g>
            <defs>
                <rect id="SVGID_89_" x="19.8" y="1.9" width="314.1" height="188.5" />
            </defs>
            <clipPath id="SVGID_90_">
                <use xlink:href="#SVGID_89_" overflow="visible" />
            </clipPath>
            <g clip-path="url(#SVGID_90_)">
                <text transform="matrix(1 0 0 1 30.0405 136.9463)" fill="#5A5A5A" font-family="'HelveticaLTStd-Roman'" font-size="7.8533">0</text>
            </g>
        </g>
        <g>
            <defs>
                <rect id="SVGID_91_" x="19.8" y="1.9" width="314.1" height="188.5" />
            </defs>
            <clipPath id="SVGID_92_">
                <use xlink:href="#SVGID_91_" overflow="visible" />
            </clipPath>
            <g clip-path="url(#SVGID_92_)">
                <text transform="matrix(1 0 0 1 25.4663 104.1494)">
                    <tspan x="0" y="0" fill="#5A5A5A" font-family="'HelveticaLTStd-Roman'" font-size="7.8533">1</tspan>
                    <tspan x="4.3" y="0" fill="#5A5A5A" font-family="'HelveticaLTStd-Roman'" font-size="7.8533">0</tspan>
                </text>
            </g>
        </g>
        <g>
            <defs>
                <rect id="SVGID_93_" x="19.8" y="1.9" width="314.1" height="188.5" />
            </defs>
            <clipPath id="SVGID_94_">
                <use xlink:href="#SVGID_93_" overflow="visible" />
            </clipPath>
            <g clip-path="url(#SVGID_94_)">
                <text transform="matrix(1 0 0 1 25.4663 71.3516)">
                    <tspan x="0" y="0" fill="#5A5A5A" font-family="'HelveticaLTStd-Roman'" font-size="7.8533">2</tspan>
                    <tspan x="4.3" y="0" fill="#5A5A5A" font-family="'HelveticaLTStd-Roman'" font-size="7.8533">0</tspan>
                </text>
            </g>
        </g>
        <g>
            <defs>
                <rect id="SVGID_95_" x="19.8" y="1.9" width="314.1" height="188.5" />
            </defs>
            <clipPath id="SVGID_96_">
                <use xlink:href="#SVGID_95_" overflow="visible" />
            </clipPath>
            <g clip-path="url(#SVGID_96_)">
                <text transform="matrix(1 0 0 1 25.4663 38.5488)">
                    <tspan x="0" y="0" fill="#5A5A5A" font-family="'HelveticaLTStd-Roman'" font-size="7.8533">3</tspan>
                    <tspan x="4.3" y="0" fill="#5A5A5A" font-family="'HelveticaLTStd-Roman'" font-size="7.8533">0</tspan>
                </text>
            </g>
        </g>
        <g>
            <defs>
                <rect id="SVGID_97_" x="19.8" y="1.9" width="314.1" height="188.5" />
            </defs>
            <clipPath id="SVGID_98_">
                <use xlink:href="#SVGID_97_" overflow="visible" />
            </clipPath>
            <g clip-path="url(#SVGID_98_)">
                <text transform="matrix(1 0 0 1 50.1851 146.667)" fill="#5A5A5A" font-family="'HelveticaLTStd-Roman'" font-size="7.8533">1</text>
            </g>
        </g>
        <g>
            <defs>
                <rect id="SVGID_99_" x="19.8" y="1.9" width="314.1" height="188.5" />
            </defs>
            <clipPath id="SVGID_100_">
                <use xlink:href="#SVGID_99_" overflow="visible" />
            </clipPath>
            <g clip-path="url(#SVGID_100_)">
                <text transform="matrix(1 0 0 1 71.939 146.667)" fill="#5A5A5A" font-family="'HelveticaLTStd-Roman'" font-size="7.8533">2</text>
            </g>
        </g>
        <g>
            <defs>
                <rect id="SVGID_101_" x="19.8" y="1.9" width="314.1" height="188.5" />
            </defs>
            <clipPath id="SVGID_102_">
                <use xlink:href="#SVGID_101_" overflow="visible" />
            </clipPath>
            <g clip-path="url(#SVGID_102_)">
                <text transform="matrix(1 0 0 1 93.6851 146.667)" fill="#5A5A5A" font-family="'HelveticaLTStd-Roman'" font-size="7.8533">3</text>
            </g>
        </g>
        <g>
            <defs>
                <rect id="SVGID_103_" x="19.8" y="1.9" width="314.1" height="188.5" />
            </defs>
            <clipPath id="SVGID_104_">
                <use xlink:href="#SVGID_103_" overflow="visible" />
            </clipPath>
            <g clip-path="url(#SVGID_104_)">
                <text transform="matrix(1 0 0 1 115.4448 146.667)" fill="#5A5A5A" font-family="'HelveticaLTStd-Roman'" font-size="7.8533">4</text>
            </g>
        </g>
        <g>
            <defs>
                <rect id="SVGID_105_" x="19.8" y="1.9" width="314.1" height="188.5" />
            </defs>
            <clipPath id="SVGID_106_">
                <use xlink:href="#SVGID_105_" overflow="visible" />
            </clipPath>
            <g clip-path="url(#SVGID_106_)">
                <text transform="matrix(1 0 0 1 137.1987 146.667)" fill="#5A5A5A" font-family="'HelveticaLTStd-Roman'" font-size="7.8533">5</text>
            </g>
        </g>
        <g>
            <defs>
                <rect id="SVGID_107_" x="19.8" y="1.9" width="314.1" height="188.5" />
            </defs>
            <clipPath id="SVGID_108_">
                <use xlink:href="#SVGID_107_" overflow="visible" />
            </clipPath>
            <g clip-path="url(#SVGID_108_)">
                <text transform="matrix(1 0 0 1 158.9517 146.667)" fill="#5A5A5A" font-family="'HelveticaLTStd-Roman'" font-size="7.8533">6</text>
            </g>
        </g>
        <g>
            <defs>
                <rect id="SVGID_109_" x="19.8" y="1.9" width="314.1" height="188.5" />
            </defs>
            <clipPath id="SVGID_110_">
                <use xlink:href="#SVGID_109_" overflow="visible" />
            </clipPath>
            <g clip-path="url(#SVGID_110_)">
                <text transform="matrix(1 0 0 1 180.7046 146.667)" fill="#5A5A5A" font-family="'HelveticaLTStd-Roman'" font-size="7.8533">7</text>
            </g>
        </g>
        <g>
            <defs>
                <rect id="SVGID_111_" x="19.8" y="1.9" width="314.1" height="188.5" />
            </defs>
            <clipPath id="SVGID_112_">
                <use xlink:href="#SVGID_111_" overflow="visible" />
            </clipPath>
            <g clip-path="url(#SVGID_112_)">
                <text transform="matrix(1 0 0 1 202.4575 146.667)" fill="#5A5A5A" font-family="'HelveticaLTStd-Roman'" font-size="7.8533">8</text>
            </g>
        </g>
        <g>
            <defs>
                <rect id="SVGID_113_" x="19.8" y="1.9" width="314.1" height="188.5" />
            </defs>
            <clipPath id="SVGID_114_">
                <use xlink:href="#SVGID_113_" overflow="visible" />
            </clipPath>
            <g clip-path="url(#SVGID_114_)">
                <text transform="matrix(1 0 0 1 224.2114 146.667)" fill="#5A5A5A" font-family="'HelveticaLTStd-Roman'" font-size="7.8533">9</text>
            </g>
        </g>
        <g>
            <defs>
                <rect id="SVGID_115_" x="19.8" y="1.9" width="314.1" height="188.5" />
            </defs>
            <clipPath id="SVGID_116_">
                <use xlink:href="#SVGID_115_" overflow="visible" />
            </clipPath>
            <g clip-path="url(#SVGID_116_)">
                <text transform="matrix(1 0 0 1 243.6597 146.667)">
                    <tspan x="0" y="0" fill="#5A5A5A" font-family="'HelveticaLTStd-Roman'" font-size="7.8533">1</tspan>
                    <tspan x="4.3" y="0" fill="#5A5A5A" font-family="'HelveticaLTStd-Roman'" font-size="7.8533">0</tspan>
                </text>
            </g>
        </g>
        <g>
            <defs>
                <rect id="SVGID_117_" x="19.8" y="1.9" width="314.1" height="188.5" />
            </defs>
            <clipPath id="SVGID_118_">
                <use xlink:href="#SVGID_117_" overflow="visible" />
            </clipPath>
            <g clip-path="url(#SVGID_118_)">
                <text transform="matrix(1 0 0 1 265.4136 146.667)">
                    <tspan x="0" y="0" fill="#5A5A5A" font-family="'HelveticaLTStd-Roman'" font-size="7.8533">1</tspan>
                    <tspan x="4.3" y="0" fill="#5A5A5A" font-family="'HelveticaLTStd-Roman'" font-size="7.8533">1</tspan>
                </text>
            </g>
        </g>
        <g>
            <defs>
                <rect id="SVGID_119_" x="19.8" y="1.9" width="314.1" height="188.5" />
            </defs>
            <clipPath id="SVGID_120_">
                <use xlink:href="#SVGID_119_" overflow="visible" />
            </clipPath>
            <g clip-path="url(#SVGID_120_)">
                <text transform="matrix(1 0 0 1 287.167 146.667)">
                    <tspan x="0" y="0" fill="#5A5A5A" font-family="'HelveticaLTStd-Roman'" font-size="7.8533">1</tspan>
                    <tspan x="4.3" y="0" fill="#5A5A5A" font-family="'HelveticaLTStd-Roman'" font-size="7.8533">2</tspan>
                </text>
            </g>
        </g>
        <g>
            <defs>
                <rect id="SVGID_121_" x="19.8" y="1.9" width="314.1" height="188.5" />
            </defs>
            <clipPath id="SVGID_122_">
                <use xlink:href="#SVGID_121_" overflow="visible" />
            </clipPath>
            <g clip-path="url(#SVGID_122_)">
                <text transform="matrix(1 0 0 1 308.9209 146.667)">
                    <tspan x="0" y="0" fill="#5A5A5A" font-family="'HelveticaLTStd-Roman'" font-size="7.8533">1</tspan>
                    <tspan x="4.3" y="0" fill="#5A5A5A" font-family="'HelveticaLTStd-Roman'" font-size="7.8533">3</tspan>
                </text>
            </g>
        </g>
        <g>
            <defs>
                <rect id="SVGID_123_" x="19.8" y="1.9" width="314.1" height="188.5" />
            </defs>
            <clipPath id="SVGID_124_">
                <use xlink:href="#SVGID_123_" overflow="visible" />
            </clipPath>
            <g clip-path="url(#SVGID_124_)">
                <text transform="matrix(1 0 0 1 148.2349 21.9492)" fill="#5A5A5A" font-family="'HelveticaLTStd-Bold'" font-size="13.9264" class="bold title">Staffel 3</text>
            </g>
        </g>
    </g>
</svg>
