<svg version="1.1" xmlns="http://www.w3.org/2000/svg" xmlns:xlink="http://www.w3.org/1999/xlink" x="0px" y="0px" width="100%" viewBox="0 0 338.7 116 " enable-background="new 0 0 338.7 116 " xml:space="preserve">
    <g id="dramaturgic-arcs">
        <path fill="none " stroke="#06662F " stroke-miterlimit="10 " d="M488.5,173 " />
        <path fill="none " stroke="#000000 " stroke-miterlimit="10 " d="M384.2,259.5 " />
        <line fill="none " stroke="#000000 " stroke-miterlimit="10 " x1="63.3 " y1="86 " x2="322 " y2="86 " />
        <line fill="none " stroke="#000000 " stroke-miterlimit="10 " x1="63.3 " y1="80 " x2="63.3 " y2="92.3 " />
        <line fill="none " stroke="#000000 " stroke-miterlimit="10 " x1="128 " y1="80 " x2="128 " y2="92.3 " />
        <line fill="none " stroke="#000000 " stroke-miterlimit="10 " x1="192.7 " y1="80.1 " x2="192.7 " y2="92.5 " />
        <line fill="none " stroke="#000000 " stroke-miterlimit="10 " x1="257.3 " y1="80 " x2="257.3 " y2="92.3 " />
        <line fill="none " stroke="#000000 " stroke-miterlimit="10 " x1="322 " y1="80 " x2="322 " y2="92.3 " />
        <path fill="none " stroke="#06662F " stroke-miterlimit="10 " d="M63.3,78.7c0,0,51.3-25.5,64.7,0 " />
        <path fill="none " stroke="#06662F " stroke-miterlimit="10 " d="M257.3,78.7c-13.3-25.5-64.7,0-64.7,0c-13.3-25.5-64.7,0-64.7,0 " />
        <path fill="none " stroke="#06662F " stroke-miterlimit="10 " d="M82.3,78.7c0,0,122.2-86.5,175,0c0,0,51.3-25.5,64.7,0 " />
        <path fill="none " stroke="#06662F " stroke-miterlimit="10 " d="M174.5,78.7c0,0,88.6-62.7,147.5-28 " />
        <path fill="none " stroke="#06662F " stroke-miterlimit="10 " d="M63.3,75.7c0,0,153.8-80.3,254.3-56.9c1.5,0.3,2.9,0.7,4.4,1.1 " />
        <rect x="67.5 " y="13.4 " fill="none " width="102 " height="10.2 " />
        <text transform="matrix(1 0 0 1 67.5063 19.8359) " fill="#06662F ">Dramaturgische Bögen</text>
        <rect x="8 " y="96.5 " fill="none " width="36 " height="8.3 " />
        <text transform="matrix(1 0 0 1 8.0068 102.8906) ">Episoden</text>
        <rect x="60.8 " y="96.5 " fill="none " width="5 " height="8.3 " />
        <text transform="matrix(1 0 0 1 60.833 102.8906) ">1</text>
        <rect x="125.5 " y="96.5 " fill="none " width="5 " height="8.3 " />
        <text transform="matrix(1 0 0 1 125.4995 102.8906) ">2</text>
        <rect x="190.2 " y="96.5 " fill="none " width="5 " height="8.3 " />
        <text transform="matrix(1 0 0 1 190.2017 102.8906) ">3</text>
        <rect x="254.8 " y="96.5 " fill="none " width="5 " height="8.3 " />
        <text transform="matrix(1 0 0 1 254.8325 102.8906) ">4</text>
        <rect x="318.5 " y="96.5 " fill="none " width="7 " height="8.3 " />
        <text transform="matrix(1 0 0 1 318.4985 102.8906) ">...</text>
    </g>
</svg>
