<svg version="1.1" xmlns="http://www.w3.org/2000/svg" xmlns:xlink="http://www.w3.org/1999/xlink" x="0px" y="0px" width="100%" viewBox="0 0 221.3 75.8" enable-background="new 0 0 221.3 75.8" xml:space="preserve">
    <line fill="none" stroke="#010202" stroke-width="0.459" stroke-linecap="round" stroke-linejoin="round" stroke-miterlimit="10" x1="15.9" y1="47.8" x2="206" y2="47.8" />
    <line fill="none" stroke="#010202" stroke-width="0.459" stroke-linecap="round" stroke-linejoin="round" stroke-miterlimit="10" x1="15.9" y1="42.9" x2="206" y2="42.9" />
    <line fill="none" stroke="#010202" stroke-width="0.459" stroke-linecap="round" stroke-linejoin="round" stroke-miterlimit="10" x1="15.9" y1="38" x2="206" y2="38" />
    <line fill="none" stroke="#010202" stroke-width="0.459" stroke-linecap="round" stroke-linejoin="round" stroke-miterlimit="10" x1="15.9" y1="33.1" x2="206" y2="33.1" />
    <line fill="none" stroke="#010202" stroke-width="0.459" stroke-linecap="round" stroke-linejoin="round" stroke-miterlimit="10" x1="15.9" y1="28.3" x2="206" y2="28.3" />
    <g>
        <path fill="#010202" d="M27.6,33.6c0.1-1.1-0.1-2.1-0.6-2.8c-0.4-0.7-1.2-1.1-2.2-1.1c-1.5,0-2.6,0.6-3.4,1.9
		c1-0.5,1.8-0.6,2.4-0.3c0.6,0.3,0.9,1,0.9,2c0,0.6-0.2,1.1-0.7,1.4c-0.5,0.3-0.9,0.4-1.5,0.4c-0.7,0-1.2-0.2-1.6-0.6
		c-0.4-0.4-0.6-0.9-0.6-1.6c0-1.5,0.5-2.5,1.6-3.1s2.2-0.8,3.4-0.8c1.5,0,2.8,0.5,3.7,1.4s1.4,2.1,1.4,3.5c0,1.5-0.3,2.8-1,4
		c-0.7,1.2-1.5,2.2-2.5,3.1s-2.1,1.6-3.3,2.3c-1.2,0.6-2.4,1.2-3.5,1.6c2.4-1.7,4.2-3.3,5.5-4.7C26.8,38.7,27.5,36.5,27.6,33.6z
		 M31.5,30.9c0-0.7,0.4-1,1.1-1c0.3,0,0.5,0.1,0.7,0.3c0.2,0.2,0.3,0.5,0.3,0.8c0,0.7-0.4,1.1-1.1,1.1C31.9,32,31.5,31.6,31.5,30.9z
		 M31.5,35.2c0-0.7,0.4-1.1,1.1-1.1c0.3,0,0.5,0.1,0.7,0.3c0.2,0.2,0.3,0.5,0.3,0.8c0,0.7-0.3,1.1-1,1.1
		C31.9,36.3,31.5,35.9,31.5,35.2z" />
    </g>
    <g>
        <path fill="#010202" d="M41.8,37.2v-0.6c0.3,0,0.6-0.1,0.7-0.2c0.2-0.2,0.3-0.5,0.3-0.9V35h-3.4v-0.6c0.6-0.7,1.1-1.5,1.5-2.2
		c0.3-0.8,0.6-1.8,0.7-3h2.9c-0.1,0.1-0.3,0.5-0.6,0.9c-0.2,0.2-0.3,0.5-0.5,0.7c-0.2,0.2-0.4,0.5-0.6,0.8c-0.2,0.3-0.5,0.5-0.7,0.8
		s-0.5,0.5-0.7,0.8c-0.3,0.3-0.5,0.5-0.7,0.7c-0.2,0.2-0.4,0.4-0.6,0.6h2.7v-1.7l2.1-2v3.7h1V35h-1v0.6c0,0.7,0.3,1.1,1,1.1v0.6
		H41.8z" />
    </g>
    <g>
        <path fill="#010202" d="M41.8,47v-0.6c0.3,0,0.6-0.1,0.7-0.2c0.2-0.2,0.3-0.5,0.3-0.9v-0.5h-3.4v-0.6c0.6-0.7,1.1-1.5,1.5-2.2
		c0.3-0.8,0.6-1.8,0.7-3h2.9c-0.1,0.1-0.3,0.5-0.6,0.9c-0.2,0.2-0.3,0.5-0.5,0.7c-0.2,0.2-0.4,0.5-0.6,0.8c-0.2,0.3-0.5,0.5-0.7,0.8
		s-0.5,0.5-0.7,0.8c-0.3,0.3-0.5,0.5-0.7,0.7c-0.2,0.2-0.4,0.4-0.6,0.6h2.7v-1.7l2.1-2v3.7h1v0.6h-1v0.6c0,0.7,0.3,1.1,1,1.1V47
		H41.8z" />
    </g>
    <g>
        <path fill="#010202" d="M63.3,43.6c0.7-0.5,1.5-0.8,2.2-0.8h0.1c0.7,0,1.3,0.2,1.7,0.7c0.2,0.3,0.4,0.7,0.4,1c0,0.2,0,0.5-0.1,0.7
		c-0.2,0.7-0.7,1.3-1.4,1.8c-0.7,0.5-1.5,0.7-2.2,0.8h-0.1c-0.7,0-1.3-0.2-1.7-0.7c-0.2-0.3-0.3-0.7-0.3-1.1c0-0.2,0-0.5,0.1-0.7
		C62.2,44.7,62.6,44.1,63.3,43.6z" />
    </g>
    <rect x="67.2" y="28.3" fill="#010202" width="0.5" height="16.3" />
    <g>
        <path fill="#010202" d="M85,26.5c0.7-0.5,1.5-0.8,2.2-0.8h0.1c0.7,0,1.3,0.2,1.7,0.7c0.2,0.3,0.4,0.7,0.4,1c0,0.2,0,0.5-0.1,0.7
		c-0.2,0.7-0.7,1.3-1.4,1.8c-0.7,0.5-1.5,0.7-2.2,0.8h-0.1c-0.7,0-1.3-0.2-1.7-0.7c-0.2-0.3-0.3-0.7-0.3-1.1c0-0.2,0-0.5,0.1-0.7
		C83.9,27.6,84.3,27,85,26.5z" />
    </g>
    <rect x="83.5" y="29.1" fill="#010202" width="0.5" height="16.3" />
    <line fill="none" stroke="#010202" stroke-width="0.803" stroke-linecap="round" stroke-linejoin="round" stroke-miterlimit="10" x1="103.7" y1="23.3" x2="112.6" y2="23.3" />
    <g>
        <path fill="#010202" d="M106.8,21.4c0.6-0.3,1.2-0.5,1.8-0.5c0.2,0,0.3,0,0.5,0c0.8,0.1,1.3,0.4,1.7,0.9c0.2,0.3,0.3,0.7,0.3,1
		c0,0.2,0,0.5-0.1,0.8c-0.2,0.7-0.7,1.2-1.4,1.7c-0.6,0.3-1.2,0.5-1.8,0.5c-0.2,0-0.3,0-0.4,0c-0.8-0.1-1.4-0.4-1.7-0.9
		c-0.2-0.3-0.3-0.7-0.3-1c0-0.3,0-0.5,0.1-0.8C105.6,22.3,106.1,21.8,106.8,21.4z M107.5,22.3c-0.9,0.5-1.5,1-1.7,1.4
		c-0.2,0.4-0.2,0.7,0,1c0.2,0.3,0.5,0.4,0.9,0.4c0.4,0,1.1-0.2,2.1-0.8c0.9-0.6,1.5-1,1.6-1.4s0.1-0.7,0-0.9
		c-0.2-0.3-0.5-0.4-0.9-0.4C109.1,21.5,108.5,21.7,107.5,22.3z" />
    </g>
    <rect x="105.2" y="24.2" fill="#010202" width="0.5" height="16.3" />
    <rect x="136.7" y="28.3" fill="#010202" width="0.5" height="19.5" />
    <line fill="none" stroke="#010202" stroke-width="0.803" stroke-linecap="round" stroke-linejoin="round" stroke-miterlimit="10" x1="144.2" y1="23.3" x2="153.1" y2="23.3" />
    <g>
        <path fill="#010202" d="M147.3,21.4c0.6-0.3,1.2-0.5,1.8-0.5c0.2,0,0.3,0,0.5,0c0.8,0.1,1.3,0.4,1.7,0.9c0.2,0.3,0.3,0.7,0.3,1
		c0,0.2,0,0.5-0.1,0.8c-0.2,0.7-0.7,1.2-1.4,1.7c-0.6,0.3-1.2,0.5-1.8,0.5c-0.2,0-0.3,0-0.4,0c-0.8-0.1-1.4-0.4-1.7-0.9
		c-0.2-0.3-0.3-0.7-0.3-1c0-0.3,0-0.5,0.1-0.8C146.1,22.3,146.6,21.8,147.3,21.4z M148.1,22.3c-0.9,0.5-1.5,1-1.7,1.4
		c-0.2,0.4-0.2,0.7,0,1c0.2,0.3,0.5,0.4,0.9,0.4c0.4,0,1.1-0.2,2.1-0.8c0.9-0.6,1.5-1,1.6-1.4s0.1-0.7,0-0.9
		c-0.2-0.3-0.5-0.4-0.9-0.4C149.6,21.5,149,21.7,148.1,22.3z" />
    </g>
    <g>
        <path fill="#010202" d="M140.8,25v-2.8l-0.9,0.2v-1.9l0.9-0.3v-3.8h0.6v3.7l1.4-0.3V16h0.6v3.7l1-0.2v1.9l-1,0.3v2.8l1-0.2v2
		l-1,0.2v3.7h-0.6v-3.5l-1.4,0.3v3.8h-0.6v-3.7l-0.9,0.2v-2L140.8,25z M142.8,24.6v-2.8l-1.4,0.3v2.8L142.8,24.6z" />
    </g>
    <rect x="145.7" y="24.2" fill="#010202" width="0.5" height="16.3" />
    <line fill="none" stroke="#010202" stroke-width="0.803" stroke-linecap="round" stroke-linejoin="round" stroke-miterlimit="10" x1="172.7" y1="23.3" x2="181.5" y2="23.3" />
    <g>
        <path fill="#010202" d="M175.8,21.4c0.6-0.3,1.2-0.5,1.8-0.5c0.2,0,0.3,0,0.5,0c0.8,0.1,1.3,0.4,1.7,0.9c0.2,0.3,0.3,0.7,0.3,1
		c0,0.2,0,0.5-0.1,0.8c-0.2,0.7-0.7,1.2-1.4,1.7c-0.6,0.3-1.2,0.5-1.8,0.5c-0.2,0-0.3,0-0.4,0c-0.8-0.1-1.4-0.4-1.7-0.9
		c-0.2-0.3-0.3-0.7-0.3-1c0-0.3,0-0.5,0.1-0.8C174.6,22.3,175,21.8,175.8,21.4z M176.5,22.3c-0.9,0.5-1.5,1-1.7,1.4
		c-0.2,0.4-0.2,0.7,0,1c0.2,0.3,0.5,0.4,0.9,0.4c0.4,0,1.1-0.2,2.1-0.8c0.9-0.6,1.5-1,1.6-1.4s0.1-0.7,0-0.9
		c-0.2-0.3-0.5-0.4-0.9-0.4C178.1,21.5,177.4,21.7,176.5,22.3z" />
    </g>
    <g>
        <path fill="#010202" d="M169.4,26.9V16.5h0.6v4l2.9-0.7v10.3h-0.6v-4L169.4,26.9z M170,22.4v2.5l2.3-0.6v-2.5L170,22.4z" />
    </g>
    <rect x="174.2" y="24.2" fill="#010202" width="0.5" height="16.3" />
    <rect x="205.7" y="28.3" fill="#010202" width="0.5" height="19.5" />
</svg>
