<?xml version="1.0" encoding="utf-8"?>
<!-- Generator: Adobe Illustrator 16.0.0, SVG Export Plug-In . SVG Version: 6.00 Build 0)  -->
<!DOCTYPE svg PUBLIC "-//W3C//DTD SVG 1.1//EN" "http://www.w3.org/Graphics/SVG/1.1/DTD/svg11.dtd">
<svg version="1.1" id="Ebene_1" xmlns="http://www.w3.org/2000/svg" xmlns:xlink="http://www.w3.org/1999/xlink" x="0px" y="0px"
	 width="137.3px" height="141.3px" viewBox="0 0 137.3 141.3" enable-background="new 0 0 137.3 141.3" xml:space="preserve">
<polygon fill-rule="evenodd" clip-rule="evenodd" fill="none" points="-10.9,0.1 152.4,0.1 152.4,144.6 -10.9,144.6 -10.9,0.1 "/>
<path fill-rule="evenodd" clip-rule="evenodd" fill="#007C3E" d="M70.7,64.6l35-45.1C96.1,12,84,7.6,70.8,7.6L70.7,64.6L70.7,64.6z"
	/>
<polygon fill-rule="evenodd" clip-rule="evenodd" fill="none" points="-11,144.6 152.3,144.6 152.3,0 -11,0 -11,144.6 "/>
<path fill-rule="evenodd" clip-rule="evenodd" fill="#E4171C" d="M70.7,64.6l44.4-35.9c-2.8-3.4-5.9-6.5-9.4-9.2L70.7,64.6
	L70.7,64.6z"/>
<polygon fill-rule="evenodd" clip-rule="evenodd" fill="none" points="-11,144.6 152.3,144.6 152.3,0 -11,0 -11,144.6 "/>
<path fill-rule="evenodd" clip-rule="evenodd" fill="#B7B7B7" d="M70.7,64.6l0-57c-31.7,0-57,25.4-57,57c0,31.7,25.3,57,57,57
	c31.7,0,57-25.3,57-57c0-13.7-4.7-26.1-12.6-35.9L70.7,64.6L70.7,64.6z"/>
<path fill="none" d="M70.7,64.6l0-57c-31.7,0-57,25.4-57,57c0,31.7,25.3,57,57,57c31.7,0,57-25.3,57-57c0-13.7-4.7-26.1-12.6-35.9
	L70.7,64.6L70.7,64.6z"/>
<g>
	<polygon fill-rule="evenodd" clip-rule="evenodd" fill="#007C3E" points="11.7,131.6 14.9,131.6 14.9,134.8 11.7,134.8 11.7,131.6 
			"/>
	<text transform="matrix(1 0 0 1 16.1724 135.1436)"><tspan x="0" y="0" fill="#5A5A5A" font-family="'HelveticaLTStd-Roman'" font-size="6">K</tspan><tspan x="3.3" y="0" fill="#5A5A5A" font-family="'HelveticaLTStd-Roman'" font-size="6">o</tspan><tspan x="6.6" y="0" fill="#5A5A5A" font-family="'HelveticaLTStd-Roman'" font-size="6">m</tspan><tspan x="11.5" y="0" fill="#5A5A5A" font-family="'HelveticaLTStd-Roman'" font-size="6">po</tspan><tspan x="18.3" y="0" fill="#5A5A5A" font-family="'HelveticaLTStd-Roman'" font-size="6">n</tspan><tspan x="21.6" y="0" fill="#5A5A5A" font-family="'HelveticaLTStd-Roman'" font-size="6">ie</tspan><tspan x="26" y="0" fill="#5A5A5A" font-family="'HelveticaLTStd-Roman'" font-size="6">rt</tspan></text>
	<polygon fill-rule="evenodd" clip-rule="evenodd" fill="#E4171C" points="54.9,131.6 58,131.6 58,134.8 54.9,134.8 54.9,131.6 	"/>
	<text transform="matrix(1 0 0 1 59.3628 135.1436)"><tspan x="0" y="0" fill="#5A5A5A" font-family="'HelveticaLTStd-Roman'" font-size="6">L</tspan><tspan x="2.9" y="0" fill="#5A5A5A" font-family="'HelveticaLTStd-Roman'" font-size="6">i</tspan><tspan x="4.2" y="0" fill="#5A5A5A" font-family="'HelveticaLTStd-Roman'" font-size="6">z</tspan><tspan x="6.8" y="0" fill="#5A5A5A" font-family="'HelveticaLTStd-Roman'" font-size="6">e</tspan><tspan x="9.8" y="0" fill="#5A5A5A" font-family="'HelveticaLTStd-Roman'" font-size="6">n</tspan><tspan x="13.1" y="0" fill="#5A5A5A" font-family="'HelveticaLTStd-Roman'" font-size="6">z</tspan><tspan x="15.7" y="0" fill="#5A5A5A" font-family="'HelveticaLTStd-Roman'" font-size="6">i</tspan><tspan x="17.1" y="0" fill="#5A5A5A" font-family="'HelveticaLTStd-Roman'" font-size="6">e</tspan><tspan x="20.1" y="0" fill="#5A5A5A" font-family="'HelveticaLTStd-Roman'" font-size="6">rt</tspan></text>
	<polygon fill-rule="evenodd" clip-rule="evenodd" fill="#B7B7B7" points="92.9,131.6 96.1,131.6 96.1,134.8 92.9,134.8 92.9,131.6 
			"/>
	<text transform="matrix(1 0 0 1 97.4438 135.1436)"><tspan x="0" y="0" fill="#5A5A5A" font-family="'HelveticaLTStd-Roman'" font-size="6">K</tspan><tspan x="3.3" y="0" fill="#5A5A5A" font-family="'HelveticaLTStd-Roman'" font-size="6">e</tspan><tspan x="6.3" y="0" fill="#5A5A5A" font-family="'HelveticaLTStd-Roman'" font-size="6">i</tspan><tspan x="7.6" y="0" fill="#5A5A5A" font-family="'HelveticaLTStd-Roman'" font-size="6">ne</tspan><tspan x="14" y="0" fill="#5A5A5A" font-family="'HelveticaLTStd-Roman'" font-size="6"> </tspan><tspan x="15.3" y="0" fill="#5A5A5A" font-family="'HelveticaLTStd-Roman'" font-size="6">M</tspan><tspan x="20.1" y="0" fill="#5A5A5A" font-family="'HelveticaLTStd-Roman'" font-size="6">u</tspan><tspan x="23.4" y="0" fill="#5A5A5A" font-family="'HelveticaLTStd-Roman'" font-size="6">s</tspan><tspan x="25.8" y="0" fill="#5A5A5A" font-family="'HelveticaLTStd-Roman'" font-size="6">i</tspan><tspan x="27.2" y="0" fill="#5A5A5A" font-family="'HelveticaLTStd-Roman'" font-size="6">k</tspan></text>
</g>
</svg>
