<svg version="1.1" id="Ebene_1" xmlns="http://www.w3.org/2000/svg" xmlns:xlink="http://www.w3.org/1999/xlink" x="0px" y="0px" width="100%" viewBox="0 0 137.3 141.3" enable-background="new 0 0 137.3 141.3" xml:space="preserve">
    <path fill-rule="evenodd" clip-rule="evenodd" fill="#007C3E" d="M70.7,64.6l35-45.1C96.1,12,84,7.6,70.8,7.6L70.7,64.6L70.7,64.6z" />
    <path fill-rule="evenodd" clip-rule="evenodd" fill="#E4171C" d="M70.7,64.6l44.4-35.9c-2.8-3.4-5.9-6.5-9.4-9.2L70.7,64.6
	L70.7,64.6z" />
    <path fill-rule="evenodd" clip-rule="evenodd" fill="#B7B7B7" d="M70.7,64.6l0-57c-31.7,0-57,25.4-57,57c0,31.7,25.3,57,57,57
	c31.7,0,57-25.3,57-57c0-13.7-4.7-26.1-12.6-35.9L70.7,64.6L70.7,64.6z" />
    <path fill="none" d="M70.7,64.6l0-57c-31.7,0-57,25.4-57,57c0,31.7,25.3,57,57,57c31.7,0,57-25.3,57-57c0-13.7-4.7-26.1-12.6-35.9
	L70.7,64.6L70.7,64.6z" />
    <g>
        <polygon fill-rule="evenodd" clip-rule="evenodd" fill="#007C3E" points="11.7,131.6 14.9,131.6 14.9,134.8 11.7,134.8 11.7,131.6
			" />
        <text transform="matrix(1 0 0 1 16.1724 135.1436)" fill="#5A5A5A" font-family="'HelveticaLTStd-Roman'" font-size="6">Komponiert</text>
        <polygon fill-rule="evenodd" clip-rule="evenodd" fill="#E4171C" points="54.9,131.6 58,131.6 58,134.8 54.9,134.8 54.9,131.6 	" />
        <text transform="matrix(1 0 0 1 59.3628 135.1436)" fill="#5A5A5A" font-family="'HelveticaLTStd-Roman'" font-size="6">Lizenziert</text>
        <polygon fill-rule="evenodd" clip-rule="evenodd" fill="#B7B7B7" points="92.9,131.6 96.1,131.6 96.1,134.8 92.9,134.8 92.9,131.6
			" />
        <text transform="matrix(1 0 0 1 97.4438 135.1436)" fill="#5A5A5A" font-family="'HelveticaLTStd-Roman'" font-size="6">Keine Musik</text>
    </g>
</svg>
