<svg version="1.1" xmlns="http://www.w3.org/2000/svg" xmlns:xlink="http://www.w3.org/1999/xlink" x="0px" y="0px" width="100%" viewBox="0 0 137.3 141.3" enable-background="new 0 0 137.3 141.3" xml:space="preserve">
    <polygon fill-rule="evenodd" clip-rule="evenodd" fill="none" points="-10.9,0.1 152.4,0.1 152.4,144.6 -10.9,144.6 -10.9,0.1 " />
    <g>
        <defs>
            <polygon id="SVGID_1_" points="-11,144.6 152.3,144.6 152.3,0 -11,0 -11,144.6 		" />
        </defs>
        <clipPath id="SVGID_2_">
            <use xlink:href="#SVGID_1_" overflow="visible" />
        </clipPath>
        <path clip-path="url(#SVGID_2_)" fill-rule="evenodd" clip-rule="evenodd" fill="#007B3D" d="M70.7,64.6l35-45.1
		C96.1,12,84,7.6,70.8,7.6L70.7,64.6L70.7,64.6z" />

        <path clip-path="url(#SVGID_2_)" fill="none" stroke="#FFFFFF" stroke-width="1.44" stroke-linejoin="round" stroke-miterlimit="10" d="
		M70.7,64.6l35-45.1C96.1,12,84,7.6,70.8,7.6L70.7,64.6L70.7,64.6z" />
    </g>
    <g>
        <defs>
            <polygon id="SVGID_3_" points="-11,144.6 152.3,144.6 152.3,0 -11,0 -11,144.6 		" />
        </defs>
        <clipPath id="SVGID_4_">
            <use xlink:href="#SVGID_3_" overflow="visible" />
        </clipPath>
        <path clip-path="url(#SVGID_4_)" fill-rule="evenodd" clip-rule="evenodd" fill="#BE1823" d="M70.7,64.6l44.4-35.9
		c-2.8-3.4-5.9-6.5-9.4-9.2L70.7,64.6L70.7,64.6z" />

        <path clip-path="url(#SVGID_4_)" fill="none" stroke="#FFFFFF" stroke-width="1.44" stroke-linejoin="round" stroke-miterlimit="10" d="
		M70.7,64.6l44.4-35.9c-2.8-3.4-5.9-6.5-9.4-9.2L70.7,64.6L70.7,64.6z" />
    </g>
    <g>
        <defs>
            <polygon id="SVGID_5_" points="-11,144.6 152.3,144.6 152.3,0 -11,0 -11,144.6 		" />
        </defs>
        <clipPath id="SVGID_6_">
            <use xlink:href="#SVGID_5_" overflow="visible" />
        </clipPath>
        <path clip-path="url(#SVGID_6_)" fill-rule="evenodd" clip-rule="evenodd" fill="#b7b7b7" d="M70.7,64.6l0-57
		c-31.7,0-57,25.4-57,57c0,31.7,25.3,57,57,57c31.7,0,57-25.3,57-57c0-13.7-4.7-26.1-12.6-35.9L70.7,64.6L70.7,64.6z" />

        <path clip-path="url(#SVGID_6_)" fill="none" stroke="#FFFFFF" stroke-width="1.44" stroke-linejoin="round" stroke-miterlimit="10" d="
		M70.7,64.6l0-57c-31.7,0-57,25.4-57,57c0,31.7,25.3,57,57,57c31.7,0,57-25.3,57-57c0-13.7-4.7-26.1-12.6-35.9L70.7,64.6L70.7,64.6z
		" />
    </g>
    <polygon fill="none" stroke="#878787" stroke-width="0.5" stroke-linejoin="round" stroke-miterlimit="10" points="-10.9,0.1 
	152.4,0.1 152.4,144.6 -10.9,144.6 -10.9,0.1 " />
    <g>
        <polygon fill-rule="evenodd" clip-rule="evenodd" fill="#0B6730" points="11.7,131.6 14.9,131.6 14.9,134.8 11.7,134.8 11.7,131.6 
			" />
        <text transform="matrix(1 0 0 1 16.1724 135.144)">
            <tspan x="0" y="0" fill="#5A5A5A">K</tspan>
            <tspan x="3.3" y="0" fill="#5A5A5A">o</tspan>
            <tspan x="6.6" y="0" fill="#5A5A5A">m</tspan>
            <tspan x="11.5" y="0" fill="#5A5A5A">po</tspan>
            <tspan x="18.3" y="0" fill="#5A5A5A">n</tspan>
            <tspan x="21.6" y="0" fill="#5A5A5A">ie</tspan>
            <tspan x="26" y="0" fill="#5A5A5A">rt</tspan>
        </text>
        <polygon fill-rule="evenodd" clip-rule="evenodd" fill="#BE1823" points="54.9,131.6 58,131.6 58,134.8 54.9,134.8 54.9,131.6 	" />
        <text transform="matrix(1 0 0 1 59.3628 135.144)">
            <tspan x="0" y="0" fill="#5A5A5A">L</tspan>
            <tspan x="2.9" y="0" fill="#5A5A5A">i</tspan>
            <tspan x="4.2" y="0" fill="#5A5A5A">z</tspan>
            <tspan x="6.8" y="0" fill="#5A5A5A">e</tspan>
            <tspan x="9.8" y="0" fill="#5A5A5A">n</tspan>
            <tspan x="13.1" y="0" fill="#5A5A5A">z</tspan>
            <tspan x="15.7" y="0" fill="#5A5A5A">i</tspan>
            <tspan x="17.1" y="0" fill="#5A5A5A">e</tspan>
            <tspan x="20.1" y="0" fill="#5A5A5A">rt</tspan>
        </text>
        <polygon fill-rule="evenodd" clip-rule="evenodd" fill="#DADADA" points="92.9,131.6 96.1,131.6 96.1,134.8 92.9,134.8 92.9,131.6 
			" />
        <text transform="matrix(1 0 0 1 97.4438 135.144)">
            <tspan x="0" y="0" fill="#5A5A5A">K</tspan>
            <tspan x="3.3" y="0" fill="#5A5A5A">e</tspan>
            <tspan x="6.3" y="0" fill="#5A5A5A">i</tspan>
            <tspan x="7.6" y="0" fill="#5A5A5A">ne</tspan>
            <tspan x="14" y="0" fill="#5A5A5A"> </tspan>
            <tspan x="15.3" y="0" fill="#5A5A5A">M</tspan>
            <tspan x="20.1" y="0" fill="#5A5A5A">u</tspan>
            <tspan x="23.4" y="0" fill="#5A5A5A">s</tspan>
            <tspan x="25.8" y="0" fill="#5A5A5A">i</tspan>
            <tspan x="27.2" y="0" fill="#5A5A5A">k</tspan>
        </text>
    </g>
</svg>