<svg version="1.1" xmlns="http://www.w3.org/2000/svg" xmlns:xlink="http://www.w3.org/1999/xlink" x="0px" y="0px" width="100%" viewBox="0 0 385.2 164" enable-background="new 0 0 385.2 164" xml:space="preserve">

    <rect class="dark" x="65.3" y="16.8" width="312.5" height="41" />
    <rect class="medium" x="65.3" y="61.3" width="312.5" height="41" />
    <rect class="bright" x="65.3" y="105.8" width="312.5" height="41" />
    <rect x="227.2" y="20.3" fill="#06662F" width="136.1" height="34" />
    <rect x="227.2" y="64.8" fill="#06662F" width="136.1" height="34" />
    <rect x="79.8" y="109.3" fill="#BE1823" width="136.1" height="34" />
    <g>
        <g>
            <g>
                <g>
                    <g>
                        <g>
                            <rect x="214.1" y="6" fill="none" width="15" height="13.8" />
                        </g>
                        <rect x="220.6" y="16.2" fill-rule="evenodd" clip-rule="evenodd" width="1.5" height="2.6" />
                        <rect x="220.6" y="11.6" fill-rule="evenodd" clip-rule="evenodd" width="1.5" height="2.6" />
                        <rect x="220.6" y="7" fill-rule="evenodd" clip-rule="evenodd" width="1.5" height="2.6" />
                    </g>
                </g>
                <g>
                    <g>
                        <g>
                            <rect x="214.1" y="19.8" fill="none" width="15" height="13.8" />
                        </g>
                        <rect x="220.6" y="30" fill-rule="evenodd" clip-rule="evenodd" width="1.5" height="2.6" />
                        <rect x="220.6" y="25.4" fill-rule="evenodd" clip-rule="evenodd" width="1.5" height="2.6" />
                        <rect x="220.6" y="20.8" fill-rule="evenodd" clip-rule="evenodd" width="1.5" height="2.6" />
                    </g>
                </g>
                <g>
                    <g>
                        <g>
                            <rect x="214.1" y="33.6" fill="none" width="15" height="13.8" />
                        </g>
                        <rect x="220.6" y="43.8" fill-rule="evenodd" clip-rule="evenodd" width="1.5" height="2.6" />
                        <rect x="220.6" y="39.2" fill-rule="evenodd" clip-rule="evenodd" width="1.5" height="2.6" />
                        <rect x="220.6" y="34.6" fill-rule="evenodd" clip-rule="evenodd" width="1.5" height="2.6" />
                    </g>
                </g>
                <g>
                    <g>
                        <g>
                            <rect x="214.1" y="47.3" fill="none" width="15" height="13.8" />
                        </g>
                        <rect x="220.6" y="57.6" fill-rule="evenodd" clip-rule="evenodd" width="1.5" height="2.6" />
                        <rect x="220.6" y="53" fill-rule="evenodd" clip-rule="evenodd" width="1.5" height="2.6" />
                        <rect x="220.6" y="48.4" fill-rule="evenodd" clip-rule="evenodd" width="1.5" height="2.6" />
                    </g>
                </g>
                <g>
                    <g>
                        <g>
                            <rect x="214.1" y="61.1" fill="none" width="15" height="13.8" />
                        </g>
                        <rect x="220.6" y="71.3" fill-rule="evenodd" clip-rule="evenodd" width="1.5" height="2.6" />
                        <rect x="220.6" y="66.7" fill-rule="evenodd" clip-rule="evenodd" width="1.5" height="2.6" />
                        <rect x="220.6" y="62.2" fill-rule="evenodd" clip-rule="evenodd" width="1.5" height="2.6" />
                    </g>
                </g>
                <g>
                    <g>
                        <g>
                            <rect x="214.1" y="74.9" fill="none" width="15" height="13.8" />
                        </g>
                        <rect x="220.6" y="85.1" fill-rule="evenodd" clip-rule="evenodd" width="1.5" height="2.6" />
                        <rect x="220.6" y="80.5" fill-rule="evenodd" clip-rule="evenodd" width="1.5" height="2.6" />
                        <rect x="220.6" y="76" fill-rule="evenodd" clip-rule="evenodd" width="1.5" height="2.6" />
                    </g>
                </g>
                <g>
                    <g>
                        <g>
                            <rect x="214.1" y="88.7" fill="none" width="15" height="13.8" />
                        </g>
                        <rect x="220.6" y="98.9" fill-rule="evenodd" clip-rule="evenodd" width="1.5" height="2.6" />
                        <rect x="220.6" y="94.3" fill-rule="evenodd" clip-rule="evenodd" width="1.5" height="2.6" />
                        <rect x="220.6" y="89.7" fill-rule="evenodd" clip-rule="evenodd" width="1.5" height="2.6" />
                    </g>
                </g>
                <g>
                    <g>
                        <g>
                            <rect x="214.1" y="102.5" fill="none" width="15" height="13.8" />
                        </g>
                        <rect x="220.6" y="112.7" fill-rule="evenodd" clip-rule="evenodd" width="1.5" height="2.6" />
                        <rect x="220.6" y="108.1" fill-rule="evenodd" clip-rule="evenodd" width="1.5" height="2.6" />
                        <rect x="220.6" y="103.5" fill-rule="evenodd" clip-rule="evenodd" width="1.5" height="2.6" />
                    </g>
                </g>
                <g>
                    <g>
                        <g>
                            <rect x="214.1" y="116.3" fill="none" width="15" height="13.8" />
                        </g>
                        <rect x="220.6" y="126.5" fill-rule="evenodd" clip-rule="evenodd" width="1.5" height="2.6" />
                        <rect x="220.6" y="121.9" fill-rule="evenodd" clip-rule="evenodd" width="1.5" height="2.6" />
                        <rect x="220.6" y="117.3" fill-rule="evenodd" clip-rule="evenodd" width="1.5" height="2.6" />
                    </g>
                </g>
                <g>
                    <g>
                        <g>
                            <rect x="214.1" y="130" fill="none" width="15" height="13.8" />
                        </g>
                        <rect x="220.6" y="140.2" fill-rule="evenodd" clip-rule="evenodd" width="1.5" height="2.6" />
                        <rect x="220.6" y="135.7" fill-rule="evenodd" clip-rule="evenodd" width="1.5" height="2.6" />
                        <rect x="220.6" y="131.1" fill-rule="evenodd" clip-rule="evenodd" width="1.5" height="2.6" />
                    </g>
                </g>
                <g>
                    <g>
                        <g>
                            <rect x="214.1" y="143.8" fill="none" width="15" height="13.8" />
                        </g>
                        <rect x="220.6" y="154" fill-rule="evenodd" clip-rule="evenodd" width="1.5" height="2.6" />
                        <rect x="220.6" y="149.4" fill-rule="evenodd" clip-rule="evenodd" width="1.5" height="2.6" />
                        <rect x="220.6" y="144.9" fill-rule="evenodd" clip-rule="evenodd" width="1.5" height="2.6" />
                    </g>
                </g>
            </g>
        </g>
    </g>
    <rect x="79.8" y="64.8" fill="#BE1823" width="136.1" height="34" />
                    <text transform="matrix(1 0 0 1 675.5234 72.1665)">
        <tspan class="bold" x="0" y="0">Filmusik</tspan>
        <tspan class="bold" x="-23.8" y="9.6">syntaktische Funktionen</tspan>
    </text>
    <text transform="matrix(1 0 0 1 9.4683 37.3022)">
        <tspan class="bold" x="0" y="0">Musikalischer</tspan>
        <tspan class="bold" x="8.7" y="9.6">Rahmen</tspan>
    </text>
    <text transform="matrix(1 0 0 1 14.6831 74.314)">
        <tspan class="bold" x="0" y="0">Filmmusik</tspan>
        <tspan class="bold" x="-8.9" y="9.6">im eigentlichen</tspan>
        <tspan class="bold" x="7.7" y="19.2">Sinne</tspan>
    </text>
    <text transform="matrix(1 0 0 1 19.7617 128.4565)"><tspan class="bold">Diegese</tspan></text>
    <text transform="matrix(1 0 0 1 126.3271 78.8335)">
        <tspan class="bold" x="0" y="0" fill="#FFFFFF">Filmmusik</tspan>
        <tspan x="-20.8" y="9.6" fill="#FFFFFF">syntaktische Funktionen</tspan>
    </text>
    <text transform="matrix(1 0 0 1 247.2803 29.917)">
        <tspan class="bold" x="0" y="0" fill="#FFFFFF">Titel- und Abspannmusik</tspan>
        <tspan x="20.1" y="9.6" fill="#FFFFFF">tektonische und </tspan>
        <tspan x="1" y="19.2" fill="#FFFFFF">mediatisierende Funktionen</tspan>
    </text>
    <text transform="matrix(1 0 0 1 279.3696 78.8335)">
        <tspan class="bold" x="0" y="0" fill="#FFFFFF">Filmmusik</tspan>
        <tspan x="-21" y="9.6" fill="#FFFFFF">semantische Funktionen</tspan>
    </text>
    <text transform="matrix(1 0 0 1 112.9087 123)">
        <tspan class="bold" x="0" y="0" fill="#FFFFFF">Diegetische Musik</tspan>
        <tspan x="-6" y="9.6" fill="#FFFFFF">semantische Funktionen</tspan>
    </text>
</svg>