<svg xmlns:xlink="http://www.w3.org/1999/xlink" version="1.1" id="waves-dlz" xmlns="http://www.w3.org/2000/svg" x="0px" y="0px" width="100%" viewBox="0 0 367.9 123" enable-background="new 0 0 367.9 123" xml:space="preserve">
    <g xmlns="http://www.w3.org/2000/svg">
        <path class="primary-color" fill-rule="evenodd" clip-rule="evenodd" d="M367.9,55.5c-0.7,0.9-1,1.9-2.3,2.4c-0.8,0.3-1.1,2.2-1.5,3.4   c-0.2,0.6-0.2,1.3-0.3,1.9c-0.4-0.3-0.8-0.6-1.1-0.8c-2.2,3.6-1.3,7.5-1.8,11.3c-0.3,2.8-1,5.6-1.5,8.6c-1.5-2.6-0.6-5.4-1.2-8.2   c-0.2,1.1-0.3,2.1-0.5,3c-0.1,0-0.2,0-0.3,0c-0.1-1.2-0.3-2.4-0.4-3.5c-0.1,0-0.2,0-0.3,0c-0.2,1.6-0.4,3.2-0.6,4.8   c-0.1,0-0.2,0-0.3,0c-0.4-2.2-0.8-4.5-1.2-6.7c-0.3,0.6-0.6,1.3-1,2.2c-0.2-0.5-0.3-0.9-0.4-1.3c-0.2,0-0.4,0-0.5,0   c-0.2,2.8-0.4,5.5-0.6,8.3c-0.1,2.2-0.2,4.5-0.3,7.1c-0.4-0.6-0.5-0.9-0.8-1.4c-0.2,0.6-0.4,1.1-0.5,1.6c-0.6-1.7-1.1-3.4-1.8-5.2   c-0.2,0.3-0.4,0.6-0.7,1.1c-0.2-0.8-0.4-1.3-0.6-2.1c-0.2,1.2-0.3,2.1-0.5,3.5c-0.8-2.3-1.5-4.1-2.1-5.9c-0.1,0.5-0.3,1.1-0.5,1.7   c-0.4-0.1-0.8-0.1-1.2-0.2c-0.1-1-0.3-1.9-0.4-2.9c-0.1,0-0.1,0-0.2,0c-0.1,0.5-0.2,1-0.4,1.7c-0.7-0.3-1.4-0.5-2.2-0.8   c0,0.1-0.2,0.5-0.5,1.1c-0.6-1-1.1-1.8-1.6-2.6c-0.1,0.5-0.3,1-0.5,1.8c-0.3-0.7-0.5-1.1-0.7-1.6c-0.1,0.7-0.3,1.4-0.4,2   c-0.1,0-0.1,0-0.2,0c-0.1-0.9-0.2-1.8-0.3-2.7c-0.8,0.6-1.4,1-2.1,1.5c-0.1-1.1-0.2-2.4-0.4-3.6c-0.1,0-0.2,0-0.3,0   c-0.1,0.5-0.2,1-0.3,1.6c-0.3-0.1-0.5-0.2-0.8-0.4c-0.1,0.4-0.3,0.8-0.3,1.1c-0.6-0.6-1.2-1.3-2.1-2.1c-0.2,0.9-0.2,1.5-0.4,2.4   c-0.2-0.5-0.3-0.7-0.3-1c-0.1,0-0.2,0-0.2,0.1c-0.2,1.1-0.3,2.3-0.5,3.4c-0.1,0-0.2,0-0.3,0c-0.1-1.6-0.2-3.1-0.4-4.6   c-0.6-0.5-1.1-0.9-1.7-1.3c-0.2,0.5-0.5,1.2-0.7,1.9c-0.3-0.8-0.6-1.4-0.8-2c-0.6,0.3-1.1,0.6-1.7,0.9c-0.1-0.2-0.2-0.5-0.5-1   c-0.7,0.7-1.3,1.3-1.8,1.9c-0.3-1-0.7-2-1.1-3.2c-0.1,0.5-0.1,0.9-0.2,1.2c-1.2-0.3-2.4-0.7-2.3-2.4c-0.6,1.3-1.2,2.7-1.8,3.9   c-0.3-1.8-0.7-3.8-1.1-5.8c-0.1,0-0.1,0-0.2,0c-0.1,1-0.2,1.9-0.3,3c-0.7-1.1-2.3-1.5-3.2-0.8c-0.2-0.5-0.3-0.9-0.5-1.3   c-0.1,0.1-0.1,0.2-0.2,0.3c-0.4-0.1-0.8-0.3-1.3-0.5c-0.2,0.1-0.5,0.3-0.9,0.6c-0.4-0.5-0.8-0.9-1.2-1.5c-0.2,0.4-0.4,0.6-0.5,0.9   c-0.1,0-0.2-0.1-0.2-0.1c-0.3-0.8-0.6-1.5-1-2.4c-0.2,0.4-0.4,0.9-0.7,1.1c-0.4,0.2-0.9,0.2-1.3,0.3c-0.3,0-0.7-0.1-1-0.1   c0,0.2-0.1,0.3-0.1,0.5c-0.9-1-1.7-2-2.6-3c-0.1,0.4-0.2,0.9-0.4,1.7c-0.2-0.7-0.4-1.1-0.6-1.6c-0.2,0.4-0.4,0.8-0.6,1.3   c-0.3-0.5-0.5-0.9-0.7-1.4c-0.2,0.2-0.3,0.4-0.5,0.7c-0.2-0.8-0.3-1.5-0.4-2.2c-0.1,0-0.2,0-0.3,0c-0.1,0.6-0.2,1.2-0.3,1.8   c-1.3,0-1.3,0-2-2.9c-0.3,3.6-0.5,7-0.8,10.4c-0.1,0-0.3,0-0.4,0c-0.2-0.3-0.4-0.6-0.6-1c-0.1,0.3-0.2,0.5-0.3,0.7   c-0.1,0-0.1,0-0.2,0c-0.1-2.3-0.2-4.6-0.4-6.9c-0.1,0-0.2,0-0.4,0c0,3.2,0,6.4,0,9.6c-0.2,0-0.3,0-0.5,0.1   c-0.3-1.3-0.8-2.5-0.9-3.8c-0.2-2.3-0.2-4.7-0.4-7c0-0.6-0.4-1.1-0.7-1.6c-0.1,0-0.3,0.1-0.4,0.1c-0.3,0.9-0.7,1.9-1.1,3   c-0.6-0.9-0.9-1.6-1.5-2.5c-0.2,1-0.3,1.6-0.5,2.3c-0.3-0.5-0.5-0.9-0.9-1.5c-0.6,0.4-1.2,0.8-1.7,1.3c-0.2-0.7-0.4-1.5-0.7-2.4   c0.2,0.2,0.5,0.5,0.7,0.7c-0.7,0.4-1.5,0.7-2.3,1.1c-0.7-0.5-1.2-0.9-1.8-1.3c-0.3,0.2-0.7,0.5-1,0.5c-1.1,0.1-1.3,1.1-1.6,1.7   c-0.6,1-0.8,0.5-1.2,0.1c-0.2-0.2-0.6-0.3-0.9-0.4c-0.2,0.4-0.3,0.9-0.6,1.6c-0.4-0.7-0.6-1.1-1.1-1.9c-0.5,0.7-1,1.3-1.5,1.9   c-0.2-0.7-0.4-1.4-0.6-2c-2-0.6-1.1,1.3-1.7,2.1c-0.1-1.6-0.2-3.1-0.4-4.9c-0.5,1.7-0.9,3.1-1.3,4.4c-0.2,0-0.4,0-0.8,0.1   c-0.1-0.8-0.2-1.6-0.3-2.4c-0.1,0-0.2,0-0.4,0c-0.1,0.9-0.2,1.8-0.3,2.9c-0.3-0.6-0.5-1-0.7-1.5c-0.2,0.1-0.5,0.3-0.7,0.4   c-0.1-0.7-0.2-1.3-0.3-2.1c-0.3,0.3-0.5,0.5-0.8,0.7c-0.2-0.4-0.4-0.7-0.5-0.8c-0.7,0.2-1.3,0.3-2,0.5c-0.1-0.4-0.2-0.9-0.3-1.5   c-0.7,0.4-1.4,0.8-2.3,1.4c-0.4-0.8-0.9-1.7-1.4-2.6c-0.2,1.7-0.3,3.5-0.6,5.6c-0.8-1.1-1.5-1.9-2.2-2.8c0,0-0.1,0.3-0.4,0.8   c-0.2-1.4-0.3-2.5-0.5-3.6c0,0-0.1,0-0.1,0c-0.1,1.5-0.2,3-0.3,4.4c-0.1,0-0.2,0.1-0.3,0.1c-0.2-0.5-0.4-1.1-0.6-1.8   c-0.2,0.4-0.4,0.6-0.6,1.1c-0.1-1.4-0.3-2.6-0.4-3.8c0,0-0.1,0-0.1,0c-0.1,1.3-0.3,2.5-0.4,4.1c-0.5-1.2-1-2.2-1.4-3.3   c-0.1,0-0.3,0-0.4,0c-0.2,0.6-0.4,1.2-0.6,1.8c-0.8,0.2-1.9-0.9-2.7,0.8c-0.2-1.2-0.4-2-0.5-3.1c-0.2,0.4-0.4,0.6-0.6,1   c-0.2-0.9-0.3-1.7-0.5-2.9c-0.3,0.7-0.4,1.1-0.6,1.8c-0.2-0.6-0.4-1-0.7-1.5c-0.1,0.6-0.3,1.1-0.5,1.9c-0.2-0.8-0.4-1.3-0.6-1.9   c-0.2,0.6-0.4,1.1-0.5,1.6c-0.4-0.6-0.7-1.6-1.1-1.7c-1.5-0.1-0.9,1.4-1.5,2.4c-0.1-0.9-0.3-1.7-0.4-2.4c-0.1,0-0.1,0-0.2,0   c-0.2,0.8-0.3,1.5-0.5,2.3c-0.1,0-0.1,0-0.2,0c-0.1-0.7-0.3-1.5-0.5-2.7c-0.2,1.4-0.3,2.3-0.5,3.3c-0.1,0-0.2,0-0.2,0   c-0.2-0.7-0.3-1.4-0.5-2.2c-0.2,0.4-0.3,0.7-0.6,1.2c-0.2-0.5-0.3-0.8-0.5-1.4c-0.2,0.9-0.4,1.5-0.7,2.5c-0.3-0.7-0.4-1.1-0.6-1.6   c-0.1,0.4-0.1,0.7-0.2,1.1c-0.3-0.4-0.5-0.7-0.9-1.1c-0.2,1-0.4,1.8-0.6,2.9c-0.4-1.3-0.7-2.5-1-3.6c-0.1,0-0.2,0-0.3,0   c-0.1,0.7-0.3,1.4-0.4,2.3c-0.3-0.5-0.5-0.8-0.8-1.3c-0.2,0.4-0.3,0.7-0.4,1c-0.5-0.3-1-0.6-1.5-0.9c0,0.2-0.1,0.6-0.2,1.2   c-0.3-0.7-0.5-1.2-0.8-1.9c-0.1,1.1-0.3,1.9-0.4,2.8c-0.1,0-0.1,0-0.2,0c-0.1-1-0.3-1.9-0.4-2.9c-0.1,0-0.2,0-0.3,0   c-0.1,1.2-0.2,2.3-0.3,3.5c-0.1,0-0.1,0-0.2,0c-0.1-0.3-0.2-0.6-0.3-1.1c-0.2,0.6-0.3,1-0.6,1.8c-0.2-1-0.4-1.8-0.5-2.5   c-0.1,0-0.2,0-0.4-0.1c-0.2,0.8-0.3,1.7-0.5,2.5c-0.3-0.5-0.6-1-0.9-1.5c-0.3,0.3-0.6,0.6-1,0.9c-0.2-0.2-0.5-0.5-0.7-0.6   c-0.4,0.2-0.7,0.4-1.1,0.6c-0.2-0.7-0.4-1.4-0.7-2.4c-0.1,1.3-0.3,2.2-0.4,3.2c-0.1,0-0.2,0-0.2,0c-0.2-1-0.3-2.1-0.5-3.5   c-0.2,0.8-0.4,1.1-0.6,1.9c-0.2-1.3-0.3-2.1-0.4-3c-0.1,0-0.2,0-0.3,0c-0.1,1.6-0.2,3.1-0.3,4.7c-0.1,0-0.2,0-0.2,0   c-0.1-0.8-0.3-1.5-0.4-2.4c-0.2,0.7-0.4,1.3-0.6,2.2c-0.2-0.9-0.4-1.5-0.5-2c-0.1,0-0.2,0-0.2,0c-0.1,1.3-0.2,2.6-0.3,4   c-0.1,0-0.1,0-0.2,0c-0.1-1.2-0.2-2.3-0.3-3.5c-0.1,0-0.2,0-0.3,0c-0.1,0.8-0.2,1.5-0.3,2.4c-0.7-0.1,0.2-2.1-1.2-1.3   c-0.7-0.6-1.4-1.3-2.2-2c-0.1,1-0.2,2-0.2,3c-0.1,0-0.2,0-0.3,0c-0.1-1.4-0.3-2.8-0.4-4.3c-0.1,0-0.2,0-0.2,0   c-0.1,1-0.2,2.1-0.3,3.1c-0.1,0-0.1,0-0.2,0c-0.1-0.9-0.3-1.9-0.4-2.8c-0.1,0-0.2,0-0.3,0c-0.1,1.2-0.2,2.5-0.4,3.7   c-0.1,0-0.1,0-0.2,0c-0.1-0.6-0.3-1.2-0.5-2c-0.1,0.5-0.2,0.9-0.4,1.6c-0.3-1.1-0.5-1.9-0.7-2.6c-0.1,0-0.2,0-0.4,0   c-0.1,0.7-0.2,1.4-0.3,2.1c-0.6-1.1-1.3-2.1-2-3.4c-0.1,1.3-0.2,2.5-0.3,3.7c-0.6-1.3-1.3-2.5-2-4c-0.2,0.5-0.4,0.8-0.5,1.2   c-0.6-1.4-1.2-2.6-1.8-4c-0.2,6.6-0.5,13.2-0.7,19.8c-0.1,0-0.1,0-0.2,0c-0.3-8.1-0.7-16.3-1-24.4c-0.2,0-0.3,0-0.5-0.1   c-1,1.8-0.4,4.1-1.3,6c-0.1-2-0.3-4-0.4-6.3c-1.5,1.3-0.7,3-1.7,4.5c-0.1-1.4-0.3-2.5-0.4-3.9c-0.2,0.9-0.4,1.4-0.6,2.1   c-0.2-0.4-0.3-0.6-0.5-1c-0.5,0.5-1,1-1.4,1.5c-0.2-0.4-0.4-1-0.6-1.6c-0.1,0-0.2,0-0.3,0.1c-0.1,2.2-0.3,4.5-0.4,7.2   c-0.9-3,0.1-5.8-1.3-8.6c-1.6,1.6-0.9,3.4-1.6,5.3c-0.2-1.9-0.4-3.5-0.6-5.3c-1.1,0.3-2,0.6-2.9,0.8c-0.1,0-0.3,0.1-0.4,0   c-0.9-1.2-2.1-0.3-3.2-0.4c-1.1-0.2-2.3,0.1-3.4,0.1c-0.9,0-1.8-0.1-2.7-0.1c-1.1-0.1-1.4,0.6-1.4,1.5c-0.1,1.8-0.2,3.6-0.6,5.4   c-0.1-2.3-0.3-4.5-0.4-6.8c-3.5,0-7,0-10.5,0c-0.2,0.4-0.3,0.9-0.5,1.5c-0.2-0.5-0.4-0.8-0.5-1.1c-0.6,0-1.2-0.1-2-0.1   c-0.1,0.5-0.3,1.2-0.5,2.1c-0.5-0.9-0.8-1.6-1-2c-0.8-0.3-1.2-0.6-1.7-0.6c-0.9-0.1-1.7,0.1-2.6,0c-1.4,0-1.1,1.1-1.2,1.9   c-0.4,3.6-0.7,7.2-1.1,10.8c0,0.5-0.1,1-0.3,1.5c-0.1-1.2-0.2-2.5-0.2-3.7c-0.1-2.7-0.3-5.5-0.4-8.2c-0.1-2.6-0.1-2.6-2.9-2.3   c-0.1,1.9-0.3,3.9-0.4,5.9c-0.1,0-0.2,0-0.3,0c-0.1-2-0.3-3.9-0.4-5.9c-2.1-0.2-2.2-0.1-2.3,1.9c-0.1,1.2,0,2.4-0.3,3.6   c-0.2,0.8-0.8,1.4-1.6,2.1c-0.3-1.8-0.6-3.6-0.9-5.6c-0.5,1.9-1,3.6-1.5,5.3c-0.1,0-0.2,0-0.3,0c-0.1-0.8-0.3-1.5-0.4-2.4   c-0.2,1.3-0.5,2.6-0.7,3.9c-0.2,0-0.3,0-0.5,0c-0.2-2.6-0.5-5.2-0.7-7.8c-0.1,0-0.2,0-0.3,0c-0.4,3.2-0.9,6.4-1.3,9.5   c-0.1,0-0.1,0-0.2,0c-0.2-3.2-0.4-6.4-0.6-9.6c0,0-0.1,0-0.1,0c-0.3,1.3-0.6,2.7-0.9,4c-0.1,0-0.3,0-0.4,0c-0.2-0.6-0.3-1.2-0.5-2   c-0.5,3.2-1,6.1-1.5,9.1c-1.1-4,0.2-8.2-2.1-12.4c-0.5,3.2-0.9,6.1-1.3,9c-0.1,0-0.2,0-0.3,0c-0.1-1.4-0.3-2.8-0.4-4.2   c-0.1,0-0.1,0-0.2,0c-0.1,0.5-0.3,1.1-0.4,1.6c-0.1,0-0.2,0-0.3,0c-0.2-1.9-0.4-3.7-0.6-5.6c-0.1,0-0.2,0-0.3-0.1   c-0.3,1.4-0.5,2.8-0.8,4.2c-0.1,0-0.2,0-0.2,0c-0.1-0.7-0.3-1.3-0.5-2.4c-0.2,0.9-0.4,1.4-0.5,2c-0.1,0.6-0.1,1.2-0.3,1.8   c-0.1,0.4-0.5,0.8-0.8,1.2c-0.1-0.1-0.3-0.1-0.4-0.2c-0.1-1.8-0.2-3.6-0.3-5.3c0-1.2-0.3-1.8-1.7-1.6c-1.4,0.2-2.8,0-4.3,0   c-1.9,0-2.3,0.4-2.3,2.2c-0.1,1.7-0.2,3.4-0.6,5.1c-0.2-0.8-0.4-1.6-0.6-2.6c-0.2,0.5-0.3,0.8-0.4,1.3c-0.2-0.7-0.4-1.2-0.6-2   c-0.2,1-0.4,1.7-0.5,2.4c-0.1,0-0.1,0-0.2,0c-0.1-0.7-0.3-1.4-0.4-2.1c-0.4,0.8-0.8,1.5-1.3,2.3c-0.1,0-0.3,0-0.4-0.1   c-0.5-2.1-0.9-4.2-1.3-6c-0.9,1.9-1.9,3.9-3,6c-0.2-0.2-0.4-0.4-0.6-0.6c-0.2,0.6-0.4,1.2-0.7,2c-0.2-0.8-0.3-1.4-0.4-1.9   c-0.1,0-0.1,0-0.2,0c-0.1,0.6-0.1,1.3-0.2,1.9c-0.1,0-0.3,0-0.4,0c-0.2-1.7-0.4-3.5-0.5-5.2c-0.1,0-0.2,0-0.2-0.1   c-0.2,1.6-0.5,3.2-0.7,4.7c-0.2,0-0.4,0-0.6,0c-0.2-2.4-0.4-4.8-0.6-7.2c-0.4,0-0.8-0.1-1.4-0.1c-0.4,2.5-0.9,5.1-1.3,7.6   c-0.2,0-0.4,0-0.6,0c-0.2-2.3-0.4-4.7-0.6-7c-0.1,0-0.2,0-0.3,0c-0.4,3.8-0.7,7.6-1.1,11.4c-0.1,0-0.1,0-0.2,0   c-0.1-1.9-0.2-3.8-0.3-5.7c0,0-0.1,0-0.1,0c-0.2,1.2-0.4,2.3-0.5,3.5c-0.1,0-0.3-0.1-0.4-0.1c-0.1,0.7-0.1,1.5-0.2,2.2   c-0.1,0-0.2,0-0.3,0c-0.1-3.1-0.2-6.2-0.3-9.3c0-0.6,0.1-1.2-0.1-1.8c-0.1-0.3-0.5-0.8-0.8-0.8c-0.3-0.1-0.9,0.2-1,0.5   c-0.3,0.5-0.4,1.1-0.5,1.7c-0.5,2.8-1,5.5-1.5,8.3c-0.1,0-0.3,0-0.4,0c-0.3-3.5-0.6-6.9-0.8-10.4c-1.7-0.2-1.7-0.2-2.5,1.3   c-0.3-0.4-0.5-0.8-0.7-1c-1.3,0-2.5-0.2-3.6,0c-1.4,0.3-3-1.2-4,0.7c-2.2-1.9-4-1.7-4.7,0.5c-0.2-0.3-0.3-0.6-0.5-0.9   c-0.1,0-0.2,0-0.4,0c0,3.4,0,6.8,0,10.2c-0.2,0-0.3,0-0.5,0c-0.1-1.8-0.2-3.6-0.3-5.3c-0.1-1.2,0-2.5-0.1-3.7   c-0.1-1.5-0.7-1.8-2.1-1.7c-1.6,0.1-3.2-0.2-4.8-0.1c-1.8,0.1-3.5,0.3-5.3,0.5c-1.4,0.2-2.8,0.4-4.4,0.6c-0.3-1.6-2-0.9-3.1-1   c-2.2-0.2-4.4,0.4-6.6,0.3c-1.4-0.1-1.7,0.5-2.1,1.5c-0.4-0.3-0.8-0.5-1.4-0.9c-0.4,0.7-0.8,1.2-1,1.6c-0.5-0.7-0.9-1.7-1.6-2.3   c-0.2-0.2-1.2,0.7-2,1.1c-0.1-0.1-0.5-0.4-1-0.9c-0.2,0.9-0.3,1.5-0.5,2.5c-0.5-0.8-0.9-1.3-1.3-1.9c-0.2-0.2-0.3-0.7-0.5-0.7   c-0.3,0-0.7,0.2-1.1,0.4c-0.2-0.1-0.5-0.4-0.9-0.7c-0.7,0.5-1.3,1-2.1,1.6c-1.2-1.1-2.7-1.7-4.7-1.3c-2.1,0.3-4.3-0.1-6.5-0.1   c-2.2,0-4.3,0.2-6.5,0.3c-0.5,0-1-0.1-1.4-0.2c0-0.7,0-1.4,0-2.1c2.1,0.1,4.2,0.2,6.4,0.2c0.3,0,0.7-0.4,1-0.6   c0.3,0.5,0.6,0.9,1.5,0.4c0.8-0.4,1.9,0,2.8,0c1.3,0.1,2.6,0.1,3.9,0.2c1.5,0.1,2.7-0.2,3.5-1.6c0.8,0.7,1.3,2.2,2.9,1.3   c0.2-0.1,0.7,0.3,1.2,0.4c0.5-1,1.1-2,1.7-3.2c0.2,1.1,0.4,1.9,0.6,2.8c0.5-0.3,0.8-0.5,1.1-0.8c1.9,2,2.8,1,3.2-1.7   c0.3,0.9,0.4,1.4,0.7,2.1c0.6-0.5,1.1-0.9,1.7-1.3c0.3,3.2,2.8,1.6,4.4,1.9c1,0.2,2.2-0.1,3.3-0.1c1.3,0,2.5,0.2,3.7,0.4   c0.3-0.6,0.5-1,0.5-1.1c1.5,0.2,2.7,0.4,4,0.6c1.5,0.2,3,0.6,4.4,0.4c2.4-0.2,4.8,0.1,7.2,0c0.8,0,1.1-0.7,1.1-1.6   c-0.1-3.3,0-6.6,0-10c0.2,0,0.5,0,0.7,0c0,3.7,0,7.3,0,11c0.1,0,0.3,0.1,0.4,0.1c0.2-0.3,0.4-0.5,0.6-0.8c0.2,0.5,0.3,0.9,0.5,1.5   c1.3-0.3,2.9,0.6,3.7-0.5c2.9,0,5.6,0,8.3,0c0.1-0.2,0.3-0.6,0.5-1.1c0.4,1.3,1.1,1.9,2.5,1.3c0.2-4.2,0.4-8.4,0.6-12.8   c0.1,0.1,0.2,0.1,0.2,0.2c0.6,3.6,1.3,7.3,1.9,10.9c0.2,1.2,0.4,2.4,2.4,1.7c0-3,0-6.2,0-9.4c0.2,0,0.3,0,0.5,0   c0,0.4,0.1,0.8,0.1,1.3c0.1-0.3,0.2-0.6,0.4-1.2c0.2,1.2,0.4,2,0.5,2.8c0.1,0,0.1,0,0.2,0c0.1-1.5,0.2-3.1,0.3-4.6   c0.1,0,0.2,0,0.2,0c0.4,3.7,0.8,7.3,1.2,11c0.1,0,0.1,0,0.2,0c0.2-3.6,0.4-7.1,0.6-10.7c0.1,0,0.3,0,0.4,0c0.3,2.6,0.6,5.3,0.9,7.9   c0.1,0.6,0,1.2,0.2,1.8c0.1,0.6,0.1,1.6,1.1,1.3c0.4-0.1,0.7-0.9,0.8-1.4c0.2-3.5,0.4-6.9,0.6-10.4c0-0.2,0.1-0.5,0.1-0.7   c0.1,0,0.3,0,0.4,0c0.2,3.3,0.4,6.6,0.6,9.9c0.1,0,0.2,0,0.3,0c0.2-2.1,0.3-4.2,0.5-6.3c0.1,0,0.2,0,0.4-0.1   c0.1,0.8,0.3,1.7,0.4,2.7c0.1-1.8,0.3-3.4,0.4-5c0.1,0,0.2,0,0.3,0c0.2,1.5,0.3,2.9,0.5,4.4c0,0.2,1.9,2.5,2,2.7   c0.2,0.2,0.4,0.6,0.5,0.9c0.3,1,0.6,2,0.9,3c0,0.1,0.1,0.1,0.2,0.3c0.4-2,0.8-4,1.2-6c0.5,0.4,1,0.8,1.6,1.3   c0.2-1.7,0.3-3.1,0.5-4.6c0.1,0,0.2,0,0.3,0c0.1,1.5,0.3,3,0.4,4.5c0.4,0,0.6-0.1,1-0.1c0.1-1.3,0.3-2.6,0.4-3.9c0.1,0,0.2,0,0.3,0   c0.1,0.6,0.3,1.1,0.3,1.7c0.1,1.9,0.2,3.8,0.2,5.7c0,1,0.4,1.4,1.3,1.5c1.9,0,3.9,0,5.8,0c1,0,1.2-0.5,1.2-1.4   c0-1.1,0.1-2.2,0.2-3.3c0.1-0.5,0.4-1,0.7-1.6c0.1,0,0.3,0.1,0.4,0.1c0.3,1.2,0.5,2.4,0.9,4c0.3-1.1,0.5-1.7,0.6-2.3   c0.1,0,0.2,0,0.3,0c0.2,1.3,0.4,2.7,0.6,4c0.1,0,0.2,0,0.3,0c0.1-2,0.3-4,0.4-6c0.1,0,0.2,0,0.2-0.1c0.2,0.7,0.4,1.3,0.6,2   c0.4-0.5,0.8-1,1.4-1.7c0.2,2.2,0.4,4.1,0.7,6c0.1,0,0.2,0,0.4,0.1c0.4-1,0.9-2,1.1-3.1c0.2-1.6,0.1-3.3,0.3-4.9   c0.1-0.6,0.4-1.2,0.6-1.8c0.2,0,0.3,0,0.5,0.1c0.3,2.2,0.5,4.4,0.8,6.6c0.1,0,0.2,0.1,0.3,0.1c0.3-0.5,0.5-1.1,1-2   c0.3,1.7,0.5,3.1,0.7,4.4c0.1,0,0.2,0,0.2,0c0.2-3.7,0.4-7.3,0.5-11c0.1,0,0.1,0,0.2,0c0.4,3.7,0.8,7.3,1.2,11c0.1,0,0.3,0,0.4,0   c0.2-3.1,0.4-6.2,0.6-9.3c0.1,0,0.1,0,0.2,0c0.3,1.9,0.7,3.9,1,5.8c0.1,0,0.1,0,0.2,0c0.1-0.5,0.1-1,0.2-1.4c0.2-0.4,0.6-0.6,1-1.1   c0.3,1.5,0.5,2.8,0.8,4.3c0.7-3.1,1.3-5.9,1.9-8.7c0.1,0,0.3,0,0.4,0.1c0.2,3,0.4,5.9,0.6,8.9c0.1,2,0.3,2.1,2.3,1.8   c0.1-2.7,0.3-5.5,0.4-8.3c0.1,0,0.2,0,0.3,0c0.1,2.7,0.3,5.5,0.4,8.3c0.8,0,1.6,0,2.8,0c0.2-6.7,0.5-13.4,0.7-20.2   c0.1,0,0.1,0,0.2,0c0,0.3,0.1,0.5,0.1,0.8c0.1,4.1,0.1,8.3,0.3,12.4c0.1,2.1,0.6,4.2,1,6.3c0,0.2,0.5,0.5,0.7,0.6   c1.4,0.1,2.8,0.3,4.1,0c0.6-0.1,1-1.3,1.5-2.1c0.2,0.7,0.4,1.3,0.6,1.9c0.6,0,1.2-0.1,2-0.1c0,0,0.2-0.4,0.3-0.7c0,0,0.1,0,0.1,0   c1,2.1,2.7,0.1,3.7,0.7c2.3,1.2,4.6,0.1,6.8,0.5c0.1,0,0.5-0.6,0.6-1c0.2-1.8,0.2-3.6,0.5-5.4c0.3,2.2,0.6,4.4,0.8,6.6   c2.3,0,4.2,0,6.1,0c0.2,0,0.5,0.1,0.6,0c0.9-1.1,1.9-0.1,2.9,0.1c0.2-0.5,0.4-0.9,0.5-1.2c1.1,0.4,2.2,0.9,3.6,1.4   c0.2-2,0.4-3.6,0.6-5.3c1.1,1.5-0.5,3.9,2.2,4.9c0.2-2,0.3-3.9,0.5-5.8c0.1,0,0.2,0,0.3,0c0.1,1.5,0.3,3,0.4,4.5   c0.1,0,0.2,0.1,0.3,0.1c0.2-0.6,0.5-1.2,0.6-1.6c0.4,0.5,0.8,1.1,1.4,1.9c0.2-0.7,0.3-1.2,0.5-2.1c0.2,1.1,0.4,1.8,0.6,3   c0.2-1.4,0.3-2.4,0.4-3.5c0.1,0,0.1,0,0.2,0c0.3,1.3,0.7,2.7,1,4c0.2,0,0.3-0.1,0.5-0.1c0.1-2.2,0.3-4.4,0.4-7   c0.9,2.5,0.2,4.9,1.3,6.9c0.2,0,0.3,0,0.5-0.1c0.3-9.2,0.6-18.3,1-27.5c0.1,0,0.1,0,0.2,0c0.2,7.9,0.4,15.9,0.6,23.8   c0.2-2.1,0.6-4,2-5.5c0.1,0.4,0.2,1.1,0.3,1.8c0.1,0,0.3,0.1,0.4,0.1c0.5-1.4,0.9-2.7,1.4-4.1c0.1,0,0.2,0,0.3-0.1   c0.1,1.5,0.2,3,0.3,4.3c0.5-1.7,1.1-3.5,1.7-5.4c0.1,0,0.2,0,0.4,0.1c0.1,1.4,0.2,2.7,0.3,4.5c0.8-1.5,1.3-2.7,2-4.1   c0.1,1.5,0.2,2.9,0.4,4.2c0.1,0,0.2,0,0.3,0c0.1-1.5,0.2-3.1,0.3-4.6c0.1,0,0.2,0,0.2,0c0.1,1,0.2,1.9,0.3,2.9c0.1,0,0.1,0,0.2,0   c0.2-0.7,0.3-1.4,0.5-2c0.1,0,0.2,0,0.3,0c0.1,0.9,0.2,1.8,0.3,3c0.5-1.5,0.9-2.7,1.4-4.1c0.1,0.2,0.2,0.4,0.4,0.6   c0.1-0.4,0.1-0.7,0.2-1c0.1,0,0.2,0,0.2,0c0.1,1,0.2,2,0.3,3.1c0.1,0,0.2,0,0.4,0c0.1-0.6,0.2-1.3,0.3-2.3c0.2,0.5,0.3,0.7,0.3,0.9   c0.1-0.2,0.2-0.4,0.4-0.8c0.1,0.4,0.2,0.7,0.2,1.1c0.1-0.3,0.1-0.6,0.2-0.8c0.1,0,0.1,0,0.2,0c0.1,1.2,0.2,2.5,0.4,3.7   c0.1,0,0.2,0,0.2,0c0.1-1,0.3-2,0.4-3.4c0.3,0.6,0.5,1,0.6,1.5c0.7-0.3,0.7-0.3,1.2,3.4c0.2-1.5,0.3-2.6,0.5-4   c0.3,0.5,0.4,0.8,0.6,1.3c0.2-1.1,0.4-1.9,0.5-2.7c0.1,0,0.2,0,0.2,0c0.1,0.8,0.2,1.6,0.3,2.6c0.6-1,1-1.8,1.5-2.6   c0,0.1,0.1,0.4,0.3,1.1c0.3-1.2,0.5-2,0.8-3c0.3,1,0.6,1.9,0.9,2.8c0.1-0.2,0.1-0.5,0.2-0.7c0.1,0,0.2,0,0.3-0.1   c0.3,1.1,0.7,2.3,1,3.5c0.2-0.8,0.3-1.5,0.6-2.6c0.3,0.7,0.4,1.1,0.6,1.7c0.2-0.9,0.3-1.7,0.5-2.5c0.1,0,0.2,0,0.2,0   c0.1,1.3,0.3,2.7,0.4,4c0.1,0,0.2,0,0.2,0c0.1-0.9,0.2-1.8,0.3-2.7c0.1,0,0.2,0,0.2,0c0.1,0.9,0.2,1.8,0.3,2.7c0.1,0,0.1,0,0.2,0   c0.1-0.6,0.3-1.2,0.5-2.1c0.2,0.6,0.4,0.9,0.5,1.2c0.5-0.5,0.9-1,1.2-1.3c0.8,0.6,1.6,1.3,2.7,2.2c0.1-1.1,0.3-1.9,0.4-2.7   c0.1,0,0.2,0,0.3,0c0.1,1.1,0.3,2.1,0.4,3.5c0.2-1,0.3-1.6,0.5-2.6c0.3,0.5,0.4,0.8,0.6,1.3c0.1-0.5,0.3-1,0.4-1.4   c0.1,0,0.3,0,0.4,0c0.1,1,0.3,2.1,0.5,3.5c0.2-1.2,0.3-1.9,0.5-2.9c0.2,0.5,0.3,0.8,0.5,1.3c0.2-0.9,0.3-1.6,0.4-2.3   c0.1,0,0.3,0,0.4,0c0.2,1.2,0.3,2.4,0.5,3.6c0.1,0,0.2,0,0.2,0c0.1-0.6,0.1-1.2,0.3-1.7c0.1-0.4,0.5-0.7,0.8-1   c0.3,0.2,0.6,0.4,0.8,0.7c0.5,0.6,1,1.2,1.6,2c0.2-0.8,0.3-1.5,0.5-2.6c0.3,0.9,0.4,1.5,0.7,2.2c0.2-0.7,0.3-1.3,0.6-2.2   c0.2,0.8,0.3,1.4,0.5,2.1c0.3-0.7,0.4-1.3,0.7-2.1c0.2,0.9,0.3,1.5,0.5,2.5c0.2-1.3,0.4-2.2,0.5-3.1c0.1,0,0.1,0,0.2,0   c0.1,0.4,0.2,0.8,0.4,1.6c0.2-1,0.4-1.8,0.5-2.5c0.1,0,0.2,0,0.4,0c0.1,0.9,0.2,1.8,0.4,2.7c0.1,0,0.2,0,0.2,0   c0.1-1.1,0.2-2.1,0.4-3.5c0.3,0.8,0.4,1.4,0.6,1.9c0.1,0,0.2,0,0.3,0c0.1-0.3,0.2-0.7,0.3-1.1c0.7,0.3,1.3,0.5,1.4-0.6   c0.1,0.7,0.2,1.4,0.3,2.1c0.1,0,0.2,0,0.3,0c0.1-0.9,0.2-1.7,0.3-2.6c0.1,0,0.2,0,0.3,0c0.1,1.3,0.3,2.5,0.4,3.8c0,0,0.1,0,0.1,0   c0.1-1.2,0.3-2.4,0.4-3.6c0.1,0,0.2,0,0.2,0c0.1,0.4,0.2,0.7,0.3,1.1c0.2-1.1,0.4-2,0.6-3c0.1,0,0.3,0,0.4,0.1   c0.1,2.2,0.3,4.4,0.4,6.6c0,0,0.1,0,0.1,0c0.1-1.5,0.3-3,0.4-4.5c0.1,0,0.1,0,0.2,0c0.1,0.5,0.3,1.1,0.5,1.7   c0.2-0.8,0.3-1.4,0.4-1.7c0.7-0.2,1.1-0.3,1.6-0.4c0.2,1,0.3,1.9,0.4,2.8c0.1,0,0.2,0,0.3,0c0.1-0.4,0.2-0.9,0.2-0.9   c0.7-0.5,1.1-0.9,1.5-1.3c0.1,0.8,0.3,1.6,0.5,2.7c0.2-0.9,0.4-1.6,0.6-2.5c0.2,1,0.4,1.6,0.6,2.6c0.2-0.9,0.3-1.6,0.5-2.3   c0.6,0.2,1.3,0.4,2,0.6c0.1-0.4,0.2-1.2,0.4-2c0.5,0.1,1.3,0.9,1.2-0.5c0.3,0.4,0.4,0.6,0.6,1c0.2-1,0.4-1.9,0.6-2.9   c0.3,0.5,0.4,1,0.7,1.2c0.9,0.7,0.7-0.7,1.3-0.8c0.4,1.3,0.7,2.6,1.2,4.3c0.2-1,0.3-1.7,0.4-2.7c0.2,0.6,0.3,1,0.5,1.7   c0.2-1,0.4-1.7,0.6-2.7c0.3,0.5,0.4,0.8,0.6,1.2c0.2-0.6,0.4-1.1,0.6-1.8c0.3,0.6,0.5,1,0.8,1.5c0.2-0.5,0.3-0.9,0.4-1.3   c0.1,0.1,0.1,0.2,0.2,0.3c0.3-0.2,0.7-0.4,1.1-0.7c0.2,0.6,0.3,1.2,0.6,2.1c0.2-0.9,0.3-1.4,0.4-2c0.4,0.1,0.9,0.3,1.2,0.4   c0.6,1,1.1,2,1.8,2.9c0.1,0.1,0.9-0.2,1.3-0.3c0.3,0.2,0.8,0.8,1,0.7c0.4-0.1,0.6-0.7,0.8-1.1c0.2,0.2,0.4,0.5,0.7,0.9   c0.2-0.4,0.3-0.7,0.4-1c0.2,0.2,0.3,0.4,0.5,0.7c0.2-0.3,0.3-0.6,0.5-1c0.2,0.5,0.3,1,0.4,1.4c0.5-0.6,1.1-1.2,1.7-1.9   c0.2,0.5,0.3,1,0.5,1.6c0.6-1.4,1.4-1.2,2.7-0.5c0.9,0.5,0.7,1.2,1.5,2.1c0.2-4.9,0.3-9.4,0.5-14.2c0.3,0.5,0.4,0.6,0.5,1   c0.1-1.2,0.3-2.2,0.4-3.2c0.1,0,0.2,0,0.4,0c0,4.5,0,9.1,0,13.6c0.2,0,0.4,0,0.6,0c0-5.1,0-10.2,0-15.4c0.2,0,0.3,0,0.5,0   c0.1,2.6,0.2,5.3,0.4,7.9c0,0,0.1,0,0.1,0c0.1-0.6,0.1-1.2,0.2-1.8c0.1,0,0.2,0,0.2,0c0.3,3.8,0.6,7.5,1,11.4   c0.7-0.8,1.3-1.5,1.9-2.4c0.1,0.6,0.2,1,0.3,1.5c0.1,0,0.2,0,0.4,0c0.1-0.7,0.3-1.5,0.4-2.2c0.6,0.3,1.1,0.7,1.8,1   c0.2-0.8,0.4-1.6,0.7-2.7c0.3,1,0.4,1.6,0.6,2.3c0.1,0,0.2,0,0.2,0c0.1-0.4,0.2-0.8,0.4-1.4c0.2,0.4,0.3,0.6,0.6,1.3   c0.5-1,1-1.7,1.3-2.5c0.1,0.2,0.3,0.5,0.6,1.1c0.2-0.5,0.4-0.7,0.5-1c0.2,0.4,0.3,0.7,0.7,1.4c0.2-0.9,0.4-1.4,0.5-2.1   c0.2,0.7,0.4,1.3,0.6,2.2c0.5-0.9,0.9-1.5,1.2-2.1c0.1,0.2,0.2,0.4,0.3,0.7c0.2-0.5,0.5-1,0.6-1.4c0.6,0.3,1.2,0.9,1.5,0.8   c0.6-0.2,1-0.8,1.4-1.4c0.5-0.1,1-0.3,1.7-0.4c0,0.1,0.2,0.5,0.4,1.4c0.3-0.9,0.4-1.4,0.6-2.1c0.2,0.4,0.4,0.8,0.6,1.2   c0.2-0.3,0.4-0.5,0.7-0.9c0.1,0.5,0.2,1,0.4,1.7c0.2-0.7,0.3-1,0.4-1.4c0.2,0.3,0.4,0.6,0.7,1.1c0-1,0.1-1.8,0.1-2.6   c0.4,0,0.7,0.1,1.3,0.1c0.1,0.2,0.3,0.7,0.7,1.4c0.2-0.7,0.3-1.1,0.5-1.9c0.2,0.5,0.3,0.8,0.5,1.4c0.3-0.7,0.5-1.2,0.9-2   c0.2,1,0.3,1.7,0.4,2.4c0.6-1.1,1.2-2.2,1.8-3.3c0.3,0.6,0.6,1.1,0.8,1.4c0.6-0.4,1.1-0.7,1.8-1.2c0.1,0.6,0.2,1,0.3,1.5   c0.2-2,2.3-0.7,3.1-1.7c0.1,0.1,0.3,0.4,0.6,0.6c0.3-0.7,0.5-1.3,0.9-2.2c0.1,0.8,0.2,1.4,0.4,2.1c0.3-0.4,0.5-0.6,0.8-1   c0.1,0.6,0.2,1,0.2,1.1c0.7-1.2,1.5-2.6,2.3-4c0.1,0.7,0.3,1.5,0.4,2.4c0.3-0.2,0.5-0.3,0.7-0.5c0.2,0.6,0.3,1.2,0.5,2   c0.6-1.3-0.2-3.1,1.9-3.4c0.1,0.6,0.3,1.3,0.4,1.9c0.4-0.6,0.8-1.3,1.2-2c0.4,0.3,0.8,0.6,1.2,0.9c0.4-0.7,0.9-1.6,1.5-2.5   c0.3,0.5,0.5,0.9,0.7,1.3c0-0.8,0.1-1.5,0.1-2.2c0.1,0,0.2,0,0.2,0c0.2,0.6,0.3,1.3,0.5,2.1c0.4-0.5,0.8-0.9,1.2-1.3   c0.3,0.6,1.3,0.5,1.5-0.3c0.2-0.6,0.3-1.2,0.5-2c0.3,0.7,0.5,1.2,0.7,1.6c0.1,0,0.3,0,0.4,0c0.6-1.8,1.1-3.7,1.7-5.5   c0.1,0.5,0.3,1,0.4,1.6c0.1,0,0.2,0,0.2,0c0.2-2,0.4-4.1,0.6-6.1c0.1,0,0.2,0,0.3,0c0.1,1.9,0.3,3.8,0.4,5.6c0.2,0,0.3,0,0.5,0.1   c0.1-0.9,0.2-1.8,0.3-3c0.2,0.6,0.3,0.9,0.5,1.4c0.2-0.8,0.4-1.5,0.6-2.1c0.2,0,0.3,0,0.5,0c0.3,2.6,0.8,5.3,1,7.9   c0.2,1.9,0.2,3.9,0.3,5.8c0,0.6,0.3,1.1,0.8,1.7c0.1-0.5,0.3-1,0.4-1.5c0.1,0,0.2,0,0.2,0c0.1,1.1,0.3,2.2,0.5,3.6   c0.3-1,0.5-1.7,0.8-2.6c0.2,0.2,0.4,0.4,0.6,0.6c0.1-0.4,0.2-0.8,0.5-1.5c0.1,1.4,0.3,2.3,0.4,3.3c0.1,0,0.2,0,0.3,0   c0.1-0.9,0.3-1.8,0.4-2.8c0.3,0.2,0.5,0.3,0.9,0.5c0.1-1.4,0.2-2.8,0.3-4.5c0.2,0.5,0.3,0.7,0.5,1.2c0.2-0.7,0.3-1.2,0.4-1.6   c0.1,0,0.1,0,0.2,0c0.1,2.3,0.3,4.6,0.4,7.2c0.3-0.9,0.4-1.4,0.5-1.9c0.1,0,0.2,0,0.3,0c0.1,1.5,0.1,3,0.3,4.4   c0.1,1.3,0.3,2.6,0.6,3.9c0.1,0.4,0.5,0.7,1.1,1.4c0.7,1.5,1.3,3.7,2.5,5.3c0.7,1,1.8,1.7,2.3,2.9   C367.9,53.9,367.9,54.7,367.9,55.5z" />
    </g>
    <text transform="matrix(1 0 0 1 189.3335 106.2021)">A</text>
    <text transform="matrix(1 0 0 1 286 106.2021)">B</text>
    <text transform="matrix(1 0 0 1 347.666 106.2021)">C</text>
</svg>
