<svg version="1.1" id="waves-shootout" xmlns="http://www.w3.org/2000/svg" xmlns:xlink="http://www.w3.org/1999/xlink" x="0px" y="0px" width="100%" viewBox="0 0 411.3 160.3" enable-background="new 0 0 411.3 160.3" xml:space="preserve">
    <g>
        <g>
            <path fill-rule="evenodd" clip-rule="evenodd" d="M411.6,71.5c-1.4-0.1-1.9,0.4-2,1.7c-0.1,1-0.2,1-1.1,1c0-0.4-0.1-0.9-0.1-1.4
			c-0.4,0.6-0.8,1.1-1.1,1.6c-0.1-0.1-0.2-0.1-0.4-0.2c0-0.3,0-0.6-0.1-1c-0.6,0.3-1,2.4-1.6,0.1c-0.4,0.3-0.7,0.7-1.3,1.2
			c0-0.7-0.1-1.1-0.1-1.6c-0.5,0.4-0.8,0.8-1.2,1.2c-0.2-0.4-0.3-0.7-0.5-1c-0.3,0.3-0.5,0.6-0.9,1c-0.3-0.5-0.5-0.9-0.6-1.3
			c-0.3,0.3-0.6,0.5-0.8,0.8c-0.2-0.3-0.4-0.5-0.7-0.8c-0.5,0.9-1,1.1-1.5-0.1c-0.3,0.4-0.5,0.6-0.8,1c-0.3-0.4-0.5-0.7-0.8-1.3
			c-0.2,0.4-0.4,0.7-0.7,1.2c-0.4-0.6-0.5-0.8-0.6-1c-0.9,0.2-1.8,0.3-2.8,0.5c-0.1-0.2-0.2-0.5-0.4-0.8c-0.9,0.7-0.9,0.7-1.7-0.3
			c-0.1,0.6-0.2,1.1-0.3,1.6c-0.4,9.2-0.7,18.3-1,27.5c0,0.4,0,0.8-0.1,1.2c-0.1,0-0.3,0-0.4,0c0-9.5,0-19.1,0-28.6
			c-0.2,0-0.4,0-0.6-0.1c-0.2,1.2-0.6,2.4-0.6,3.6c-0.1,10.5-0.2,20.9-0.3,31.4c0,2.5-0.2,4.9-0.3,7.3c-0.2,0-0.3,0-0.5,0
			c-0.1-12.4-0.3-24.9-0.4-37.4c-0.1,0.2-0.2,0.3-0.3,0.5c-0.2-0.4-0.4-0.8-0.6-1.2c-0.1,0-0.2,0-0.3,0c-0.1,1-0.3,2-0.4,3
			c-0.1,3.3,0,6.7-0.3,10c-1.1,13.9-0.4,27.8-0.8,41.7c0,0.3,0,0.7,0,1c0,0.1-0.3,0.3-0.4,0.4c-0.1-0.1-0.4-0.2-0.4-0.4
			c-0.1-0.3,0-0.7,0-1c-0.1-9.8-0.2-19.6-0.3-29.4c0-0.4-0.1-0.8-0.2-1.2c-0.2,0-0.3,0-0.5,0c0,4.5,0,9,0,13.5c-0.2,0-0.4,0-0.5,0
			c0-4.2,0-8.5,0-12.7c-0.1,0-0.2,0-0.3,0c0,0.5-0.1,0.9-0.1,1.4c-0.1,0-0.2,0-0.3,0c-0.1-1-0.2-2.1-0.3-3.1
			c-1.6,5.3-0.2,10.9-1.9,16.2c0-0.4,0-0.9,0-1.3c-0.1-6.8-0.1-13.7-0.2-20.5c0-0.5-0.2-1.1-0.7-1.6c-0.1,2-0.3,4-0.4,6.1
			c-0.1,0-0.2,0-0.2,0c-0.1-1.2-0.2-2.4-0.3-3.5c-0.1,0-0.2-0.1-0.3-0.1c-0.2,0.6-0.4,1.3-0.8,2.2c-0.2-1.4-0.3-2.5-0.5-3.9
			c-0.4,0.7-0.7,1.2-1,1.9c-0.4-1.3-0.7-2.3-1-3.3c-1.4,4.9-1.9,9.9-2,15c0,1.1-0.1,2.2-0.3,3.3c-0.1,0.9-0.5,1.7-0.8,2.6
			c-0.1-0.3-0.1-0.8-0.2-1.2c0,0-0.1,0-0.1,0c-0.1,1.4-0.2,2.8-0.3,4.3c-0.1,0-0.2,0-0.3,0c-0.1-0.9-0.3-1.8-0.4-2.7
			c0,0.8-0.1,1.6-0.1,2.4c-0.1,0-0.3,0-0.4,0c-0.1-3.7-0.3-7.4-0.4-11.1c0,0-0.1,0-0.1,0c0,0.5-0.1,0.9-0.1,1.4c-0.1,0-0.2,0-0.2,0
			c0-1.2,0-2.4,0-3.7c-0.7,0.1-0.7-0.3-0.9-4.1c-0.1-1.6-0.2-3.2-0.5-4.8c-0.2,3.7-0.4,7.4-0.6,11.1c-0.1,0-0.3,0-0.4,0
			c-0.1-1.7-0.2-3.5-0.3-5.2c-0.1,0-0.1,0-0.2,0c-0.1,1.7-0.3,3.5-0.4,5.2c-0.1,0-0.2,0-0.3,0c0-1.4,0-2.8,0-4.2c-0.1,0-0.3,0-0.4,0
			c0,5.8,0,11.5,0,17.3c-0.2,0-0.4,0-0.5,0c0-8.9,0-17.9,0-26.8c-0.1,0-0.2,0-0.2,0c-0.2,2.1-0.4,4.2-0.6,6.3c-0.1,0-0.3,0-0.4,0
			c-0.1-1.9-0.3-3.7-0.4-5.6c-0.1,0-0.2,0-0.3,0c0,1.1,0,2.2,0,3.3c-0.1,0-0.2,0-0.4,0c-0.3-1-0.5-2-0.8-3c-0.1,0-0.2,0-0.3,0
			c-0.1,2.5-0.3,5-0.4,7.5c-0.2,0-0.3,0-0.5,0c-0.1-2.3-0.3-4.6-0.4-6.9c-0.1,0-0.2,0-0.3,0c-0.1,1.7-0.3,3.5-0.4,5.2
			c-0.1,0-0.3,0-0.4,0c-0.2-3-0.3-6.1-0.5-9.1c-0.1,0-0.2,0-0.3,0c0,4.6,0,9.2,0,13.9c-0.2,0-0.4,0-0.6,0c-0.2-2.4-0.3-4.8-0.5-7.2
			c-0.1,0-0.2,0-0.3,0c0,2.3,0,4.6,0,6.9c-0.2,0-0.4,0-0.6,0c0-1.4,0.1-2.9,0-4.3c-0.1-1.4,0.2-2.9-0.5-4.5c-0.4,1-0.6,1.6-0.9,2.3
			c-0.1,0-0.3,0-0.4,0c-0.2-0.9-0.3-1.8-0.5-2.7c-0.1,0-0.1,0-0.2,0c-0.1,2-0.2,4-0.3,6.1c-0.1,0-0.2,0-0.3,0
			c-0.1-0.6-0.3-1.3-0.4-1.9c-0.3,0.6-0.6,1.2-1.1,2.2c-0.4-1.3-0.7-2.4-0.9-3.5c-0.1,0-0.1,0-0.2-0.1c-0.2,1.6-0.5,3.1-0.7,4.7
			c-0.1,0-0.1,0-0.2,0c-0.1-1.5-0.2-3-0.4-4.5c-0.1,0-0.2,0-0.3,0c0,2.5,0,5,0,7.4c-0.1,0-0.2,0-0.3,0c-0.3-3.9-0.6-7.7-0.9-11.6
			c-0.1,0-0.1,0-0.2,0c-0.1,2-0.3,4-0.4,6.1c-0.2,0-0.3,0-0.5,0c-0.1-1.3-0.3-2.6-0.4-3.9c0,0,0,0-0.1,0c-0.1,1.3-0.2,2.7-0.4,4
			c-0.1,0-0.2,0-0.4,0c-0.4-2.3-0.8-4.6-1.2-6.8c0,0.1-0.2,0.3-0.4,0.8c-0.2-0.9-0.4-1.6-0.6-2.4c-0.1,0-0.3,0-0.4,0
			c0,2.9,0,5.8,0,8.7c-0.2,0-0.3,0-0.5,0c-0.7-3.4-0.3-7-0.9-10.5c-0.1,2.3-0.2,4.7-0.4,7c-0.1,0-0.1,0-0.2,0
			c-0.2-1.6-0.5-3.3-0.8-5c-0.4,0.7-0.7,1.3-1,1.9c-0.1,0-0.1,0-0.2,0c-0.1-2.3-0.2-4.5-0.4-6.8c-0.1,0-0.2,0-0.3,0
			c-0.1,0.4-0.2,0.9-0.2,1.3c-0.6,3.2-1.2,6.4-1.9,9.7c-0.2-3.3-0.3-6.5-0.5-9.9c-0.4,1-0.7,1.7-1,2.5c-0.1,0-0.2-0.1-0.3-0.1
			c-0.1-0.5-0.2-1-0.3-1.6c-0.1,0-0.1,0-0.2,0c-0.1,1.8-0.2,3.7-0.4,5.5c-0.1,0-0.2,0-0.3,0c-0.9-3.2-0.2-6.5-0.8-9.6
			c-0.3,2.3-0.5,4.8-0.8,7.3c-0.2,0-0.3,0-0.5,0c-0.1-1-0.3-2-0.4-3.3c-0.1,2.5-0.3,4.7-0.4,6.8c-0.1,0-0.2,0-0.3,0
			c-0.2-1.7-0.4-3.3-0.7-5c-0.2,0.5-0.3,1-0.5,1.4c-0.1,0-0.2,0-0.3,0c-0.2-1-0.4-2.1-0.6-3.1c-0.3,1.2-0.5,2.4-0.8,3.7
			c-0.1,0-0.1,0-0.2,0c-0.3-3.1-0.6-6.1-0.9-9.4c0,0.4-0.1,0.6-0.1,0.7c0.1,1.9-0.4,3.7-1.1,5.5c-0.4,0.9-0.5,2-1,3
			c-0.3-4.8-0.5-9.5-0.8-14.3c-0.1,0-0.1,0-0.2,0c0,3.3,0,6.7,0,10c-0.2,0-0.4,0-0.5,0c0-1.2,0-2.3,0-3.5c0-2-0.1-4-0.2-5.9
			c0-0.5-0.3-1-0.6-1.9c-0.5,0.6-0.6,0.8-0.9,1.1c-0.2-0.4-0.3-0.6-0.5-1c-0.2,0.3-0.3,0.6-0.5,1c-0.2-0.3-0.3-0.5-0.6-1
			c-0.3,1.1-0.6,1.9-0.9,2.9c-0.3-0.5-0.6-0.8-0.9-1.3c-1.5,3.5-0.9,7.1-1.9,10.6c0-3.9,0-7.8,0-11.7c-0.1,0-0.3-0.1-0.4-0.1
			c-0.2,0.5-0.4,1-0.7,1.8c-0.2-0.7-0.3-1.2-0.6-1.6c-0.3-0.4-0.7-0.7-1.1-1c-0.5,0.6-0.9,1-1.3,1.5c-0.5-0.2-1-0.4-1.5-0.7
			c-0.1,0.3-0.3,0.7-0.5,1.1c-0.8-1,0.3-2.9-1.9-3.1c-0.2,0-0.5,0.2-0.8,0.5c-0.3-0.4-0.6-1-1.1-1.5c-0.5-0.4-1-1.1-1.8-0.4
			c-0.1,0.1-0.4,0.1-0.6,0.1c-1.6-0.4-3.2-0.8-4.8-1.2c-0.3-0.1-0.8,0.1-1.3,0.2c-0.1,1.8-0.2,3.7-0.3,5.7c-0.1,0-0.2,0-0.3,0
			c-0.1-1.9-0.2-3.8-0.4-5.7c-0.1,0-0.2-0.1-0.3-0.1c-0.1,0.4-0.3,0.8-0.4,1.2c-0.2,2.5-0.4,5-0.6,7.5c-0.1,0-0.2,0-0.3,0.1
			c-0.1-0.7-0.3-1.4-0.4-2.2c-0.1,0-0.1,0-0.2,0c0,5.6,0,11.1,0,16.7c-0.2,0-0.4,0-0.5,0c0-7.7,0-15.4,0-23.2
			c-1.2-0.1-2.1-0.3-3.4-0.4c-0.3,1.7-0.6,3.6-0.9,5.4c-0.1,0-0.2,0-0.3,0c-0.1-1.1-0.2-2.2-0.3-3.4c-0.1-1.8-0.2-2-2.1-1.9
			c-1,0-2,0.3-2.7,0.4c-1,0-1.8-0.1-2.5,0c-0.9,0.2-1,0.8-1.1,1.6c0,4.5-0.1,8.9-0.2,13.4c0,0.3,0,0.6-0.3,1c0-0.4,0-0.7-0.1-1.1
			c-0.1-4.2-0.1-8.5-0.2-12.7c0-0.7-0.3-1.4-0.5-2.1c-0.1,0-0.3,0-0.4,0.1c-0.1,1.3-0.2,2.6-0.3,3.8c-0.1,0-0.2,0-0.3,0
			c-0.1-1.4-0.3-2.8-0.4-4.5c-0.4,0.6-0.6,0.9-0.8,1.2c-0.4-0.3-0.7-0.6-0.8-0.7c-0.8,0-1.3,0-2.1,0c-0.1,0.2-0.3,0.6-0.4,1
			c-0.8-0.4-1.6-0.7-2.6-1.1c-0.1,0.4-0.3,0.9-0.3,1.4c-0.1,9.2-0.2,18.4-0.2,27.6c0,0.4,0,0.9,0,1.3c-0.2,0-0.3,0-0.5,0
			c0-4.8,0-9.7,0-14.5c-0.2,0-0.4,0-0.5,0c0,5.7,0,11.3,0,17c-0.2,0-0.4,0-0.5,0c0-8.3,0-16.6,0-24.8c-0.1,0-0.2,0-0.3,0
			c-0.1,1.3-0.2,2.6-0.4,3.9c-0.1,0-0.2,0-0.3,0c-0.7-3.6-0.8-7.3-1.4-10.9c-0.1,0.3-0.1,0.7-0.1,1c-0.2,4-0.4,8-0.5,12
			c-0.3,15.5-0.6,31-0.9,46.6c0,0.5,0,0.9,0,1.4c-0.2,0-0.4,0-0.6,0c0-9.4,0-18.9,0-28.3c-0.2,0-0.4,0-0.7,0c0,9.4,0,18.8,0,28.3
			c-0.2,0-0.4,0-0.5,0c-0.1-0.4-0.2-0.8-0.2-1.3c-0.1-12.9-0.2-25.7-0.2-38.6c0-6.7,0-13.4-0.1-20c0-0.5-0.1-1-0.2-1.4
			c-0.2,0-0.4,0-0.7,0c-0.2,1.2-0.6,2.4-0.7,3.6c-0.3,16.5-0.6,33-0.8,49.5c0,2.5-0.2,4.9-0.3,7.4c0,0.3-0.1,0.6-0.2,0.9
			c-0.1,0-0.2,0-0.3,0c0-3.3,0-6.7,0-10c-0.1,0-0.1,0-0.2,0c-0.1,3.3-0.3,6.7-0.4,10c-0.1,0-0.3,0-0.4,0c0-1.1,0-2.2,0-3.3
			c-0.1,0-0.2,0-0.3,0c0,1.1,0,2.1,0,3.3c-0.5,0-0.9,0-1.3,0c-0.1-0.5-0.1-1-0.2-1.7c-0.1,0.7-0.1,1.2-0.2,1.7c-0.1,0-0.3,0-0.4,0
			c0-0.4-0.1-0.8-0.1-1.2c-0.1-14.5-0.2-28.9-0.3-43.4c0-1.9-0.4-3.9-0.5-5.8c-0.2,0-0.3,0-0.5,0c-0.4,3.7-0.9,7.3-1.3,11
			c0,0-0.1,0-0.1,0c-0.1-2.5-0.1-5.1-0.3-7.6c0-0.7-0.4-1.3-0.5-2c-0.1,0-0.3,0-0.4,0.1c-0.2,1.7-0.4,3.5-0.6,5.2
			c-0.1,0-0.2,0-0.3,0c-0.1-1.3-0.2-2.6-0.3-4.2c-0.4,0.8-0.6,1.3-0.9,1.9c-0.1-0.4-0.2-0.7-0.3-0.9c-0.1,0-0.2,0-0.3,0
			c-0.1,0.7-0.3,1.4-0.3,2.1c-0.1,6.4-0.2,12.8-0.3,19.2c0,0.3,0,0.6-0.3,0.9c0-1.8,0-3.6,0-5.4c-0.1,0-0.3,0-0.4,0
			c0,4.5,0,9,0,13.5c-0.2,0-0.4,0-0.5,0c0-7.4,0-14.8,0-22.2c-0.2,0-0.4,0-0.5,0c0,5.7,0,11.5,0,17.2c-0.1,0-0.3,0-0.4,0
			c-0.1-6.9-0.3-13.9-0.4-20.8c-0.1,0-0.3,0-0.4,0c-0.1,1.2-0.1,2.4-0.3,3.7c-0.1,1.1-0.5,2.2-0.6,3.3c-0.3,6.6-0.5,13.2-0.8,19.8
			c-0.2,4.2-0.3,8.5-0.5,12.7c0,0.2-0.1,0.5-0.3,0.7c-0.1-1.8-0.2-3.6-0.3-5.4c-0.1-8.5,0-17-0.3-25.5c-0.2-5.1-0.9-10.2-1.4-15.3
			c-0.2-1.5-0.6-2.9-1-4.3c-0.2,0-0.4,0-0.6,0c-0.2,6.8-0.3,13.5-0.5,20.3c-0.1,0-0.2,0-0.4,0c0-4.4,0-8.9,0-13.3
			c-0.1,0-0.2,0-0.3,0c-0.1,0.2-0.1,0.4-0.2,0.5c-0.1,0-0.1,0-0.2,0c-0.1-1.5-0.2-2.9-0.4-4.4c-0.1,0-0.1,0-0.2,0
			c-0.1,0.4-0.2,0.8-0.4,1.4c-0.1-0.6-0.2-1-0.3-1.4c-0.1,0-0.2,0-0.4,0c-0.2,0.9-0.5,1.8-0.5,2.7c-0.1,3.4,0,6.7,0,10.1
			c-0.2,0-0.4,0-0.6,0c-0.2-4.2-0.4-8.4-0.5-12.6c-0.1,0-0.2,0-0.3,0c0,6.2,0,12.3,0,18.5c-0.2,0-0.4,0-0.5,0c0-2.6,0-5.2,0-8
			c-0.4,0.3-0.5,0.4-0.7,0.6c-0.2-4.2-0.3-8.4-0.5-12.5c-0.1,0-0.2,0-0.4,0c-0.1,1.2-0.1,2.4-0.5,3.5c-0.9,3.1-0.9,6.4-2.2,9.5
			c-0.7,1.7-0.4,3.7-0.7,5.5c-1,4.9-0.6,9.8-0.8,14.7c0,0.2-0.1,0.4-0.4,0.6c0-10,0-19.9,0-29.9c-0.1,0-0.2,0-0.3,0
			c-0.2,0.7-0.5,1.3-0.5,2c-0.1,0.8-0.1,1.6-0.1,2.5c0,0.8-0.1,1.6-0.2,2.3c-0.2,3.5-0.5,7-0.9,10.5c-0.1-0.6-0.2-1.1-0.2-1.7
			c-0.6-5-1.1-10-1.7-14.9c-0.1,1.3-0.2,2.8-0.3,4.3c-0.2,13.6-0.3,27.2-0.5,40.8c0,0.6,0.3,1.5-1.2,1.1c0-16.4,0-32.8,0-49.1
			c-0.3-0.1-0.3-0.2-0.3-0.2c-0.1,0.1-0.1,0.2-0.2,0.3c-0.1-0.2-0.2-0.5-0.2-0.7c-0.1-0.6-0.2-1.2-0.3-2c-0.3,1.5-0.5,2.9-0.8,4.6
			c-0.4-1-0.4-2.2-1.7-1.4c0-0.4,0-0.8,0.1-1.2c-0.1,0-0.1,0-0.2,0c-0.2,1-0.4,1.9-0.6,2.9c-0.2,0-0.4,0.1-0.6,0.1
			c-0.5-1-0.9-2-1.4-3c-0.4,3.9-0.9,7.9-1.3,11.9c-0.1,0-0.2,0-0.4,0c0-3.3,0-6.7,0-10c-0.2,0-0.4,0-0.6-0.1
			c-0.9,1.9-0.5,4.1-1.4,6.1c0-2.7,0-5.5,0-8.2c-0.1,0-0.3,0-0.4,0c-0.2,2.1-0.4,4.2-0.6,6.3c-0.1,0-0.1,0-0.2,0
			c-0.1-0.4-0.2-0.8-0.3-1.5c-0.2,0.9-0.4,1.7-0.6,2.4c-0.2,0-0.3,0-0.5,0c-0.1-1-0.3-2-0.4-2.9c0,0-0.1,0-0.1,0c-0.1,1-0.2,2-0.4,3
			c-0.1,0-0.1,0-0.2,0c-0.1-1.2-0.3-2.5-0.4-3.8c-0.4,1.8-0.7,3.4-1,5.1c-0.1,0-0.1,0-0.2,0c-0.1-0.8-0.3-1.7-0.4-2.5
			c-0.1,0-0.1,0-0.2,0c-0.1,0.4-0.2,0.9-0.3,1.3c-0.1,0-0.1,0-0.2,0c-0.1-1.5-0.2-2.9-0.3-4.4c-0.1,0-0.2,0-0.2,0
			c-0.2,2.7-0.4,5.4-0.7,8.1c-0.1,0.7-0.3,1.4-0.4,2.1c-0.1,0-0.3,0-0.4,0c-0.3-2.6-0.6-5.2-0.9-7.8c-0.1,0-0.2,0-0.3,0
			c-0.1,1.9-0.3,3.9-0.4,5.8c-0.1,0-0.3,0-0.4,0c-0.1-2.4-0.1-4.8-0.3-7.1c0-0.7-0.4-1.5-0.6-2.2c-0.3-1.2-0.6-2.4-1-3.7
			c-0.2,2.8-0.4,5.6-0.6,8.3c-0.1,0-0.2,0-0.2,0c-0.1-1.1,0-2.1-0.2-3.2c-0.2-0.8-0.7-1.6-1.5-2.5c-0.2,1-0.4,2-0.6,3
			c-0.1,0-0.2,0-0.2,0c-0.5-1.4-1-2.8-1.5-4.3c-0.2,1.2-0.4,2.4-0.5,3.3c-0.7,0.2-1.3,0.3-2,0.5c-0.1-2.1-0.2-4.4-0.3-6.6
			c-0.3,2.1-0.6,4.2-0.9,6.3c-0.1,0-0.2,0-0.3,0c-0.1-1.8-0.2-3.6-0.3-5.7c-0.1,0.6-0.2,0.8-0.3,1.1c-0.1,0-0.3,0.1-0.4,0.1
			c-0.3-0.9-0.5-1.9-0.8-2.8c-0.1,1.1-0.2,2.3-0.4,3.4c-0.1,0-0.2,0-0.2,0c-0.4-1.7-0.9-3.4-1.2-4.9c-0.1,0.4-0.2,1-0.4,1.5
			c-0.1,0-0.2,0-0.3,0c-0.2-0.7-0.3-1.4-0.5-2.2c-0.3,0.4-0.5,0.7-1,1.3c-0.2-0.9-0.4-1.5-0.7-2.4c-0.1,0.7-0.2,1.2-0.3,1.7
			c-0.1,0-0.3,0.1-0.4,0.1c-0.3-0.8-0.7-1.7-1-2.5c-0.2,0.5-0.3,1.1-0.5,1.8c-0.1,0-0.2,0-0.4,0c-0.1-0.5-0.2-1-0.3-1.7
			c-0.1,1.9-0.2,3.4-0.4,5c-0.1,0-0.2,0-0.3,0.1c-0.1-0.8-0.3-1.6-0.4-2.4c-0.1-0.9-0.3-1.8-0.7-2.7c-0.3,4.2-0.6,8.5-1,13
			c-0.2-0.3-0.2-0.4-0.3-0.5c-0.4-3.4-0.7-6.9-1.1-10.3c0-0.3-0.1-0.6-0.2-0.9c-0.5,0.1-1,0.3-1.6,0.4c-0.1-0.6-0.2-1.2-0.3-1.9
			c-0.3,1-0.6,1.8-0.8,2.5c-0.1,0-0.2,0-0.3-0.1c-0.1-1.2-0.2-2.3-0.4-3.6c-0.2,1.3-0.4,2.6-0.6,3.8c-0.2,0-0.4,0-0.5-0.1
			c-0.1-0.6-0.1-1.2-0.3-2c-0.8,2.7-1.3,3.6-1.9,3.4c0,0.6-0.1,1.1-0.1,1.7c-1.4-2-0.8-4.3-1.2-6.8c-0.1,1.1-0.2,1.8-0.3,2.5
			c-0.1,0.7-0.3,1.3-0.5,2c-0.1,0-0.3,0-0.4,0c-0.1-0.3-0.1-0.6-0.3-1.2c-0.1,1.4-0.2,2.5-0.3,3.6c-0.1,0-0.1,0-0.2,0
			c-0.1-0.3-0.1-0.7-0.3-1c-0.2-0.4-0.4-0.8-0.7-1.2c-0.4,0.3-0.8,0.6-1.4,0.9c-0.1-1.4-0.2-2.8-0.3-4.1c-0.1,0-0.1,0-0.2,0
			c-0.4,19.5-0.8,39-1.1,58.5c-0.2,0-0.3,0-0.5,0c0-0.4,0-0.9,0-1.3c-0.1-16.3-0.2-32.6-0.3-49c0-0.9-0.7-1.7-0.8-2.6
			c-0.2-1.2-0.2-2.3-0.3-3.4c-0.2,0.5-0.4,1.2-0.6,1.8c-0.1,0-0.2,0-0.3-0.1c-0.1-0.4-0.2-0.8-0.2-1.3c-0.1,0-0.3,0-0.4,0
			c0,5.2,0,10.5,0,15.7c-0.2,0-0.3,0-0.5,0c-0.2-4-0.4-8-0.5-12.1c-0.3,1.2-0.5,2.3-0.8,3.5c-0.1,0-0.1,0-0.2,0
			c-0.2-2.4-0.4-4.8-0.5-7.2c-0.1,0-0.2,0-0.3,0c-0.2,0.6-0.5,1.2-0.7,1.8c-0.1,0-0.2-0.1-0.3-0.1c-0.1-1.3-0.2-2.5-0.3-3.8
			c-0.1,0-0.1,0-0.2,0c-0.2,1.9-0.4,3.7-0.6,5.6c-0.1,0-0.3,0-0.4,0c-0.1-1.5-0.3-3.1-0.4-4.4c-0.2,0.5-0.5,1.2-0.8,1.8
			c-0.2,0-0.3-0.1-0.5-0.1c-0.1-0.7-0.1-1.3-0.2-2.2c-0.3,0.9-0.6,1.7-0.8,2.4c-0.1,0-0.2-0.1-0.4-0.1c-0.1-1.3-0.2-2.7-0.3-4
			c-0.5,1.3,0,2.9-1.3,4.3c-0.1-1.1-0.2-1.8-0.3-2.6c0,0-0.1,0-0.1,0c-0.2,1.1-0.3,2.1-0.5,3.2c-0.2,0-0.4,0-0.6,0
			c-0.1-1-0.3-2-0.4-3c-0.7,1.2,0.2,2.8-1.1,4.3c-0.1-1.6-0.2-2.9-0.3-4.2c0,0-0.1,0-0.1,0c-0.2,1.3-0.4,2.7-0.6,4
			c-0.2,0-0.4,0-0.6,0c-0.1-0.8-0.2-1.6-0.2-2.4c0,0-0.1,0-0.1,0c-0.1,1.1-0.2,2.1-0.3,3.2c-0.3-0.1-0.6-0.3-1.2-0.5
			c-0.4,17.7-0.7,35.3-1.1,52.8c-0.1,0-0.3,0-0.4,0c0-7.9,0-15.7,0-23.6c-0.1,0-0.2,0-0.3,0c-0.2,7.9-0.5,15.7-0.7,23.6
			c-0.2,0-0.3,0-0.5,0c0-2.7,0-5.3,0-8c-0.1,0-0.2,0-0.3,0c0,2.6,0,5.2,0,7.9c-0.1,0-0.3,0-0.4,0c0-13.4,0-26.7,0-40.1
			c-0.2,0-0.3,0-0.5,0c-0.3,13.4-0.6,26.8-0.9,40.2c-0.1,0-0.3,0-0.4,0c0-8.8,0-17.7,0-26.5c-0.1,0-0.3,0-0.4,0
			c-0.1,0.6-0.3,1.3-0.4,1.9c-0.1,0.6-0.2,1.3-0.2,1.9c-0.2,7.3-0.3,14.5-0.5,21.8c0,0.2,0,0.5,0,0.7c-0.1,0-0.2,0-0.4,0
			c0-16.5,0-33.1,0-49.6c-0.1,0-0.2,0-0.3,0c-0.1,0.4-0.2,0.8-0.3,1.2c-0.1,0-0.2,0-0.4,0c-0.1-1.4-0.3-2.9-0.4-4.3
			c-0.1,0-0.2,0-0.3,0c-0.5,17.6-0.9,35.2-1.4,52.8c-0.1,0-0.1,0-0.2,0c0-11.3,0-22.7,0-34c-0.1,0-0.2,0-0.3,0
			c-0.2,11.4-0.4,22.7-0.6,34.1c-0.1,0-0.3,0-0.4,0c0-7.7,0-15.3,0-23c-0.2,0-0.4,0-0.5,0c0,7.7,0,15.3,0,23c-0.2,0-0.4,0-0.5,0
			c0-11.7,0-23.5,0-35.2c-0.2,0-0.3,0-0.5,0c-0.2,11.8-0.4,23.5-0.7,35.3c-0.2,0-0.3,0-0.5,0c0-11.4,0-22.9,0-34.3
			c-0.1,0-0.2,0-0.4,0c-0.1,2.4-0.3,4.8-0.4,7.3c-0.2,0-0.4,0-0.5,0c-0.2-4.7-0.4-9.4-0.6-14.2c-0.3,13.8-0.6,27.5-1,41.3
			c-0.1,0-0.2,0-0.3,0c-0.5-14.6-1-29.2-1.4-43.8c-0.1,0-0.1,0-0.2,0c-0.5,6.2-1,12.3-1.5,18.5c-0.1,0-0.2,0-0.4,0
			c0-4.6,0-9.3,0-13.9c-0.2,0-0.3,0-0.5,0c-0.2,3.8-0.5,7.5-0.7,11.3c-0.1,0-0.2,0-0.2,0c-0.1-0.2-0.2-0.4-0.2-0.6
			c-0.4,0.5,0.3,1.6-1,1.6c0,0-0.1,0.7-0.1,1.1c-0.1,8.2-0.2,16.3-0.3,24.5c0,0.4,0,0.9-0.2,1.4c-0.1-0.3-0.1-0.7-0.2-1
			c-0.1,0.4-0.2,0.8-0.2,1.2c-0.2,0-0.3,0-0.5,0c0-16.7,0-33.4,0-50.1c-0.1,0-0.3,0-0.4,0c-0.2,6.4-0.4,12.7-0.6,19.1
			c-0.3,9.8-0.5,19.5-0.8,29.3c0,0.7,0.1,1.5-1.1,2c0-1.2,0-2.2,0-3.2c-0.1,0-0.2,0-0.2,0c0,1,0,1.9,0,3c-0.8,0-1.6,0-2.6,0
			c0-6,0-12.1,0-18.1c-0.2,0-0.3,0-0.5,0c0,6,0,12,0,18.1c-0.9,0-1.5,0-2.3,0c0-0.3,0-0.7-0.1-1.1c-0.2-15.6-0.3-31.2-0.6-46.9
			c0-1.4-0.5-2.8-0.8-4.3c-0.1-0.2-0.3-0.5-0.5-0.6c-0.9-0.5-1.1-1.2-1.1-2c0-0.4-0.1-0.9-0.6-1.5c-0.6,1.1-1.3,2.3-2,3.6
			c-0.2-1-0.4-1.9-0.7-3c-0.2,0.7-0.3,1.2-0.5,1.9c-0.2-0.6-0.3-1.1-0.6-1.8c-0.4,0.8-0.7,1.4-0.9,2c-0.5-0.9-0.9-1.9-1.4-3
			c-0.7,1-1.2,1.7-1.8,2.6c-0.2-1.4-0.4-2.5-0.6-3.6c-0.2,0-0.4,0-0.6,0c-0.3,1.3-0.6,2.7-1,4c-0.1,0.3-0.4,0.6-0.7,0.8
			c-0.1,0.1-0.5-0.3-0.8-0.4c-0.1,0.2-0.2,0.4-0.4,1c-0.1-1.5-0.3-2.7-0.4-3.8c-1.6,3.4-1.1,7-1.6,10.5c-0.1,0-0.2,0-0.3,0
			c0-3.6,0-7.1,0-10.7c-0.2,0-0.4-0.1-0.6-0.1c-0.6,1.2-1.3,2.3-2,3.7c-0.1-1.4-0.3-2.6-0.4-3.7c-0.6,0.1-1.1,0.2-1.7,0.3
			c-0.1,0.5-0.3,1-0.4,1.5c-0.1,0-0.2,0-0.4,0c-0.2-1.1-0.5-2.1-0.7-3.2c-0.1,0-0.2,0-0.3,0c-0.1,0.3-0.2,0.6-0.3,1
			c-0.2-0.2-0.3-0.3-0.5-0.6c-0.3,1.1-0.7,2.2-1,3.2c-0.3-1.6-0.6-3.1-1.9-4.3c-0.4,0.7-0.8,1.3-1.2,2.1c-0.2-0.5-0.3-0.9-0.5-1.2
			c-0.9,0.5-1.7,1-2.6,1.5c-0.1-0.3-0.3-0.7-0.5-1.3c-0.2,0.3-0.3,0.6-0.5,0.9c-0.2-0.5-0.4-1-0.6-1.6c-0.5,0.9-1.1,1.1-1.9,0.2
			c-0.2,0.6-0.4,1.1-0.5,1.5c-0.7-0.6-1.5-1.2-2.3-2c-0.8,0.3-1.9,0.7-3.2,1.1c-0.2-0.6-0.4-1.1-0.7-1.8c-0.4,0.8-0.8,1.4-1.2,2.1
			c-0.2-0.3-0.4-0.5-0.8-0.9c-0.9,1-1.7,2-2.5,2.9c-0.6-2-1.3-4.1-1.9-5.9c-2-0.1-3.6-0.3-5-0.1c-1.4,0.2-2.8,1-4.4,0.4
			c-0.2,0.2-0.5,0.6-0.8,0.9c-0.7-0.4-1.4-0.6-1.6,0.4c-0.3-0.3-0.5-0.5-0.8-0.9c-0.3,0.5-0.5,0.9-0.7,1.2c-1.7-0.2-2.7,0.4-3.1,1.9
			c-0.3,1-0.5,2.1-1,3c-0.6,0.9-1.3,1.7-1.4,2.8c0,0.1-0.4,0.1-0.6,0.2c-0.1,1-0.2,2.1-0.3,3.2c-0.1,0-0.3-0.1-0.4-0.1
			c-0.2,0.5-0.7,0.9-0.7,1.4c-0.2,6.6-0.3,13.2-0.5,19.8c0,0.5,0,1,0,1.5c-0.2,0-0.3,0-0.5,0c0-11.8,0-23.7,0-35.5
			c-0.2,0-0.4,0-0.6,0c-0.8,3.7-1,7.6-1.4,11.4c-0.2-2.1-0.3-4.3-0.5-6.4c-0.2,0-0.3,0-0.5,0c-0.2,0.8-0.5,1.5-0.7,2.3
			c-0.1,0-0.1,0-0.2,0c-0.1-1.3-0.2-2.6-0.4-3.9c-0.1,0-0.1,0-0.2,0c-0.2,0.9-0.5,1.7-0.7,2.6c-0.1,0-0.3,0-0.4,0
			c-0.2-1.4-0.4-2.7-0.6-4.3c-0.4,1.4-0.8,2.5-1.2,3.7c-0.1,0-0.2,0-0.3,0c-0.1-0.9-0.2-1.9-0.4-3c-0.4,0.2-0.8,0.3-1.3,0.5
			c-0.1-0.2-0.2-0.5-0.3-0.9c-0.5,0.2-1,0.4-1.4,0.5c-0.8-1.3-2.9-1.7-3.8-0.6c-0.2-0.4-0.3-0.7-0.4-0.9c-0.8,0-1.5,0.1-2.3,0.1
			c-0.4,0.6-0.8,1.3-1.3,2.1c-0.2-0.7-0.3-1.2-0.5-1.8c-0.2,0.1-0.5,0.2-0.5,0.2c-0.7-1.2-2-0.5-2.9-0.9c-0.9-0.3-1.8-0.3-2.8,0.1
			c-0.5,0.2-1.1,0-2,0c0,0-0.2,0.3-0.6,0.7C7,73.9,6.8,73.5,6.6,73c-0.7,0.3-1.4,0.7-2.1,1c-1-1.1-2.6-1-3.9-0.3c0-1.6,0-3.1,0-4.7
			c1.2,0.6,2.3,1,3.6,0.1c0.4-0.3,1.2,0,1.8,0c0.4,0,0.8,0,1.2-0.1c0.5,0.5,1.1,0.8,1.9,0.1c0.2-0.2,0.9-0.2,1,0
			c0.6,0.7,1.2,0.4,2,0.3c1.3-0.3,2.6-0.4,4-0.6c0.2-0.9,0.3-1.7,0.4-2.5c-0.1,1.9,1.2,2.7,3,2.8c0.5,0,1.1-0.1,1.6-0.3
			c0.8-0.3,1.5-0.7,2-0.1c1.6-0.5,3-0.9,4.6-1.5c0-0.1,0.1-0.4,0.3-1c0.5,0.7,0.8,1.1,1.3,1.8c0.1-1.5,0.3-2.8,0.4-4.2
			c0.1,0,0.2,0,0.2,0c0.3,0.9,0.5,1.8,0.8,2.6c0.1,0,0.2,0,0.3,0c0.2-1.6,0.4-3.2,0.5-4.8c0.1,0,0.1,0,0.2,0
			c0.2,1.4,0.5,2.8,0.7,4.2c0.2,0,0.4,0,0.5,0c0.1-2.2,0.3-4.4,0.4-6.6c0,0,0.1,0,0.1,0c0.3,3.6,0.7,7.3,1,10.9c0.2,0,0.5,0,0.7,0
			c0-10.3,0-20.6,0-30.9c0.2,0,0.3,0,0.5,0c0,0.3,0.1,0.6,0.1,0.8c0.2,4.6,0.2,9.1,0.5,13.7c0.1,2.1,0.7,4.2,1.4,6.3
			c0.2-0.5,0.3-1.1,0.5-1.7c1.3,1.5,0.9,3.3,1.3,4.9c0.5,2.1,1.8,3.8,3.9,4.9c0.5,0.3,1.1,0.5,1.7,0.6c0.6,0.1,1.2,0,2-0.1
			c0.4,0.8,1.4,0.8,2.5,0.7c0.4,0,0.9,0,1.3,0.2c1.3,0.5,2.6-0.2,3.9,0.4c1.3,0.6,3-0.6,3.3-2.1c0.1-0.6,0.2-1.3,0.5-1.9
			c0.2-0.5,0.7-1,1.2-1.1c0.2-0.1,0.8,0.6,1.1,0.9c0.7,0.3,1.5,0.5,2,1c0.5,0.4,0.7,1,1.5,0.2c0.8-0.9,2.2-0.6,3.2,0.6
			c0.1-0.9,0.3-1.7,0.4-2.5c0.1,0,0.1,0,0.2-0.1c0.1,0.4,0.3,0.8,0.5,1.4c0.9-0.4,1.7-0.7,2.7-1.1c0.1,0.8,0.3,1.6,0.4,2.5
			c1.3-1.2,1.4-1.5,2.3-4c0.1,0.8,0.1,1.6,0.3,2.3c0.1,0.3,0.4,0.6,0.6,1c0.4-0.5,1.5,0.3,1.6-0.8c0-0.4,0.3-0.9,0.7-1.3
			c0.2,0.8,0.4,1.6,0.6,2.4c1.5-1,2-2.3,2-3.8c0.4,1.1,0.8,2.3,1.2,3.4c0.6,0.1,0.2-1.6,1.3-0.3c0.2-2.2,0.4-4.2,0.5-6.2
			c0.1,0,0.2,0,0.3,0c0.1,1.6,0.3,3.2,0.4,4.8c0.6-0.2,1.1-0.4,1.7-0.7c0.1-0.6,0.2-1.4,0.3-2.3c0.1,0,0.2,0,0.2,0
			c0.5,1.2,0.9,2.4,1.4,3.5c0.2,0,0.3,0,0.5,0c0.2-3.3,0.4-6.6,0.6-9.9c0.8,2.8,0.1,5.8,1.8,8.7c0.1-0.9,0.3-1.5,0.4-2.4
			c0.3,0.5,0.4,0.8,0.6,1.2c0.2-0.7,0.3-1.2,0.4-1.8c0.1,0,0.2,0,0.3,0c0.3,1.2,0.7,2.4,1.1,3.7c0.4,0,0.9-0.1,1.3-0.1
			c0.1-0.9,0.2-1.8,0.4-2.7c0.1,0,0.3,0,0.4,0c0.2,1.3,0.4,2.5,0.6,4c1.5-2.5,1.3-5,1.8-7.5c0.4,1.8,0.8,3.6,1.3,5.5
			c0.2-0.4,0.4-0.6,0.6-1c0.2,0.3,0.3,0.5,0.6,1c0.1-1.6,0.2-3,0.4-4.3c0.7,1.8,1,3.7,2.5,5.2c0.4-1.2,0.4-2.4,1.1-3.2
			c2-2.2,1.3-4.8,1.4-7.2c0.3-9,0.5-18.1,0.6-27.1c0.1-6.3,0-12.6,0-18.9c1.1,0,1.8,0,2.8,0c0,3.2,0,6.4,0,9.6c0.1,0,0.2,0,0.4,0
			c0-3.2,0-6.4,0-9.5c0.9-0.1,1.6-0.2,2.5-0.3c0,0.7,0.1,1.4,0.1,2.3c0.1-0.9,0.1-1.5,0.2-2.2c1.1-0.1,1.1,0.5,1.1,1.2
			c0,1.8,0.1,3.6,0.1,5.4c0.1,6.6,0.2,13.3,0.4,19.9c0.2,7.3,0.5,14.6,0.9,21.9c0.1-16.1,0.2-32.2,0.4-48.4c0.2,0,0.3,0,0.5,0
			c0.1,0.4,0.1,0.8,0.2,1.3c0.1-0.4,0.1-0.8,0.2-1.1c0.1,0,0.2,0,0.3,0c0.1,10.3,0.3,20.6,0.4,30.9c0.1,0,0.1,0,0.2,0
			c0.2-1.1,0.4-2.2,0.7-3.3c0.2,0,0.4,0,0.5,0c0.3,4.3,0.6,8.7,0.9,13c0,0,0.1,0,0.1,0c0.2-4.1,0.4-8.2,0.5-12.2c0.1,0,0.2,0,0.3,0
			c0.4,4.5,0.8,8.9,1.3,13.4c0.1,0,0.2,0,0.4,0c0.4-13.9,0.9-27.8,1.3-41.8c0.1,0,0.2,0,0.3,0c0.3,14.4,0.7,28.8,1,43.3
			c0.1,0,0.2,0,0.3,0c0-5.3,0-10.5,0-15.8c0.1,0,0.3,0,0.4,0c0.2,1.9,0.4,3.8,0.7,5.8c0.2,0,0.4,0,0.5,0c0-11,0-22.1,0-33.1
			c0.1,0,0.2,0,0.3,0c0.3,11.7,0.5,23.4,0.8,35c0.2,0,0.3,0,0.5,0c0-11.7,0-23.4,0-35c0.2,0,0.4,0,0.6,0c0,6.9,0,13.8,0,20.7
			c0.2,0,0.3,0,0.5,0c0-6.9,0-13.8,0-20.6c0.2,0,0.4,0,0.6,0c0.2,12.3,0.4,24.5,0.5,36.8c0.1,0,0.2,0,0.3,0c0-12.3,0-24.5,0-36.8
			c0.1,0,0.3,0,0.4,0c0,0.4,0,0.8,0,1.2c0.1,10.3,0.1,20.5,0.3,30.8c0.1,4.3,0.6,8.7,0.9,13c0.1,2.5,0,4.9,0,7.4c0.1,0,0.2,0,0.4,0
			c0.2-1.3,0.4-2.6,0.6-3.9c0.1,0,0.2,0,0.2,0c0,0.6,0.1,1.3,0.1,1.9c0.1,0,0.2,0,0.3,0c0-16.8,0-33.6,0-50.4c0.1,0,0.3,0,0.4,0
			c0.7,8.6,0,17.2,1,25.8c0.2,0,0.3,0,0.5,0c0-8.6,0-17.3,0-25.9c0.2,0,0.4,0,0.5,0c0.3,13.9,0.5,27.8,0.8,41.7c0.2,0,0.4,0,0.5,0
			c0-13.8,0-27.7,0-41.5c0.1,0,0.3,0,0.4,0c0,2.5,0,5.1,0,7.6c0.1,0,0.2,0,0.3,0c0-2.6,0-5.2,0-7.8c0.2,0,0.3,0,0.5,0
			c0.2,6.2,0.5,12.5,0.7,18.7c0.1,0,0.2,0,0.3,0c0-6.2,0-12.4,0-18.7c0.2,0,0.3,0,0.5,0c0,0.4,0.1,0.8,0.1,1.2
			c0.1,9.3,0.1,18.6,0.3,27.9c0.2,8.1,0.5,16.3,0.8,24.4c0,0.3,0.3,0.6,0.4,0.9c0.4,1,0.7,2.1,1,3c0.1-0.3,0.2-0.8,0.3-1.3
			c0.1,0,0.3,0,0.4,0c0.2,0.8,0.5,1.5,0.8,2.6c0.1-1.1,0.2-2,0.2-2.9c0.1,0,0.2,0,0.3-0.1c0.3,0.8,0.6,1.6,0.9,2.5
			c0.1-0.6,0.1-1.2,0.2-1.7c0.1,0,0.2-0.1,0.3-0.1c0.3,0.8,0.7,1.6,1,2.4c0.1-0.5,0.2-1.1,0.4-1.8c0.1,0,0.2-0.1,0.3-0.1
			c0.3,1,0.7,1.9,1,2.9c0.1-1.1,0.2-2.2,0.3-3.3c0.1,0,0.1,0,0.2,0c0.3,0.8,0.5,1.6,0.8,2.4c0.1,0,0.1,0,0.2,0
			c0.1-0.6,0.2-1.2,0.3-2.1c0.5,0.6,0.9,1,1.2,1.3c0.1-1.3,0.2-2.7,0.3-4.1c0.1,0,0.3,0,0.4-0.1c0.2,1.8,0.5,3.7,0.7,5.5
			c0.1,0,0.1,0,0.2,0c0.1-0.9,0.2-1.8,0.3-3c0.3,0.4,0.6,0.7,0.8,0.9c0.1-0.1,0.2-0.1,0.2-0.1c0.2-1.1,0.5-2.2,0.6-3.3
			c0.1-1.4,0.1-2.7,0.2-4.1c0-0.3,0.3-0.5,0.8-0.7c0.1,0.5,0.1,1,0.2,1.6c0.1,0,0.1,0,0.2,0c0.2-4.6,0.3-9.1,0.5-13.7
			c0.1,0,0.3,0,0.4,0c0,6.2,0,12.5,0,18.7c0.1,0,0.3,0,0.4,0.1c0.1-0.2,0.3-0.4,0.6-0.8c0.2,1.1,0.3,2,0.4,2.9c0.1,0,0.2,0,0.3,0
			c0.1-1.3,0.2-2.6,0.4-3.9c0.1,0,0.2,0,0.3,0c0.1,0.7,0.2,1.3,0.4,2c0.1,0,0.2,0,0.3,0c0-18.6,0-37.2,0-55.9c0.2,0,0.4,0,0.5,0
			c1,19.5,0.5,39.1,1.5,58.6c0.1-0.7,0.2-1.4,0.3-2.3c0.2,0.2,0.3,0.3,0.5,0.5c0.2-0.4,0.3-0.7,0.5-1c0.1,0,0.2,0,0.3,0
			c0.2,0.6,0.3,1.3,0.5,2c0.2-0.2,0.4-0.3,0.6-0.4c0.1,0.4,0.2,0.7,0.3,1.1c0.2-0.2,0.4-0.4,0.5-0.6c0.4,0.4,0.7,0.8,1,1.2
			c0.2-1.2,0.4-2.5,0.6-3.9c0.1,0,0.2,0,0.4,0c0.2,0.5,0.3,1,0.5,1.5c0-0.3,0.1-0.6,0.1-0.9c0.9,0.5-0.1,1.9,1.3,2.2
			c0,0.3,0.1,0.7,0.1,1.1c0.1,0,0.1,0,0.2,0c0.1-0.4,0.2-0.8,0.3-1.5c0.4,0.9,0.7,1.5,1.1,2.2c0.2-0.7,0.3-1.4,0.5-2.4
			c0.4,1.1,0.6,1.8,0.9,2.5c0.7-0.9,1.5-1.9,2.1-2.9c0.2-0.2,0.1-0.6,0.1-0.9c0.1-3.5,0.1-7,0.2-10.5c0-0.4,0.1-0.7,0.3-1.1
			c0,0.8,0,1.6,0,2.4c0,0,0.1,0,0.1,0c0.2-0.5,0.3-1,0.5-1.5c0.1,0,0.2,0,0.2,0c0.3,4.7,0.6,9.4,0.9,14.1c0.1,0,0.3,0,0.4,0
			c0.2-1.5,0.4-3,0.6-4.4c0.1,0,0.3,0,0.4,0c0.2,1.3,0.3,2.7,0.5,4.1c0.1-0.3,0.2-0.4,0.3-0.9c0.4,0.6,0.7,1,0.9,1.4
			c0.3-0.6,0.7-1.3,1.2-2.4c0.2,0.7,0.3,0.9,0.4,1.5c0.2-0.5,0.3-0.8,0.4-1c0.4,0.1,0.8,0.2,1.2,0.3c0.1-1,0.2-2,0.3-3.1
			c0.4,0.5,0.6,0.9,0.9,1.3c0.3-0.6,0.5-1.1,0.7-1.6c0.1,0,0.2,0.1,0.2,0.1c0.3-0.7,0.6-1.3,1-2.1c0.5,0.6,0.8,1.1,1.4,1.8
			c0.1-1.8,0.2-3.2,0.3-4.7c0.1,0,0.3,0,0.4,0c0.3,1,0.5,2,0.8,3c0.1,0,0.2,0,0.3,0c0.3-2.8,0.6-5.6,0.9-8.4c0.2,0,0.4,0,0.6,0
			c0.2,2.4,0.5,4.8,0.7,7.3c0.1,0,0.2,0.1,0.2,0.1c0.2-0.3,0.5-0.6,0.5-0.9c0.1-1.6,0.2-3.1,0.6-4.7c0,0.5,0.1,0.9,0.1,1.6
			c0.2-0.6,0.3-1,0.4-1.4c0.1,0,0.2,0,0.2,0c0.1,1.2,0.2,2.4,0.4,3.8c0.6-1.3,1-2.3,1.5-3.4c0,0.3,0.1,0.5,0.2,1
			c0.1-0.4,0.1-0.7,0.2-0.9c0.1,0,0.2,0,0.3,0c0.2,1.7,0.4,3.4,0.7,5.5c0.1-2.4,0.2-4.4,0.3-6.4c0.1,0,0.1,0,0.2,0
			c0.2,1,0.4,2.1,0.6,3.1c0.1,0,0.3,0,0.4,0c0-2.7,0-5.4,0-8c0.2,0,0.4,0,0.6,0c0.2,2.4,0.4,4.8,0.5,7.3c0.1,0,0.2,0,0.3,0
			c0.2-2.5,0.5-5,0.7-7.5c0,0,0.1,0,0.1,0c0.2,0.8,0.4,1.6,0.5,2.5c0.2-0.1,0.3-0.2,0.6-0.4c0.1,1.2,0.3,2.3,0.4,3.4
			c0,0,0.1,0,0.1,0c0.1-1.5,0.2-3,0.4-4.5c0.1,0,0.1,0,0.2,0c0,0.3,0.1,0.7,0.1,0.7c0.5-0.1,1-0.3,1.6-0.4c0.1,1.6,0.2,3,0.4,4.5
			c0.1,0,0.2,0.1,0.4,0.1c0.4-2,0.8-4.1,1.3-6.4c0.3,1.9,0.5,3.5,0.7,5.1c0.1,0,0.2,0,0.3,0c0.1-0.7,0.2-1.4,0.3-2.2
			c0.1,0,0.2,0,0.3,0c0.2,2,0.4,3.9,0.6,5.9c0,0,0,0,0.1,0c0.1-1.8,0.3-3.6,0.4-5.4c0.2,0,0.3,0,0.5,0c0.1,1.1,0.3,2.2,0.4,3.3
			c0.1,0,0.1,0,0.2,0c0.1-1.5,0.2-3,0.3-4.5c0.1,0,0.1,0,0.2,0c0.1,0.4,0.1,0.9,0.2,1.3c0,0,0.1,0,0.1,0c0.1-1.2,0.2-2.5,0.3-3.7
			c0.1,0,0.1,0,0.2,0c0.4,3.3,0.9,6.6,1.3,9.8c0.3-0.8,0.6-1.7,1-2.9c0.1,0.5,0.2,0.7,0.3,1.1c0.2-0.1,0.4-0.3,0.6-0.4
			c0.2,1,0.4,1.9,0.6,3c0.6-1.4,1.2-2.8,1.8-4.4c0.2,2,0.4,3.8,0.6,5.5c0,0,0.1,0,0.1,0c0.1-1.8,0.2-3.6,0.3-5.4c0.1,0,0.2,0,0.2,0
			c0,0.4,0.1,0.8,0.1,1.2c0.1,0,0.2,0,0.3,0c0-15.7,0-31.5,0-47.2c1.3-0.4,1.3,0.2,1.3,0.9c0.1,4.3,0.2,8.7,0.2,13
			c0.1,9.9,0.2,19.9,0.3,29.8c0,0.9,0.2,1.8,0.5,2.7c0.4-5.5,0.7-11.1,1.1-16.6c0.2,0,0.4,0,0.5,0c0.3,3.1,0.6,6.2,0.8,9.2
			c0.2,3,0.2,6.1,0.5,9.2c0.2,0,0.5,0,0.7,0c0-7.9,0-15.9,0-23.8c0.2,0,0.3,0,0.5,0c0.4,2.6,0.8,5.2,1,7.9c0.2,1.9,0.2,3.8,0.3,5.7
			c0.1,1.4,0.1,2.9,0.7,4.2c1.1,2.2,0.9,4.6,1.3,6.9c0.2,0.9,0.6,1.8,1.1,3.1c0.4-4.7,0.1-9.1,2-13.5c0,2,0,3.8,0,5.6
			c0.1,0,0.3,0,0.4,0c0-1.1,0-2.3,0-3.4c0.1,0,0.2,0,0.3,0c0.4,3.4,0.9,6.8,1.3,10.2c0.1,0,0.3,0,0.4,0c0.1-1.6,0.3-3.2,0.4-4.8
			c0.1,0,0.2,0,0.2,0c0,0.3,0.1,0.7,0.2,1.2c0.2-0.6,0.4-1.1,0.5-1.6c0.1,0,0.1,0,0.2,0c0.1,0.7,0.2,1.5,0.2,2.2
			c0.1,0.6-0.2,1.3,1,1.3c0,0,0.1,0.4,0.2,0.7c0.1,0.9,0.2,1.7,0.2,2.6c0.1,0,0.3,0,0.4,0.1c0.1-0.4,0.4-0.8,0.4-1.2
			c0-2.4,0-4.8,0-7.2c0.1,0,0.3,0,0.4,0c0.1,0.2,0.1,0.3,0.2,0.5c0.1,0,0.2,0,0.2,0c0-3.1,0-6.1,0-9.2c0.1,0,0.2,0,0.4,0
			c0.1,0.4,0.1,0.8,0.2,1.3c0,0,0.1,0,0.1,0c0.2-12.2,0.4-24.4,0.6-36.6c0.7,14.7,0.5,29.5,2.9,44.2c0.1-5.8,0.2-11.6,0.4-17.5
			c0.1,0,0.2,0,0.3,0c0,2.5,0,5.1,0,7.6c0.1,0,0.2,0,0.3,0c0.1-6.7,0.3-13.3,0.4-20c0.1,0,0.3,0,0.4,0c0,3.6,0,7.1,0,10.7
			c0.1,0,0.3,0,0.4,0c0-3.3,0-6.7,0-10c0.1,0,0.3,0,0.4,0c0,10.5,0,21,0,31.5c0.1,0,0.3,0.1,0.4,0.1c0.3-0.4,0.5-0.7,0.9-1.3
			c0.2,1,0.3,1.9,0.5,2.7c0,0,0.1,0,0.2,0c0.2-0.8,0.3-1.7,0.5-2.5c0.1,0,0.2,0,0.3,0c0.2,1,0.4,2.1,0.6,3.1c0.1,0,0.2,0,0.3,0.1
			c0.2-0.6,0.4-1.2,0.4-1.8c0.1-4.1,0.2-8.2,0.2-12.4c0-0.3,0.1-0.6,0.4-1c0,4.3,0,8.7,0,13c0.1,0,0.3,0,0.4,0
			c0.1-0.4,0.2-0.9,0.2-1.3c0.1,0,0.2,0,0.3-0.1c0.2,1.2,0.4,2.4,0.7,3.5c0.1,0,0.3,0,0.4,0c0-8.1,0.1-16.3,0.1-24.4
			c0-8.2,0-16.4,0-24.6c0.2,0,0.5,0,0.7,0c0.1,1.4,0.1,2.9,0.2,4.3c0.1,0,0.1,0,0.2,0c0-1.4,0-2.9,0-4.3c0.1,0,0.3,0,0.4,0
			c0,1.2,0,2.4,0,3.6c0.1,0,0.2,0,0.4,0c0-1.2,0-2.4,0-3.6c0.2,0,0.3,0,0.5,0c0.1,0.8,0.1,1.6,0.2,2.5c0.1-0.9,0.1-1.7,0.2-2.5
			c0.2,0,0.3,0,0.5,0c0.2,2.7,0.3,5.4,0.5,8c0,0,0.1,0,0.1,0c0-2.7,0-5.4,0-8c0.1,0,0.2,0,0.4,0c0,0.3,0.1,0.6,0.1,1
			c0.3,16.9,0.5,33.8,0.8,50.7c0,2.8,0.3,5.5,0.6,8.3c0,0.5,0.5,1,0.8,1.5c0.2-0.1,0.4-0.1,0.7-0.2c0-20.4,0-40.8,0-61.2
			c0.2,0,0.4,0,0.7,0c0,9.2,0,18.4,0,27.5c0.2,0,0.4,0,0.7,0c0-9.2,0-18.4,0-27.5c0.2,0,0.4,0,0.6,0c0.5,20.3-0.1,40.6,1.8,60.9
			c0.2-1.8,0.5-3.6,0.7-5.5c0.2-1.8,0.4-3.6,0.6-5.4c0.2,0,0.3,0,0.5,0c0,0.6,0.1,1.2,0.1,1.8c0.1,0,0.2,0,0.3,0
			c0-6.1,0-12.2,0-18.3c0.2,0,0.3,0,0.5,0c0,3.8,0,7.5,0,11.3c0.1,0,0.3,0,0.4,0c0-3,0-6,0-9c0.1,0,0.3,0,0.4,0
			c0.1,0.4,0.2,0.9,0.2,1.3c0.1,7.8,0.2,15.6,0.3,23.4c0,0.5,0.2,0.9,0.3,1.4c0.5-0.2,1.1-0.3,1.5-0.6c1-0.8,1.3,0.2,1.8,0.7
			c0.3-0.4,0.5-0.7,0.7-1c0.3,0.2,0.6,0.5,1,0.8c0.2-0.4,0.5-0.7,0.8-1.2c0.3,0.5,0.5,0.9,0.9,1.6c0.2-1.6,0.3-2.8,0.4-4.1
			c0.1,0,0.2,0,0.3,0c0.1,1,0.2,2,0.4,3.3c0.3-0.2,0.7-0.3,0.7-0.5c0.1-0.6,0.2-1.2,0.2-1.8c0.1-5.6,0.2-11.3,0.2-16.9
			c0-0.3,0-0.6,0.3-1c0,0.3,0.1,0.6,0.1,0.9c0.1,5.8,0.2,11.5,0.2,17.3c0,1.7,0.9,2.5,3.1,2.3c0.5,0,0.9,0.4,1.4,0.4
			c1.1,0,2.2-0.1,3.5-0.2c0.2-1.8,0.5-3.6,0.7-5.5c0.1,0,0.3,0,0.4,0c0.2,1.5,0.4,3,0.5,4.6c0,0.6,0.1,1.3,0.9,1.2
			c1-0.1,2.5,0.4,2.6-1.2c0-0.3,0-0.6,0-0.9c0.1-6.1,0.2-12.3,0.3-18.4c0-0.3,0.1-0.6,0.1-0.9c0.1,0,0.2,0,0.3,0c0,5,0,10,0,15
			c0.1,0,0.2,0,0.3,0c0.1-0.7,0.3-1.5,0.4-2.2c0.1,0,0.2,0,0.3,0c0.2,2.7,0.5,5.4,0.7,8.1c0.2,0,0.3,0,0.5,0
			c0.1-1.8,0.3-3.6,0.4-5.4c0.1,0,0.2,0,0.3,0c0.1,1.9,0.2,3.7,0.3,5.8c0.8-0.1,1.7-0.1,2.5-0.3c1.4-0.3,2.9-0.5,4.3-1.2
			c0.7-0.3,1.8-0.4,2.7-0.7c1.2-0.3,1.8-1,1.8-2.2c0-1.1,0.2-2.3,0.5-3.4c0.1,1.1,0.2,2.2,0.3,3.7c0.4-0.6,0.6-1,1-1.5
			c0.2,0.6,0.4,1.1,0.6,1.7c0.1,0,0.1,0,0.2,0c0.1-0.8,0.2-1.6,0.4-2.5c0.8,0.6,1.5,1.2,2.3,1.8c0.4,0,0.9,0.1,1.6,0.2
			c0.1-3.8,0.3-7.8,0.4-11.7c0.1,0,0.2,0,0.3,0c0.1,1.8,0.1,3.6,0.3,5.4c0.1,1.1,0.3,2.3,0.5,3.4c0.1,0.3,0.4,0.6,0.6,0.9
			c0.2,0,0.3,0,0.5-0.1c0.2-1.8,0.4-3.6,0.5-5.4c0.1,0,0.1,0,0.2,0c0.1,2.3,0.2,4.5,0.4,6.9c0.3-0.2,0.6-0.4,0.9-0.6
			c0.1,0.1,0.2,0.3,0.4,0.5c0.2-0.2,0.3-0.5,0.6-0.9c0.2,0.6,0.4,1.1,0.5,1.5c0.1,0,0.3,0.1,0.4,0.1c0.2-0.9,0.6-1.8,0.6-2.8
			c0.1-4.5,0.2-9,0.3-13.5c0-0.2,0-0.5,0.1-0.7c0.1,0,0.2,0,0.3,0c0,5.2,0,10.5,0,15.7c0.1,0,0.3,0,0.4,0c0.2-4.3,0.3-8.6,0.5-12.8
			c0.2,0,0.3,0,0.5,0c0.2,1.1,0.4,2.2,0.6,3.3c0.1,0,0.2,0,0.3,0c0.1-1.6,0.2-3.3,0.4-4.9c0.1,0,0.3,0,0.4,0c0,3,0,5.9,0,8.9
			c0.1,0,0.2,0,0.3,0c0.3-2.7,0.6-5.5,0.9-8.2c0.1,0,0.1,0,0.2,0c0.2,0.7,0.4,1.4,0.6,2.2c0.1,0,0.2,0,0.3,0
			c0.2-1.4,0.4-2.8,0.6-4.2c0.1,0,0.2,0,0.2,0c0.1,1.7,0.2,3.3,0.3,5c0,0,0.1,0,0.1,0c0.2-1.6,0.5-3.2,0.7-4.8c0.1,0,0.3,0,0.4,0
			c0.1,1.2,0.2,2.4,0.4,3.6c0.1,0,0.1,0,0.2,0c0.2-1.5,0.3-3,0.5-4.6c0.1,0,0.2,0,0.3,0c0.1,2.6,0.3,5.2,0.4,7.7c0.1,0,0.1,0,0.2,0
			c0.1-2.5,0.3-5,0.4-7.4c0.1,0,0.2,0,0.3,0c0.2,1.7,0.4,3.5,0.6,5.2c0.1,0,0.1,0,0.2,0c0.1-1.6,0.2-3.1,0.3-4.7c0.1,0,0.3,0,0.4,0
			c0.2,2.1,0.3,4.3,0.5,6.4c0.1,0,0.2,0,0.2,0c0-3.4,0-6.9,0-10.3c0.1,0,0.2,0,0.3,0c0.2,0.4,0.4,0.8,0.6,1.2
			c0.2-0.1,0.3-0.1,0.5-0.2c0,2.4,0,4.9,0,7.5c0.5-0.2,0.9-0.4,1.2-0.5c0.1,1.1,0.2,2.2,0.3,3.4c0.3-3.6,0.7-7.2,1-10.7
			c0.1,0,0.2,0,0.3,0c0.1,1.6,0.3,3.2,0.4,5c0.1-1.6,0.3-2.9,0.4-4.3c0.1,0,0.3,0,0.4,0c0.1,1.7,0.3,3.4,0.4,5.1c0.1,0,0.3,0,0.4,0
			c0-2.1,0-4.2,0-6.3c0.1,0,0.3,0,0.4,0c0.2,2.2,0.3,4.5,0.5,6.7c0.1,0,0.2,0,0.3,0c0.1-0.4,0.2-0.7,0.4-1.3
			c0.1,0.6,0.2,1.1,0.3,1.5c0.1,0,0.2,0,0.3,0.1c0.2-0.4,0.4-0.9,0.5-1.3c0.1-1.6,0.2-3.2,0.3-4.8c0-0.4,0.2-0.9,0.3-1.3
			c0.1,0,0.2,0,0.4,0c0.2,1.4,0.4,2.9,0.7,4.7c0.1-1.5,0.1-2.6,0.3-3.7c0.1-0.6,0.3-1.1,0.5-1.7c0.1,0,0.3,0,0.4,0.1
			c0.1,1.6,0.2,3.2,0.4,4.8c0.1,0,0.2,0,0.3,0c0-4.4,0-8.7,0-13.1c0.2,0,0.4,0,0.5,0c0,3.1,0,6.1,0,9.2c0.2,0,0.4,0,0.6,0.1
			c0.1-0.5,0.2-1.1,0.3-1.6c0.1-0.6,0.3-1.1,0.5-1.7c0.2-0.5,0.3-1,0.6-1.6c0.1,2.1,0.2,4.3,0.3,6.4c0.1,0,0.2,0,0.4,0
			c0.1-1.6,0.1-3.1,0.2-4.7c0.1-1.6,0.2-3.2,0.2-4.8c0.1,0,0.3,0,0.4,0c0,3.3,0,6.6,0,10c0.2,0,0.4,0,0.5,0c0-2.8,0-5.6,0-8.4
			c0.1,0,0.2,0,0.4,0c0.3,3.1,0.6,6.1,0.9,9.2c0.1,0,0.2,0,0.3,0c0-3.9,0-7.9,0-11.8c0.1,0,0.2,0,0.4,0c0.3,5.1,0.7,10.2,1,15.5
			c0.1-2.1,0.3-3.9,0.4-5.7c0.1,0,0.2,0,0.3,0c0.2,1.8,0.4,3.6,0.6,5.4c0.1,0,0.3,0,0.4,0c0-4.4,0-8.7,0-13.1c0.1,0,0.2,0,0.3,0
			c0.3,3.2,0.6,6.4,0.9,10c0.3-2.6,0.6-4.8,0.8-7c0.1,0,0.1,0,0.2,0c0.3,1.6,0.6,3.3,0.8,4.9c0,0,0.1,0,0.1,0c0-3.6,0-7.3,0-10.9
			c0.1,0,0.2,0,0.3,0c0.1,0.2,0.1,0.3,0.3,0.7c0-1.3,0-2.3,0-3.3c0.1,0,0.3,0,0.4,0c0,5.4,0,10.9,0,16.3c0.2,0,0.4,0,0.6,0
			c0.2-1.5,0.3-3,0.5-4.5c0.1,0,0.2,0,0.2,0c0,1,0,1.9,0,2.9c0.1,0,0.3,0,0.4,0c0-2.2,0-4.4,0-6.6c0.1,0,0.2,0,0.4,0
			c0.1,0.3,0.1,0.7,0.2,1c0.1-1.7,0.3-3.3,0.4-4.9c0.1,0,0.2,0,0.3,0c0,1.6,0,3.2,0,4.8c0.1,0,0.2,0,0.3,0c0.1-1.1,0.2-2.3,0.3-3.4
			c0,0,0.1,0,0.1,0c0.1,0.3,0.2,0.7,0.3,1c0.1,0,0.2,0,0.2,0c0-6.4,0-12.8,0-19.2c0.2,0,0.3,0,0.5,0c0,7.8,0,15.6,0,23.5
			c0.1,0,0.2,0,0.3,0c0.1-1.5,0.3-3,0.4-4.5c0.1,0,0.3,0,0.4,0c0,3.6,0,7.1,0,10.7c0.2,0,0.4,0.1,0.6,0.1c0.2-0.5,0.6-1.1,0.6-1.6
			c0.1-5.8,0.2-11.6,0.3-17.4c0-0.4,0-0.9,0-1.3c0.1,0,0.3,0,0.4,0c0,3.5,0,7.1,0,10.6c0.2,0,0.3,0,0.5,0c0.2-5.8,0.3-11.5,0.5-17.3
			c0.1,0,0.3,0,0.4,0c0,5,0,10.1,0,15.1c0.2,0,0.3,0,0.5,0c0.1-0.6,0.1-1.2,0.2-1.8c0.1,0,0.1,0,0.2,0c0,0.7,0.1,1.3,0.1,2.1
			c0.2-1,0.3-1.8,0.5-2.8c0.2,0.2,0.3,0.3,0.4,0.4c0-0.6,0.1-1.1,0.1-1.7c0.1,0,0.2,0,0.3,0c0.3,4.2,0.6,8.4,0.9,12.5
			c0.1,0,0.2,0,0.3,0c0.1-0.7,0.3-1.3,0.4-2c0.1,0,0.1,0,0.2,0c0.2,1.1,0.4,2.3,0.7,3.7c0.5-2.3,0.8-4.2,1.3-6.2
			c0.2-0.9,0.5-1.9,0.8-2.8c0.2,2.4,0.4,4.7,0.6,7.1c0.1,0,0.3,0,0.4,0c0.1-1.2,0.2-2.4,0.4-3.6c0.1,0,0.2,0,0.3,0
			c0.1,1.1,0.2,2.2,0.4,3.5c0.2-0.9,0.3-1.7,0.4-2.5c0.1,0,0.1,0,0.2,0c0.1,0.4,0.1,0.8,0.2,1.2c0,0,0.1,0,0.1,0
			c0.2-4.7,0.4-9.4,0.6-14.1c0.2,0,0.3,0,0.5,0c0.1,2.9,0.3,5.8,0.4,8.8c0.1-1.1,0.2-2.1,0.3-3.1c0.1,0,0.3,0,0.4,0
			c0,0.5,0,0.9,0.1,1.5c0.1-0.1,0.2-0.2,0.5-0.5c0,0.9,0,1.5,0,2.2c0.1,0,0.2,0,0.4,0c0-9.9,0-19.9,0-29.8c0.1,0,0.3,0,0.4,0
			c0.1,9.2,0.2,18.3,0.3,27.5c0.2,0,0.3,0,0.5,0c0-0.5,0-0.9,0-1.4c0.1-8.8,0.2-17.6,0.3-26.5c0-0.3,0-0.6,0.1-0.9
			c0-0.1,0.3-0.2,0.4-0.2c0.1,0,0.4,0.1,0.4,0.2c0.1,0.3,0.1,0.7,0.1,1c0.1,11.4,0.1,22.8,0.3,34.3c0.1,5.6,0.5,11.2,0.8,16.8
			c0.1,1.1,0.3,2.2,0.6,3.3c0.1,0.3,0.5,0.5,0.9,0.8c0.2-11.7,0.3-23.2,0.5-34.7c0.1,0,0.3,0,0.4,0c0.1,0.7,0.3,1.3,0.3,2
			c0.1,10.6,0.2,21.1,0.3,31.7c0,1.6,0.4,3.1,0.6,4.7c0.2,0,0.3,0,0.5,0c0-10.4,0-20.9,0-31.3c0.2,0,0.3,0,0.5,0
			c0.6,11,0,22.1,1.3,33.2c1-0.3,1.7-0.6,2.6-0.9c1.4,1.1,3.4,0,5.3,0.4c0-0.1,0.1-0.3,0.1-0.7c0.5,0.3,0.9,0.6,1.5,1
			c0-0.3,0.1-0.6,0.2-0.9c0.4,0.2,0.7,0.3,1.1,0.5c0.1-0.2,0.3-0.5,0.5-0.9c0.4,0.3,0.7,0.6,1.1,0.9c0.4-0.8,0.8-0.8,1.6,0.2
			c0.2-0.3,0.4-0.8,0.7-0.8c0.8,0,1.6,0.1,2.5,0.2c0,0,0.1-0.3,0.3-0.6c0.4,0.3,0.8,0.6,1.1,0.9c0.3-0.2,0.6-0.4,0.9-0.6
			c0.2,0.3,0.5,0.5,0.5,0.8c0.2,1.1,1.1,1,1.9,1C411.6,71.3,411.6,71.4,411.6,71.5z" />
        </g>
    </g>
    <path fill="none" stroke="#BE1823" stroke-width="3" stroke-miterlimit="10" d="M411,117.7h-22.7c0-241.2,0,0-121,0
	c0-178.8,0,0-127,0c0-113.7,0,0-105.8,0c0-59.1-0.2,0-34.5,0" />
    <text transform="matrix(1 0 0 1 31.3335 150.334)">A</text>
    <text transform="matrix(1 0 0 1 138.0005 150.334)">B</text>
    <text transform="matrix(1 0 0 1 265.0005 150.334)">C</text>
    <text transform="matrix(1 0 0 1 384.334 150.334)">D</text>
</svg>
