<?xml version="1.0" encoding="utf-8"?>
<!-- Generator: Adobe Illustrator 16.0.0, SVG Export Plug-In . SVG Version: 6.00 Build 0)  -->
<!DOCTYPE svg PUBLIC "-//W3C//DTD SVG 1.1//EN" "http://www.w3.org/Graphics/SVG/1.1/DTD/svg11.dtd">
<svg version="1.1" id="Ebene_1" xmlns="http://www.w3.org/2000/svg" xmlns:xlink="http://www.w3.org/1999/xlink" x="0px" y="0px"
	 viewBox="0 0 411 167.3" enable-background="new 0 0 411 167.3" xml:space="preserve">
<g>
	<rect fill="#FFFFFF" width="411" height="167.3"/>
	<rect x="237.6" y="12.3" fill="#BE1823" stroke="#878787" stroke-width="0.5" stroke-miterlimit="10" width="163" height="142.4"/>
	<rect x="246.5" y="21.6" fill="none" width="145.3" height="124.1"/>
	<text transform="matrix(1 0 0 1 248.9795 28.4648)"><tspan x="0" y="0" fill="#FFFFFF" font-family="'PT Sans', sans-serif" font-size="9">größtmögliche Selbstständigkeit </tspan><tspan x="28.5" y="10.8" fill="#FFFFFF" font-family="'PT Sans', sans-serif" font-size="9">der Musik vom Bild</tspan><tspan x="1.5" y="32.4" fill="#FFFFFF" font-family="'Crete Round', serif" font-size="9">• völlige Unabhängigkeit bezüg</tspan><tspan x="129.9" y="32.4" fill="#FFFFFF" font-family="'Crete Round', serif" font-size="9">-</tspan><tspan x="7.5" y="43.2" fill="#FFFFFF" font-family="'Crete Round', serif" font-size="9">lich Bild und Handlung</tspan><tspan x="1.5" y="56" fill="#FFFFFF" font-family="'Crete Round', serif" font-size="9">• Gegenläufigkeit des Ausdrucks </tspan><tspan x="7.5" y="66.8" fill="#FFFFFF" font-family="'Crete Round', serif" font-size="9">bzw. Gehalts (Kontrapunkt)</tspan><tspan x="1.5" y="79.6" fill="#FFFFFF" font-family="'Crete Round', serif" font-size="9">• Distanz zwischen Filmbetrach</tspan><tspan x="130.9" y="79.6" fill="#FFFFFF" font-family="'Crete Round', serif" font-size="9">-</tspan><tspan x="7.5" y="90.4" fill="#FFFFFF" font-family="'Crete Round', serif" font-size="9">ter und Bildinhalten</tspan><tspan x="1.5" y="103.2" fill="#FFFFFF" font-family="'Crete Round', serif" font-size="9">• Kommentar / intellektueller </tspan><tspan x="7.5" y="114" fill="#FFFFFF" font-family="'Crete Round', serif" font-size="9">Oberton</tspan></text>
	<rect x="12.1" y="12.3" fill="#06662F" stroke="#878787" stroke-width="0.5" stroke-miterlimit="10" width="163" height="142.4"/>
	<rect x="21.5" y="26.2" fill="none" width="144.2" height="115.2"/>
	<text transform="matrix(1 0 0 1 23.6602 33.0059)"><tspan x="0" y="0" fill="#FFFFFF" font-family="'PT Sans', sans-serif" font-size="9">größtmögliche Abhängigkeit der </tspan><tspan x="36.8" y="10.8" fill="#FFFFFF" font-family="'PT Sans', sans-serif" font-size="9">Musik vom Bild</tspan><tspan x="1.8" y="32.4" fill="#FFFFFF" font-family="'Crete Round', serif" font-size="9">• völlige Integration bezüglich </tspan><tspan x="7.8" y="43.2" fill="#FFFFFF" font-family="'Crete Round', serif" font-size="9">Bild und Handlung</tspan><tspan x="1.8" y="56" fill="#FFFFFF" font-family="'Crete Round', serif" font-size="9">• Einheit des Ausdrucks bzw.  </tspan><tspan x="7.8" y="66.8" fill="#FFFFFF" font-family="'Crete Round', serif" font-size="9">Gehalts</tspan><tspan x="1.8" y="79.6" fill="#FFFFFF" font-family="'Crete Round', serif" font-size="9">• Darstellung der Innerlichkeit </tspan><tspan x="7.8" y="90.4" fill="#FFFFFF" font-family="'Crete Round', serif" font-size="9">von Personen und Objekten</tspan><tspan x="1.8" y="103.2" fill="#FFFFFF" font-family="'Crete Round', serif" font-size="9">• Illustration / Untermalung</tspan></text>
	<g>
		<g>
			<path d="M218.5,86.1V98c0,0,5.1-18.4,18.2-19c-13.1-0.6-18.2-19-18.2-19v11.9h-24.3V60c0,0-5.1,18.4-18.2,19
				c13.1,0.6,18.2,19,18.2,19V86.1H218.5z"/>
		</g>
	</g>
</g>
</svg>
